<svg width="1057" height="374" viewBox="0 0 1057 374" fill="none" xmlns="http://www.w3.org/2000/svg">
<path d="M0.731016 21.7574C0.497031 21.1415 0.408288 20.6759 0.464787 20.3607C0.521287 20.0456 0.709696 19.7684 1.03002 19.5293C1.42117 19.322 1.8169 19.436 2.21721 19.8713C2.64935 20.2358 3.12408 20.7897 3.64138 21.533C4.598 22.8142 5.58286 23.9379 6.59598 24.9041C7.62859 25.9215 8.72487 26.7973 9.88481 27.5315C11.0961 28.2461 12.3197 28.8386 13.5556 29.3089C19.2077 31.5085 24.579 33.433 29.6696 35.0823C34.7797 36.7829 39.8154 38.3649 44.7766 39.8284C49.7379 41.2919 54.7797 42.8128 59.9022 44.3913C60.9061 44.7148 61.8038 44.9905 62.5953 45.2185C63.3868 45.4465 64.0206 45.6462 64.497 45.8177C64.9733 45.9892 65.2504 46.1776 65.3284 46.383C65.7379 47.4609 66.1905 48.1113 66.6863 48.3341C67.2016 48.6083 67.9099 48.9266 68.8112 49.2891C69.9055 49.6958 70.6297 49.9787 70.9839 50.1378C71.4089 50.3288 71.6701 50.5527 71.7676 50.8093C71.8651 51.066 71.7793 51.3041 71.5103 51.5238C71.2414 51.7434 70.5546 51.9456 69.4499 52.1302L26.2159 59.3901C23.557 59.8128 21.7666 60.4341 20.8446 61.2543C19.9935 62.1062 19.6356 63.3288 19.7709 64.9221C19.8775 65.8214 19.9062 66.5153 19.8569 67.004C19.8589 67.4731 19.6802 67.776 19.3209 67.9124C19.0129 68.0294 18.7137 67.9375 18.4232 67.6367C18.1327 67.3359 17.8217 66.7492 17.4902 65.8765C17.2367 65.2092 16.9566 64.3171 16.6498 63.2001C16.3111 62.154 15.9689 61.0212 15.6231 59.8015C15.226 58.6014 14.8226 57.4624 14.4132 56.3844C14.0622 55.4605 13.7015 54.5109 13.331 53.5356C12.98 52.6116 12.6131 51.7231 12.2303 50.8699C11.9183 50.0486 11.6551 49.3557 11.4406 48.791C11.0311 47.7131 11.1051 46.9801 11.6626 46.5921C12.0024 46.4043 12.3787 46.467 12.7913 46.7801C13.2553 47.0738 13.6653 47.5348 14.0215 48.1631C14.9729 49.74 15.8038 50.9222 16.5141 51.7097C17.2952 52.529 18.1683 53.049 19.1332 53.2699C20.169 53.5225 21.4738 53.5555 23.0475 53.3689L33.1168 52.2752C33.9648 52.1881 34.4453 51.8294 34.5583 51.1991C34.6908 50.6201 34.6205 49.9713 34.3476 49.2526L30.9178 40.6875C30.6058 39.8662 30.2496 39.2379 29.8493 38.8026C29.5198 38.3991 28.9948 38.0993 28.2742 37.9031L14.79 33.9502C13.2071 33.4942 12.0368 33.3514 11.2792 33.5217C10.5924 33.7239 10.1473 34.0985 9.94401 34.6457C9.81152 35.2246 9.74985 35.8354 9.75901 36.4781C9.76817 37.1207 9.71267 37.6704 9.59251 38.1272C9.47234 38.5841 9.20694 38.8905 8.79629 39.0464C8.43697 39.1829 8.10232 39.0751 7.79234 38.723C7.48235 38.3708 7.21037 37.8867 6.97638 37.2708C6.7229 36.6035 6.42683 35.7467 6.08819 34.7006C5.76904 33.7058 5.35599 32.5411 4.84902 31.2065C4.24456 29.6153 3.51435 27.9249 2.6584 26.1355C1.82195 24.3974 1.17949 22.938 0.731016 21.7574ZM34.2669 41.618L37.4734 49.8274C37.6879 50.392 38.0076 50.7698 38.4326 50.9608C38.8576 51.1518 39.5197 51.194 40.419 51.0873L58.6852 48.3778C59.3597 48.2978 59.8155 48.1834 60.0526 48.0346C60.3606 47.9176 60.4659 47.7308 60.3684 47.4741C60.2904 47.2688 60.1513 47.0573 59.9512 46.8397C59.751 46.622 59.3968 46.4628 58.8887 46.3622L35.4343 39.5886C34.7845 39.4243 34.2959 39.3749 33.9684 39.4406C33.6409 39.5062 33.7404 40.232 34.2669 41.618ZM22.0944 77.1816C21.7831 76.6008 21.6222 76.1264 21.6117 75.7582C21.5529 75.4159 21.6686 75.167 21.959 75.0113C22.5397 74.7 23.4423 75.3376 24.6666 76.9241C25.9653 78.5331 27.2871 79.6624 28.6322 80.312C29.9773 80.9616 31.6878 81.0726 33.7638 80.645L70.7735 73.3274C72.7527 72.9517 74.1165 72.5321 74.8649 72.0686C75.6876 71.6275 76.0236 70.9178 75.8729 69.9395C75.7966 68.9836 75.3381 67.5472 74.4974 65.6304C74.205 64.8526 74.0648 64.2424 74.0768 63.7999C74.1147 63.4057 74.3031 63.1179 74.6418 62.9363C75.029 62.7287 75.4378 62.8522 75.8684 63.3067C76.299 63.7612 76.6699 64.2788 76.9812 64.8595C77.1109 65.1015 77.4352 65.7065 77.9541 66.6743C78.473 67.6422 78.9547 68.5989 79.3992 69.5443C79.9181 70.5122 80.2424 71.1171 80.3721 71.3591C80.865 72.2786 81.3709 73.2223 81.8898 74.1902C82.483 75.1805 83.0503 76.1225 83.5916 77.016C84.1329 77.9096 84.5722 78.6709 84.9095 79.3C86.2326 81.7682 87.1149 84.2857 87.5565 86.8526C87.998 89.4195 87.7835 91.8085 86.9129 94.0197C86.0907 96.2049 84.3971 97.985 81.8322 99.3601C79.2189 100.761 76.6313 101.338 74.0694 101.092C71.5334 100.894 69.1417 100.151 66.8941 98.8639C64.7208 97.5992 62.7376 96.1079 60.9445 94.3902C60.3393 93.8424 59.8112 93.8451 59.3602 94.3984C58.8608 94.9777 58.1134 95.9079 57.1181 97.1891C56.1228 98.4703 55.0324 99.8648 53.847 101.372C52.7359 102.903 51.6827 104.308 50.6874 105.59C49.7664 106.893 49.058 107.896 48.5621 108.598C47.1935 110.578 46.404 112.185 46.1935 113.419C46.0313 114.627 46.2055 115.998 46.7159 117.531C46.9563 118.212 47.1337 118.834 47.248 119.395C47.4365 119.98 47.3615 120.363 47.0227 120.544C46.4904 120.83 45.944 120.624 45.3838 119.928C44.8494 119.279 44.3228 118.471 43.804 117.504C43.1035 116.197 42.5145 114.924 42.0371 113.685C41.5371 112.52 41.2473 111.398 41.1674 110.319C41.1136 109.289 41.3328 108.362 41.8252 107.537C42.8136 106.01 43.992 104.257 45.3605 102.277C46.755 100.346 48.1866 98.4259 49.6554 96.5171C51.1501 94.6566 52.4548 93.0227 53.5693 91.6153C54.6615 90.2822 55.3068 89.2197 55.5054 88.428C55.7039 87.6362 55.453 86.587 54.7525 85.2803C54.1817 84.2157 53.6958 83.5416 53.2947 83.2582C52.9679 82.9973 52.4994 82.9369 51.8892 83.0771L37.5587 85.8065C35.5312 86.2081 34.0758 86.8637 33.1928 87.7732C32.3097 88.6827 32.1269 90.0268 32.6442 91.8054C32.8882 92.6092 32.9783 93.1839 32.9144 93.5296C32.8505 93.8754 32.6492 94.1391 32.3105 94.3207C32.0201 94.4763 31.7098 94.3623 31.3795 93.9787C31.0008 93.621 30.6558 93.1517 30.3445 92.571C29.6959 91.3611 29.2514 90.4157 29.0109 89.7347C28.7704 89.0537 28.5447 88.4582 28.3336 87.9483C28.171 87.4125 27.8562 86.709 27.3892 85.8379C26.4552 84.0957 25.5913 82.6586 24.7976 81.5266C23.9813 80.4689 23.0803 79.0206 22.0944 77.1816ZM57.6442 87.1879C58.189 88.2042 59.0813 89.3457 60.3211 90.6124C61.5609 91.8792 63.0911 92.9902 64.9116 93.9457C66.7805 94.8751 68.8697 95.3438 71.1792 95.3518C73.5146 95.4082 76.0132 94.7229 78.6749 93.296C81.143 91.9729 82.7699 90.0104 83.5557 87.4086C84.4158 84.8292 84.1584 82.2571 82.7834 79.6922C82.4202 79.0147 81.9636 78.5118 81.4138 78.1835C80.9384 77.8777 80.2097 77.7387 79.2279 77.7666C78.2719 77.843 76.9029 78.0785 75.1208 78.4731L58.6126 82.3699C57.3438 82.6763 56.6326 83.151 56.479 83.7941C56.3997 84.4596 56.7881 85.5909 57.6442 87.1879ZM54.7313 134.968C54.3523 134.429 54.1354 133.977 54.0806 133.613C53.981 133.281 54.0659 133.019 54.3354 132.83C54.6498 132.609 55.0323 132.675 55.4829 133.03C55.9335 133.384 56.4946 133.896 57.1663 134.565C58.6494 136.006 60.1742 136.981 61.7407 137.49C63.3837 138.013 65.1716 137.93 67.1045 137.243L101.721 125.185C104.454 124.203 106.148 123.414 106.804 122.819C107.504 122.193 107.649 121.587 107.238 121.003L103.306 115.411C101.758 113.21 100.109 111.819 98.3579 111.238C96.6833 110.67 95.0676 110.33 93.5109 110.216C92.7775 110.128 92.0149 110.093 91.2233 110.113C90.5081 110.146 89.8603 110.132 89.2799 110.07C88.731 110.053 88.3618 109.91 88.1723 109.64C87.9828 109.371 87.8856 109.137 87.8807 108.939C87.9523 108.755 88.1677 108.536 88.5271 108.283C88.6169 108.22 88.8731 108.107 89.2956 107.944C89.7181 107.782 90.316 107.63 91.0895 107.489C92.3036 107.306 93.6842 107.074 95.231 106.791C96.8094 106.554 98.2931 106.182 99.682 105.675C100.06 105.544 100.462 105.496 100.89 105.531C101.393 105.579 101.709 105.694 101.835 105.873C101.961 106.053 102.014 106.318 101.992 106.669C102.015 106.988 101.977 107.317 101.879 107.654C101.839 107.884 101.847 108.181 101.901 108.545C101.956 108.909 102.175 109.46 102.559 110.197C102.988 110.902 103.692 111.951 104.671 113.343L121.585 137.396C122.564 138.789 123.335 139.79 123.899 140.401C124.494 141.056 124.97 141.494 125.326 141.714C125.681 141.933 125.974 142.063 126.204 142.103C126.586 142.17 126.908 142.245 127.169 142.33C127.43 142.415 127.624 142.548 127.75 142.727C128.066 143.176 127.977 143.575 127.483 143.922C127.168 144.143 126.768 144.29 126.283 144.363C125.828 144.481 125.442 144.552 125.122 144.575C124.515 144.666 123.297 144.986 121.467 145.534C119.683 146.051 117.743 146.777 115.649 147.713C115.258 147.92 114.948 148.004 114.718 147.964C114.489 147.924 114.311 147.814 114.184 147.635C113.963 147.32 113.924 146.978 114.067 146.609C114.287 146.253 114.622 145.918 115.071 145.602C117.137 144.149 118.472 142.707 119.076 141.275C119.712 139.888 119.43 138.341 118.23 136.634L113.492 129.897C113.081 129.313 112.599 128.913 112.045 128.699C111.523 128.529 110.709 128.564 109.603 128.805C108.573 129.059 107.032 129.539 104.977 130.246L70.6104 142.228C68.6775 142.916 67.4897 143.852 67.0469 145.036C66.6806 146.234 66.8614 147.684 67.5892 149.387C67.9282 150.156 68.1093 150.7 68.1325 151.019C68.1557 151.338 68.0101 151.609 67.6957 151.83C67.4262 152.019 67.1044 151.943 66.7303 151.602C66.3113 151.293 65.9122 150.869 65.5332 150.33C64.7436 149.207 64.141 148.254 63.7255 147.472C63.2651 146.722 62.8204 145.994 62.3916 145.289C61.9943 144.629 61.4641 143.827 60.8008 142.884C60.0743 141.85 59.4044 140.945 58.7909 140.169C58.1775 139.392 57.5483 138.592 56.9033 137.77C56.2449 137.025 55.5209 136.091 54.7313 134.968ZM98.122 191.694C97.6559 191.228 97.3645 190.82 97.2478 190.471C97.0924 190.161 97.1311 189.889 97.3639 189.656C97.8296 189.19 98.8781 189.538 100.509 190.703C102.762 192.332 104.607 193.244 106.044 193.437C107.558 193.631 109.169 193.261 110.877 192.329L145.056 174.084C147.269 172.957 148.375 171.888 148.374 170.879C148.412 169.83 147.693 168.336 146.217 166.395C145.712 165.735 145.421 165.211 145.343 164.823C145.304 164.474 145.42 164.163 145.692 163.891C145.925 163.658 146.255 163.677 146.682 163.949C147.187 164.221 147.672 164.589 148.139 165.055C148.449 165.365 148.974 165.928 149.712 166.743C150.489 167.597 151.343 168.528 152.276 169.537C153.286 170.547 154.198 171.459 155.014 172.274L164.395 181.646C166.532 183.78 168.183 185.352 169.348 186.361C170.591 187.37 171.465 188.049 171.97 188.398C172.552 188.748 172.882 188.961 172.96 189.039C173.115 189.194 173.154 189.427 173.077 189.737C173.077 190.048 172.999 190.281 172.844 190.436C172.611 190.67 172.068 190.98 171.214 191.369C170.399 191.719 169.409 192.205 168.244 192.826C167.08 193.448 165.857 194.245 164.576 195.216C164.149 195.566 163.722 195.721 163.295 195.682C162.946 195.644 162.674 195.527 162.48 195.333C162.285 195.139 162.246 194.829 162.363 194.402C162.518 194.013 162.828 193.625 163.294 193.236C165.196 191.566 166.263 190.187 166.495 189.1C166.767 187.974 166.125 186.634 164.572 185.082L157.463 177.98C156.531 177.049 155.734 176.525 155.074 176.409C154.453 176.254 153.715 176.409 152.861 176.876L136.616 185.328C135.685 185.794 135.141 186.222 134.986 186.61C134.831 186.998 135.083 187.483 135.744 188.066L143.144 195.109C144.192 196.08 145.202 196.661 146.173 196.855C147.221 197.049 148.27 197.087 149.318 196.97C149.9 196.931 150.56 196.853 151.298 196.736C152.113 196.619 152.696 196.736 153.045 197.085C153.356 197.395 153.337 197.725 152.988 198.075C152.716 198.425 152.27 198.716 151.648 198.949C150.639 199.26 149.707 199.571 148.853 199.882C148.038 200.232 147.262 200.582 146.524 200.932C145.67 201.32 144.797 201.767 143.904 202.273C143.089 202.778 142.157 203.361 141.109 204.021C140.799 204.254 140.43 204.429 140.003 204.546C139.615 204.701 139.323 204.682 139.129 204.488C138.819 204.177 138.818 203.75 139.129 203.207C139.478 202.702 139.75 202.352 139.944 202.158C141.147 200.954 141.767 199.905 141.806 199.012C141.922 198.119 141.65 197.343 140.989 196.683L134.405 189.872C133.745 189.212 133.065 188.727 132.366 188.417C131.745 188.106 130.89 188.262 129.804 188.884L116.237 196.519C113.714 197.957 112.297 199.142 111.987 200.074C111.716 201.045 112.182 202.132 113.386 203.335L122.418 212.358C123.389 213.328 124.399 214.027 125.447 214.453C126.535 214.919 127.603 215.248 128.651 215.442C129.661 215.597 130.709 215.635 131.796 215.557C132.922 215.44 134.145 215.226 135.465 214.915C135.853 214.837 136.241 214.759 136.63 214.681C137.018 214.603 137.328 214.681 137.562 214.914C137.756 215.108 137.736 215.36 137.504 215.671C137.271 215.982 137.038 216.253 136.805 216.487C136.456 216.836 135.777 217.244 134.767 217.711C133.758 218.177 132.69 218.624 131.565 219.052C130.478 219.44 129.565 219.732 128.828 219.926C128.207 220.082 127.624 220.121 127.081 220.044C126.615 219.966 126.149 219.695 125.682 219.229C124.09 217.638 122.536 216.047 121.021 214.455C119.506 212.942 118.049 211.448 116.651 209.973C115.252 208.498 113.912 207.081 112.63 205.723C111.348 204.365 110.086 203.065 108.843 201.823C107.678 200.581 106.551 199.416 105.463 198.33C104.531 197.398 103.696 196.603 102.958 195.943C102.181 195.322 101.424 194.682 100.686 194.022C99.9477 193.44 99.0931 192.664 98.122 191.694ZM129.82 223.783C129.311 223.365 128.981 222.988 128.83 222.652C128.645 222.358 128.657 222.084 128.866 221.829C129.11 221.532 129.548 221.43 130.182 221.523C130.85 221.574 131.601 221.87 132.435 222.412C133.559 223.12 134.765 223.683 136.055 224.102C137.345 224.52 138.912 224.775 140.755 224.865C142.597 224.956 144.829 224.832 147.448 224.495L165.485 222.24C166.602 222.091 167.574 221.858 168.401 221.542C169.228 221.226 169.889 220.419 170.385 219.121L176.367 205.068C177.293 202.986 177.75 201.302 177.74 200.016C177.807 198.722 177.584 197.651 177.071 196.805C176.635 195.95 176.066 195.129 175.363 194.34C174.838 193.768 174.489 193.198 174.316 192.63C174.143 192.061 174.178 191.629 174.422 191.332C174.63 191.077 175.063 191.112 175.72 191.437C176.376 191.762 176.959 192.134 177.469 192.551C178.445 193.352 179.603 194.408 180.943 195.719C182.359 197.022 183.79 198.266 185.233 199.449C186.422 200.424 187.459 201.238 188.343 201.892C189.27 202.581 190.009 203.151 190.561 203.604C191.071 204.021 191.401 204.398 191.551 204.735C191.736 205.028 191.724 205.303 191.515 205.558C191.272 205.855 190.833 205.957 190.2 205.863C189.643 205.762 188.948 205.441 188.114 204.899C186.396 203.704 185.096 203.384 184.215 203.94C183.368 204.453 182.306 206.138 181.029 208.996L176.418 219.168C176.1 219.901 176.051 220.394 176.271 220.645C176.569 220.889 177.138 220.93 177.981 220.769L191.376 218.33C194.057 217.83 195.938 217.312 197.016 216.776C198.094 216.24 198.642 215.659 198.658 215.034C198.716 214.443 198.454 213.766 197.871 213.005C197.559 212.606 197.32 212.162 197.154 211.671C197.066 211.172 197.143 210.775 197.387 210.477C197.596 210.223 197.926 210.209 198.378 210.438C198.865 210.624 199.363 210.925 199.872 211.343C200.594 211.935 201.341 212.583 202.113 213.287C202.963 213.983 203.833 214.697 204.725 215.428C205.871 216.368 207.155 217.313 208.576 218.265C209.997 219.217 211.111 220.023 211.917 220.685C212.427 221.103 212.757 221.48 212.907 221.816C213.092 222.11 213.081 222.384 212.872 222.639C212.628 222.936 212.224 222.995 211.66 222.817C211.096 222.639 210.367 222.36 209.471 221.981C208.49 221.532 207.126 221.159 205.38 220.864C203.677 220.604 201.77 220.461 199.661 220.436C197.629 220.403 195.573 220.528 193.494 220.812L177.619 223.028C176.545 223.213 175.784 223.405 175.336 223.606C174.964 223.798 174.665 224.121 174.436 224.573L166.771 241.719C166.136 243.187 165.769 244.413 165.672 245.398C165.574 246.383 165.793 247.415 166.329 248.493C166.9 249.529 167.797 250.903 169.02 252.616C169.518 253.308 169.786 253.847 169.824 254.234C169.897 254.578 169.812 254.898 169.568 255.195C169.359 255.45 169.029 255.463 168.577 255.235C168.091 255.049 167.593 254.747 167.083 254.33C166.531 253.877 165.759 253.173 164.767 252.218C163.74 251.305 162.667 250.319 161.548 249.259C160.393 248.242 159.349 247.351 158.415 246.585C157.226 245.61 156.168 244.778 155.242 244.09C154.35 243.359 153.543 242.697 152.821 242.106C152.312 241.688 151.964 241.332 151.779 241.038C151.629 240.702 151.658 240.407 151.867 240.152C152.111 239.855 152.617 239.843 153.385 240.118C154.154 240.393 154.803 240.641 155.332 240.862C157.131 241.698 158.553 241.87 159.596 241.376C160.64 240.883 161.545 239.778 162.312 238.064L167.812 225.638C168.067 225.067 168.106 224.673 167.929 224.456C167.751 224.24 167.396 224.197 166.862 224.328L148.425 227.851C147.084 228.101 146.085 228.454 145.427 228.909C144.77 229.364 144.412 229.887 144.354 230.478C144.338 231.104 144.583 231.802 145.088 232.571C145.586 233.263 145.85 233.764 145.88 234.073C145.988 234.374 145.92 234.674 145.677 234.971C145.468 235.226 145.103 235.281 144.581 235.138C144.095 234.952 143.597 234.65 143.087 234.232C142.535 233.78 141.767 233.115 140.782 232.237C139.798 231.359 138.775 230.485 137.713 229.614C136.397 228.535 134.986 227.485 133.48 226.464C132.017 225.477 130.797 224.583 129.82 223.783ZM172.71 258.905C172.159 258.544 171.813 258.22 171.674 257.931C171.458 257.659 171.441 257.385 171.621 257.109C171.832 256.788 172.189 256.694 172.693 256.826C173.18 256.883 173.89 257.052 174.821 257.334C176.562 257.883 177.897 258.199 178.827 258.283C179.803 258.397 180.782 258.054 181.765 257.253L213.643 230.968C215.201 229.691 216.122 228.685 216.405 227.952C216.718 227.173 216.222 226.126 214.917 224.812C214.318 224.223 213.979 223.738 213.899 223.358C213.866 223.008 213.955 222.672 214.165 222.351C214.346 222.075 214.673 222.027 215.146 222.206C215.65 222.338 216.178 222.585 216.729 222.946C217.877 223.698 218.758 224.308 219.371 224.775C219.984 225.242 220.551 225.679 221.073 226.085C221.624 226.446 222.313 226.897 223.14 227.439C224.013 228.01 224.725 228.477 225.276 228.837C225.903 229.182 226.577 229.558 227.296 229.963C228.015 230.368 228.949 230.947 230.097 231.699C231.2 232.42 231.586 233.034 231.255 233.539C231.044 233.861 230.634 233.986 230.024 233.915C229.415 233.844 228.674 233.622 227.803 233.248C226.58 232.71 225.428 232.415 224.346 232.363C223.294 232.265 222.305 232.373 221.379 232.685C220.498 233.027 219.62 233.568 218.742 234.306L205.651 245.129C205.289 245.483 205.383 245.84 205.934 246.201L229.019 261.314C229.295 261.495 229.705 261.369 230.25 260.938L243.251 250.253C244.43 249.253 245.107 248.22 245.281 247.152C245.501 246.115 244.958 244.939 243.652 243.625C243.053 243.036 242.714 242.551 242.635 242.171C242.602 241.821 242.69 241.485 242.901 241.164C243.081 240.888 243.408 240.84 243.882 241.018C244.386 241.151 244.913 241.398 245.464 241.759C246.613 242.511 247.54 243.151 248.244 243.678C248.949 244.205 249.608 244.702 250.222 245.169C250.911 245.62 251.738 246.162 252.702 246.793C253.483 247.304 254.08 247.695 254.494 247.966C254.937 248.191 255.45 248.461 256.031 248.776C256.659 249.121 257.546 249.669 258.695 250.421C259.246 250.782 259.615 251.122 259.8 251.44C260.016 251.712 260.033 251.986 259.853 252.262C259.431 252.905 258.281 252.808 256.401 251.971C254.49 251.18 253.004 250.994 251.941 251.414C250.879 251.834 249.705 252.575 248.419 253.637L217.178 279.552C216.134 280.444 215.54 281.301 215.395 282.125C215.295 282.979 215.813 283.941 216.949 285.013C217.548 285.602 217.902 286.064 218.012 286.398C218.121 286.732 218.07 287.06 217.86 287.382C217.679 287.657 217.352 287.706 216.879 287.527C216.375 287.394 215.848 287.147 215.296 286.786C214.148 286.034 213.282 285.402 212.699 284.889C212.132 284.452 211.588 284.03 211.067 283.623C210.545 283.216 209.848 282.727 208.975 282.156C208.103 281.584 207.33 281.111 206.656 280.736C206.029 280.391 205.356 280.016 204.637 279.61C203.887 279.251 202.938 278.696 201.79 277.944C200.687 277.222 200.302 276.608 200.632 276.103C200.843 275.781 201.215 275.664 201.749 275.751C202.329 275.868 203.054 276.113 203.925 276.487C205.546 277.219 207.132 277.503 208.684 277.338C210.236 277.173 211.723 276.505 213.145 275.336L226.215 264.696C226.457 264.526 226.676 264.342 226.873 264.142C227.115 263.972 227.121 263.812 226.891 263.662L203.117 248.097C202.888 247.947 202.539 248.079 202.07 248.495L189.342 259.063C187.452 260.648 186.587 262.018 186.749 263.174C186.987 264.315 187.728 265.489 188.972 266.697C189.571 267.286 189.925 267.747 190.034 268.081C190.144 268.415 190.093 268.743 189.882 269.065C189.702 269.341 189.375 269.389 188.901 269.21C188.398 269.077 187.87 268.83 187.319 268.469C186.17 267.718 185.259 267.055 184.584 266.482C183.879 265.955 183.197 265.443 182.538 264.946C181.879 264.448 181.067 263.884 180.102 263.253C179.183 262.651 178.387 262.163 177.714 261.788C177.041 261.412 176.322 261.007 175.557 260.572C174.807 260.213 173.858 259.657 172.71 258.905ZM224.543 292.806C223.964 292.491 223.569 292.183 223.358 291.881C223.121 291.627 223.081 291.355 223.239 291.066C223.553 290.487 224.658 290.525 226.552 291.179C228.521 291.812 230.294 292.057 231.871 291.914C233.497 291.798 235.01 291.027 236.41 289.601L264.176 262.32C265.624 260.92 266.304 259.727 266.215 258.741C266.174 257.782 265.45 256.7 264.041 255.497C263.396 254.959 263.019 254.504 262.908 254.131C262.847 253.785 262.907 253.443 263.091 253.106C263.248 252.816 263.57 252.741 264.057 252.881C264.57 252.972 265.116 253.175 265.695 253.49C266.901 254.145 267.877 254.707 268.622 255.175C269.368 255.643 270.09 256.097 270.787 256.539C271.511 256.932 272.379 257.404 273.392 257.955C274.357 258.48 275.153 258.912 275.78 259.253C276.482 259.572 277.207 259.904 277.957 260.249C278.707 260.594 279.685 261.095 280.891 261.75C282.049 262.38 282.484 262.96 282.195 263.49C282.012 263.828 281.613 263.986 281 263.965C280.386 263.944 279.63 263.783 278.731 263.482C277.468 263.046 276.298 262.785 275.22 262.699C274.19 262.639 273.226 262.802 272.328 263.189C271.43 263.576 270.498 264.257 269.531 265.231L241.765 292.511C240.824 293.438 240.253 294.315 240.053 295.143C239.853 295.972 239.985 296.763 240.451 297.516C240.916 298.269 241.614 299.054 242.545 299.873C243.19 300.411 243.58 300.842 243.716 301.166C243.853 301.49 243.829 301.821 243.646 302.159C243.488 302.448 243.166 302.523 242.68 302.383C242.167 302.292 241.621 302.089 241.042 301.774C239.836 301.119 238.873 300.533 238.154 300.017C237.408 299.549 236.686 299.094 235.989 298.653C235.34 298.237 234.485 297.741 233.423 297.164C231.783 296.273 230.358 295.561 229.147 295.028C227.911 294.543 226.376 293.802 224.543 292.806ZM250.793 307.048C249.595 306.499 249.122 305.95 249.373 305.401C249.557 305.001 249.932 304.841 250.5 304.92C251.04 304.927 251.769 305.05 252.687 305.289C254.694 305.786 256.479 305.91 258.043 305.661C259.607 305.412 261.076 304.514 262.449 302.969L288.154 273.981C289.55 272.386 290.184 271.136 290.055 270.232C289.999 269.3 289.191 268.295 287.631 267.218C286.951 266.725 286.496 266.334 286.265 266.047C286.057 265.71 286.033 265.367 286.193 265.018C286.354 264.668 286.706 264.558 287.251 264.687C287.869 264.789 288.477 264.978 289.076 265.252C289.925 265.641 290.612 265.987 291.138 266.288C291.714 266.613 292.229 266.94 292.682 267.268C293.208 267.57 293.821 267.881 294.52 268.201C295.268 268.545 296.14 268.884 297.134 269.219C298.151 269.504 299.131 269.803 300.076 270.115C301.093 270.4 301.901 270.68 302.5 270.954C305.894 272.511 308.383 274.196 309.968 276.01C311.602 277.846 312.525 279.719 312.737 281.629C312.972 283.488 312.689 285.291 311.888 287.038C311.064 288.835 309.907 290.238 308.418 291.246C306.951 292.205 305.315 292.874 303.51 293.255C301.705 293.635 299.891 293.77 298.069 293.659C296.247 293.549 294.567 293.262 293.027 292.798C292.605 292.664 292.348 292.698 292.257 292.897C292.238 293.07 292.306 293.252 292.46 293.443C294.851 295.869 296.458 298.358 297.282 300.91C298.155 303.485 297.79 306.519 296.188 310.013C295.204 312.159 293.801 313.902 291.979 315.241C290.157 316.58 288.013 317.5 285.548 318.001C283.157 318.475 280.577 318.501 277.811 318.078C275.045 317.655 272.24 316.792 269.395 315.487C267.298 314.526 265.597 313.625 264.291 312.785C262.962 311.994 261.599 311.278 260.201 310.637C259.003 310.088 257.957 309.669 257.063 309.38C256.169 309.09 255.225 308.778 254.23 308.443C253.286 308.131 252.14 307.666 250.793 307.048ZM270.028 313.512C271.725 314.29 273.546 314.733 275.491 314.839C277.508 314.918 279.502 314.655 281.471 314.048C283.441 313.441 285.203 312.497 286.757 311.216C288.384 309.908 289.655 308.256 290.57 306.259C292.149 302.815 292.303 299.714 291.03 296.956C289.808 294.221 287.15 291.915 283.057 290.038C282.708 289.878 282.326 289.854 281.912 289.966C281.498 290.078 281.138 290.336 280.833 290.74L268.523 304.939C267.861 305.723 267.361 306.551 267.022 307.422C266.732 308.316 266.761 309.175 267.109 309.999C267.429 310.75 267.783 311.426 268.172 312.027C268.561 312.628 269.18 313.123 270.028 313.512ZM284.739 288.544C285.887 289.07 287.044 289.51 288.211 289.864C289.451 290.191 290.726 290.504 292.039 290.804C295.015 290.9 297.752 290.464 300.25 289.495C302.798 288.549 304.656 286.803 305.823 284.258C306.761 282.211 306.764 280.098 305.83 277.918C304.92 275.688 302.992 273.898 300.047 272.548C299.099 272.113 298.354 271.893 297.813 271.886C297.346 271.853 296.959 272.038 296.653 272.442L284.355 287.009C283.812 287.666 283.94 288.178 284.739 288.544ZM293.658 326.679C293.043 326.443 292.611 326.189 292.362 325.918C292.094 325.697 292.018 325.433 292.136 325.126C292.372 324.51 293.472 324.403 295.436 324.802C297.47 325.171 299.26 325.18 300.805 324.831C302.401 324.502 303.8 323.539 305 321.941L328.937 291.245C330.189 289.667 330.706 288.395 330.488 287.429C330.321 286.483 329.46 285.506 327.906 284.499C327.196 284.051 326.762 283.649 326.603 283.294C326.497 282.959 326.512 282.612 326.649 282.254C326.767 281.946 327.077 281.829 327.577 281.904C328.098 281.927 328.666 282.056 329.281 282.292C330.563 282.783 331.604 283.211 332.405 283.577C333.206 283.943 333.981 284.299 334.73 284.645C335.499 284.94 336.422 285.293 337.499 285.706C338.524 286.099 339.37 286.423 340.037 286.679C340.774 286.902 341.537 287.136 342.326 287.38C343.115 287.623 344.15 287.99 345.432 288.482C346.663 288.953 347.17 289.471 346.954 290.035C346.816 290.394 346.442 290.603 345.831 290.663C345.22 290.723 344.449 290.663 343.518 290.483C342.209 290.216 341.015 290.111 339.935 290.168C338.906 290.244 337.972 290.533 337.133 291.034C336.294 291.536 335.459 292.333 334.628 293.426L310.692 324.122C309.881 325.164 309.43 326.108 309.341 326.956C309.251 327.804 309.487 328.57 310.047 329.256C310.608 329.941 311.403 330.628 312.433 331.317C313.143 331.765 313.587 332.141 313.765 332.444C313.942 332.748 313.962 333.079 313.825 333.438C313.707 333.745 313.398 333.862 312.897 333.788C312.377 333.765 311.809 333.635 311.193 333.4C309.912 332.908 308.88 332.454 308.099 332.037C307.298 331.672 306.523 331.316 305.774 330.97C305.076 330.643 304.163 330.264 303.035 329.832C301.291 329.163 299.785 328.645 298.515 328.276C297.225 327.958 295.606 327.426 293.658 326.679ZM332.813 340.801C332.183 340.608 331.735 340.384 331.468 340.13C331.186 339.928 331.093 339.67 331.189 339.355C331.302 338.987 331.645 338.805 332.218 338.809C332.792 338.813 333.549 338.873 334.489 338.989C336.544 339.218 338.347 339.053 339.897 338.495C341.515 337.9 342.877 336.739 343.982 335.01L363.932 304.258C365.488 301.807 366.343 300.145 366.496 299.273C366.665 298.348 366.408 297.781 365.726 297.572L359.19 295.566C356.618 294.776 354.462 294.689 352.723 295.304C351.052 295.882 349.567 296.604 348.267 297.469C347.634 297.849 347.01 298.289 346.397 298.79C345.852 299.255 345.332 299.641 344.836 299.948C344.392 300.271 344.012 300.384 343.697 300.288C343.382 300.191 343.162 300.066 343.037 299.913C342.98 299.723 343.017 299.418 343.145 298.998C343.178 298.893 343.311 298.647 343.545 298.259C343.779 297.872 344.158 297.385 344.682 296.799C345.529 295.91 346.477 294.88 347.526 293.709C348.627 292.553 349.571 291.35 350.358 290.098C350.575 289.762 350.864 289.478 351.223 289.243C351.651 288.973 351.97 288.869 352.18 288.934C352.389 288.998 352.593 289.176 352.792 289.466C353.006 289.704 353.177 289.987 353.307 290.314C353.416 290.52 353.604 290.749 353.87 291.004C354.137 291.258 354.648 291.558 355.403 291.905C356.174 292.199 357.374 292.596 359.001 293.095L387.111 301.723C388.738 302.223 389.962 302.541 390.781 302.678C391.653 302.83 392.297 302.885 392.713 302.84C393.129 302.795 393.44 302.718 393.645 302.609C393.988 302.427 394.289 302.29 394.547 302.197C394.806 302.104 395.04 302.089 395.25 302.154C395.775 302.315 395.949 302.684 395.771 303.262C395.659 303.629 395.433 303.991 395.094 304.346C394.807 304.718 394.545 305.01 394.307 305.225C393.884 305.669 393.117 306.669 392.008 308.224C390.915 309.726 389.828 311.489 388.748 313.512C388.566 313.916 388.373 314.173 388.167 314.282C387.961 314.391 387.753 314.413 387.543 314.349C387.176 314.236 386.936 313.99 386.822 313.611C386.778 313.195 386.836 312.725 386.997 312.2C387.738 309.785 387.908 307.827 387.508 306.325C387.159 304.84 385.988 303.791 383.993 303.179L376.119 300.762C375.437 300.553 374.811 300.533 374.242 300.703C373.725 300.889 373.104 301.416 372.378 302.285C371.721 303.117 370.797 304.441 369.607 306.259L349.808 336.799C348.703 338.527 348.339 339.995 348.715 341.202C349.16 342.372 350.192 343.407 351.812 344.306C352.551 344.705 353.028 345.024 353.242 345.262C353.456 345.5 353.506 345.803 353.394 346.17C353.297 346.485 352.996 346.623 352.492 346.583C351.971 346.595 351.396 346.505 350.766 346.311C349.453 345.909 348.393 345.526 347.586 345.163C346.762 344.853 345.964 344.55 345.193 344.256C344.474 343.978 343.564 343.67 342.461 343.332C341.254 342.961 340.17 342.657 339.209 342.419C338.248 342.182 337.261 341.936 336.247 341.683C335.27 341.498 334.125 341.204 332.813 340.801ZM370.552 352.361C369.911 352.209 369.449 352.015 369.166 351.779C368.871 351.596 368.761 351.345 368.837 351.024C368.989 350.383 370.064 350.13 372.064 350.265C374.129 350.359 375.905 350.13 377.389 349.579C378.928 349.04 380.185 347.899 381.163 346.156L400.802 312.548C401.832 310.817 402.175 309.487 401.831 308.559C401.54 307.644 400.557 306.79 398.882 305.999C398.119 305.649 397.635 305.309 397.431 304.978C397.28 304.66 397.249 304.314 397.338 303.94C397.414 303.62 397.705 303.463 398.211 303.47C398.73 303.424 399.31 303.476 399.951 303.628C401.287 303.944 402.376 304.231 403.218 304.486C404.061 304.742 404.876 304.992 405.665 305.235C406.466 305.425 407.428 305.653 408.55 305.918C409.619 306.171 410.501 306.38 411.195 306.545C411.956 306.668 412.743 306.798 413.557 306.935C414.372 307.071 415.447 307.297 416.782 307.614C418.065 307.917 418.636 308.363 418.497 308.951C418.409 309.325 418.066 309.582 417.468 309.723C416.87 309.864 416.098 309.906 415.152 309.852C413.819 309.762 412.621 309.817 411.558 310.016C410.549 310.229 409.661 310.639 408.896 311.248C408.132 311.857 407.41 312.758 406.733 313.952L387.094 347.56C386.429 348.7 386.108 349.697 386.132 350.549C386.156 351.401 386.491 352.129 387.138 352.734C387.785 353.338 388.664 353.913 389.777 354.459C390.54 354.809 391.03 355.123 391.247 355.4C391.463 355.677 391.527 356.002 391.439 356.376C391.363 356.697 391.072 356.853 390.566 356.846C390.047 356.893 389.467 356.84 388.826 356.688C387.49 356.372 386.407 356.059 385.577 355.75C384.735 355.494 383.92 355.244 383.131 355.001C382.395 354.771 381.44 354.516 380.264 354.238C378.448 353.808 376.886 353.494 375.578 353.297C374.258 353.154 372.582 352.842 370.552 352.361ZM423.802 363.937C419.575 363.244 416.263 361.727 413.865 359.386C411.53 357 409.97 354.129 409.185 350.773C408.409 347.362 408.327 343.788 408.94 340.049C409.58 336.148 410.906 332.303 412.919 328.516C414.985 324.737 417.649 321.39 420.909 318.475C424.178 315.506 427.932 313.311 432.171 311.892C436.465 310.482 441.158 310.195 446.252 311.03C450.478 311.723 453.786 313.267 456.175 315.663C458.574 318.003 460.134 320.875 460.855 324.276C461.64 327.632 461.726 331.179 461.113 334.918C460.473 338.82 459.12 342.66 457.053 346.438C455.041 350.226 452.4 353.604 449.131 356.574C445.871 359.489 442.094 361.651 437.801 363.062C433.562 364.481 428.895 364.773 423.802 363.937ZM424.459 361.458C427.385 361.938 430.205 361.705 432.92 360.759C435.698 359.768 438.28 358.272 440.667 356.27C443.117 354.224 445.291 351.826 447.189 349.077C449.096 346.274 450.695 343.309 451.987 340.182C453.287 337.001 454.196 333.839 454.711 330.697C455.129 328.15 455.127 325.618 454.705 323.1C454.337 320.592 453.411 318.436 451.926 316.635C450.495 314.842 448.398 313.719 445.634 313.266C442.817 312.804 440.046 313.073 437.323 314.073C434.599 315.073 432.039 316.6 429.643 318.656C427.247 320.711 425.042 323.131 423.027 325.917C421.075 328.657 419.422 331.613 418.067 334.785C416.766 337.966 415.858 341.128 415.342 344.271C414.925 346.818 414.904 349.318 415.28 351.773C415.711 354.236 416.642 356.364 418.073 358.157C419.567 359.904 421.695 361.004 424.459 361.458ZM457.063 368.514C456.405 368.469 455.918 368.353 455.6 368.166C455.279 368.034 455.13 367.804 455.152 367.475C455.178 367.092 455.362 366.829 455.701 366.687C456.045 366.491 456.69 366.315 457.636 366.159C460.252 365.733 462.114 365.062 463.223 364.147C464.331 363.232 465.122 362.13 465.595 360.842L479.439 326.206C480.099 324.6 480.496 323.224 480.629 322.077C480.762 320.93 480.441 320 479.664 319.287C478.946 318.522 477.549 318.014 475.475 317.762C474.551 317.589 473.796 317.372 473.208 317.112C472.624 316.796 472.347 316.42 472.377 315.982C472.415 315.434 472.711 315.124 473.266 315.052C473.822 314.98 474.236 314.953 474.51 314.972C475.989 315.073 477.357 315.194 478.613 315.335C479.869 315.476 481.014 315.636 482.048 315.817C483.14 315.947 484.151 316.043 485.082 316.107C485.521 316.137 485.922 316.302 486.287 316.602C486.655 316.848 486.934 317.197 487.123 317.65L503.233 358.544C503.328 358.771 503.524 359.114 503.823 359.575C504.18 359.985 504.496 360.199 504.77 360.218C505.044 360.236 505.437 359.713 505.95 358.647C506.211 358.06 506.671 356.963 507.331 355.357C507.991 353.751 508.754 351.849 509.62 349.652C510.49 347.4 511.365 345.065 512.245 342.649C513.181 340.236 514.052 337.956 514.859 335.81C515.67 333.609 516.347 331.757 516.89 330.253C517.434 328.749 517.775 327.781 517.914 327.351C518.484 325.463 518.28 324.018 517.303 323.016C516.325 322.013 514.535 321.23 511.932 320.667C510.468 320.347 509.764 319.776 509.82 318.954C509.842 318.626 510.133 318.398 510.692 318.271C511.306 318.148 511.942 318.109 512.599 318.154C514.078 318.255 515.499 318.407 516.861 318.61C518.278 318.817 519.78 318.975 521.369 319.083C522.465 319.158 523.425 319.196 524.251 319.198C525.08 319.144 525.989 319.124 526.979 319.137C528.028 319.098 529.319 319.132 530.853 319.236C532.113 319.323 532.722 319.667 532.681 320.269C532.655 320.653 532.356 320.99 531.786 321.282C531.22 321.518 530.467 321.659 529.528 321.705C528.151 321.721 527.04 321.865 526.196 322.138C525.411 322.359 524.745 322.837 524.2 323.57C523.654 324.303 523.031 325.361 522.331 326.744C522.199 327.066 521.772 328.082 521.05 329.794C520.331 331.451 519.447 333.509 518.398 335.97C517.35 338.43 516.235 341.05 515.054 343.831C513.873 346.613 512.755 349.288 511.698 351.858C510.642 354.427 509.72 356.648 508.931 358.521C508.197 360.397 507.728 361.631 507.522 362.222C507.243 363.084 507.112 363.79 507.13 364.342C507.206 364.842 507.358 365.431 507.587 366.107C507.863 366.896 508.235 367.499 508.702 367.917C509.227 368.283 509.697 368.645 510.113 369.004C510.529 369.362 510.863 369.715 511.114 370.063C511.424 370.359 511.56 370.781 511.523 371.329C511.508 371.548 511.416 371.68 511.248 371.723C511.135 371.77 510.996 371.789 510.832 371.777C509.846 371.71 508.94 371.675 508.114 371.674C507.344 371.676 506.655 371.684 506.049 371.698C505.494 371.77 504.969 371.789 504.476 371.756C503.6 371.696 502.924 371.512 502.45 371.204C501.976 370.897 501.549 370.29 501.171 369.383C500.327 367.234 499.462 365.001 498.575 362.684C497.742 360.37 496.886 358 496.006 355.573C495.181 353.15 494.329 350.725 493.449 348.298C492.569 345.872 491.66 343.47 490.722 341.095C489.842 338.668 488.956 336.323 488.065 334.061C487.178 331.744 486.254 329.561 485.293 327.514C485.006 326.889 484.681 326.399 484.32 326.044C484.018 325.639 483.73 325.426 483.456 325.407C483.182 325.389 482.836 325.613 482.419 326.08C482.006 326.492 481.63 327.154 481.293 328.067C480.606 330.056 479.762 332.337 478.761 334.911C477.814 337.488 476.8 340.253 475.717 343.206C474.693 346.108 473.636 349.09 472.546 352.153C471.46 355.161 470.459 358.12 469.545 361.029C469.057 362.537 469.188 363.839 469.938 364.936C470.748 365.982 472.178 366.796 474.23 367.376C475.04 367.597 475.63 367.83 475.998 368.075C476.37 368.265 476.543 368.552 476.517 368.936C476.495 369.265 476.233 369.467 475.733 369.543C475.228 369.673 474.648 369.716 473.99 369.671C472.621 369.578 471.501 369.446 470.632 369.277C469.814 369.166 469.051 369.058 468.343 368.955C467.634 368.851 466.814 368.768 465.883 368.704C464.788 368.629 463.827 368.591 463.002 368.59C462.176 368.588 461.323 368.585 460.443 368.58C459.559 368.63 458.432 368.608 457.063 368.514ZM532.691 372.978C532.033 373.011 531.562 372.951 531.28 372.801C530.997 372.65 530.792 372.385 530.663 372.007C530.586 371.571 530.817 371.229 531.354 370.983C531.834 370.684 532.507 370.403 533.374 370.14C534.888 369.625 536.26 369.034 537.491 368.368C538.778 367.699 539.949 366.926 541.005 366.049C542.058 365.117 542.998 364.135 543.827 363.104C547.661 358.405 551.147 353.888 554.285 349.554C557.477 345.216 560.534 340.913 563.455 336.644C566.376 332.376 569.377 328.048 572.457 323.661C573.074 322.806 573.613 322.037 574.074 321.354C574.535 320.671 574.92 320.13 575.23 319.73C575.54 319.329 575.805 319.124 576.024 319.113C577.176 319.055 577.934 318.825 578.299 318.422C578.719 318.016 579.24 317.441 579.862 316.695C580.586 315.779 581.079 315.177 581.339 314.89C581.652 314.544 581.945 314.365 582.219 314.351C582.494 314.337 582.694 314.492 582.82 314.816C582.946 315.139 582.927 315.855 582.762 316.963L576.345 360.33C575.928 362.99 575.967 364.885 576.464 366.014C577.012 367.087 578.065 367.804 579.622 368.166C580.51 368.342 581.179 368.528 581.629 368.726C582.076 368.869 582.309 369.132 582.328 369.516C582.345 369.845 582.165 370.101 581.789 370.285C581.413 370.469 580.759 370.584 579.827 370.63C579.114 370.666 578.179 370.657 577.022 370.605C575.922 370.605 574.739 370.581 573.472 370.534C572.208 370.542 571 370.575 569.849 370.632C568.862 370.681 567.847 370.732 566.805 370.784C565.818 370.833 564.86 370.908 563.93 371.009C563.052 371.053 562.312 371.09 561.709 371.12C560.557 371.177 559.883 370.881 559.685 370.231C559.611 369.85 559.787 369.511 560.212 369.215C560.634 368.865 561.199 368.616 561.907 368.471C563.7 368.052 565.081 367.626 566.049 367.193C567.069 366.702 567.833 366.032 568.34 365.182C568.9 364.275 569.333 363.043 569.641 361.489L571.703 351.572C571.882 350.739 571.689 350.171 571.124 349.87C570.614 349.565 569.975 349.432 569.207 349.47L560.002 350.094C559.124 350.137 558.417 350.283 557.879 350.529C557.394 350.718 556.947 351.125 556.538 351.751L548.622 363.36C547.701 364.726 547.204 365.795 547.133 366.568C547.114 367.284 547.333 367.823 547.791 368.185C548.301 368.489 548.863 368.736 549.477 368.925C550.091 369.115 550.597 369.337 550.995 369.592C551.392 369.847 551.602 370.194 551.624 370.633C551.643 371.017 551.437 371.302 551.007 371.488C550.576 371.675 550.032 371.784 549.374 371.817C548.661 371.852 547.754 371.87 546.655 371.87C545.61 371.867 544.375 371.901 542.949 371.972C541.249 372.057 539.416 372.23 537.45 372.493C535.538 372.753 533.952 372.915 532.691 372.978ZM561.919 347.194L570.717 346.674C571.32 346.644 571.778 346.456 572.091 346.11C572.404 345.765 572.648 345.148 572.824 344.26L575.875 326.047C576.007 325.381 576.038 324.912 575.97 324.641C575.953 324.312 575.808 324.154 575.534 324.168C575.314 324.179 575.07 324.246 574.802 324.369C574.533 324.492 574.272 324.78 574.02 325.233L560.348 345.458C559.992 346.026 559.794 346.475 559.756 346.807C559.717 347.139 560.438 347.268 561.919 347.194ZM592.018 369.828C591.366 369.918 590.865 369.904 590.516 369.785C590.175 369.721 589.982 369.526 589.937 369.2C589.847 368.547 590.759 367.923 592.672 367.327C594.633 366.67 596.151 365.823 597.229 364.789C598.306 363.754 599.005 362.189 599.327 360.094L605.347 322.851C605.684 320.865 605.765 319.44 605.591 318.577C605.464 317.653 604.916 317.091 603.946 316.891C603.023 316.63 601.517 316.56 599.428 316.681C598.597 316.684 597.976 316.604 597.565 316.438C597.209 316.266 597.004 315.989 596.952 315.608C596.892 315.173 597.15 314.833 597.726 314.587C598.302 314.342 598.917 314.174 599.569 314.084C599.841 314.047 600.521 313.953 601.609 313.804C602.697 313.654 603.762 313.536 604.803 313.448C605.891 313.298 606.571 313.205 606.843 313.167C607.876 313.025 608.937 312.88 610.025 312.73C611.16 312.519 612.24 312.315 613.266 312.118C614.293 311.922 615.159 311.775 615.866 311.677C618.641 311.296 621.308 311.345 623.868 311.825C626.428 312.304 628.593 313.337 630.363 314.922C632.125 316.454 633.205 318.661 633.601 321.544C634.005 324.481 633.646 327.108 632.523 329.424C631.455 331.733 629.926 333.716 627.937 335.376C625.995 336.973 623.907 338.313 621.672 339.396C620.948 339.773 620.767 340.269 621.129 340.884C621.498 341.554 622.11 342.578 622.965 343.957C623.819 345.336 624.747 346.844 625.748 348.48C626.796 350.054 627.747 351.531 628.602 352.91C629.503 354.227 630.197 355.24 630.682 355.949C632.062 357.921 633.294 359.221 634.378 359.848C635.454 360.42 636.8 360.734 638.415 360.789C639.137 360.801 639.781 360.851 640.348 360.939C640.961 360.966 641.294 361.169 641.346 361.55C641.428 362.148 641.045 362.589 640.198 362.872C639.404 363.147 638.463 363.36 637.375 363.509C635.907 363.711 634.508 363.82 633.18 363.837C631.914 363.9 630.762 363.781 629.723 363.481C628.738 363.173 627.945 362.644 627.343 361.896C626.256 360.438 625.022 358.723 623.643 356.751C622.317 354.771 621.016 352.761 619.737 350.72C618.513 348.671 617.436 346.879 616.504 345.344C615.635 343.857 614.863 342.882 614.19 342.42C613.517 341.958 612.446 341.829 610.977 342.03C609.78 342.195 608.979 342.416 608.574 342.693C608.216 342.909 607.996 343.327 607.915 343.948L605.486 358.332C605.157 360.373 605.265 361.965 605.811 363.11C606.356 364.254 607.552 364.893 609.4 365.027C610.238 365.078 610.808 365.194 611.11 365.374C611.412 365.554 611.589 365.835 611.642 366.216C611.686 366.542 611.472 366.793 610.997 366.97C610.53 367.2 609.97 367.36 609.317 367.45C607.957 367.637 606.916 367.725 606.194 367.713C605.472 367.701 604.835 367.706 604.284 367.726C603.725 367.692 602.956 367.742 601.976 367.877C600.018 368.146 598.37 368.456 597.033 368.806C595.757 369.203 594.086 369.544 592.018 369.828ZM613.772 339.983C614.914 339.826 616.295 339.387 617.914 338.666C619.533 337.944 621.107 336.896 622.636 335.522C624.158 334.094 625.325 332.298 626.136 330.136C627.002 327.966 627.229 325.385 626.817 322.393C626.436 319.619 625.163 317.411 622.997 315.769C620.878 314.065 618.377 313.411 615.494 313.807C614.732 313.912 614.102 314.165 613.603 314.566C613.151 314.905 612.767 315.54 612.451 316.47C612.19 317.393 611.935 318.758 611.684 320.566L609.592 337.399C609.438 338.695 609.635 339.527 610.185 339.895C610.781 340.201 611.977 340.23 613.772 339.983ZM657.658 359.756C657.015 359.902 656.515 359.93 656.157 359.842C655.812 359.808 655.603 359.63 655.53 359.308C655.445 358.934 655.652 358.605 656.152 358.323C656.651 358.042 657.338 357.718 658.212 357.351C660.109 356.528 661.591 355.489 662.658 354.235C663.767 352.915 664.372 351.23 664.471 349.181L666.499 312.58C666.632 309.679 666.547 307.813 666.247 306.98C665.934 306.094 665.429 305.729 664.733 305.887L658.065 307.394C655.44 307.987 653.526 308.983 652.322 310.381C651.16 311.713 650.23 313.078 649.532 314.474C649.171 315.119 648.849 315.811 648.566 316.55C648.324 317.224 648.064 317.818 647.786 318.331C647.562 318.832 647.289 319.119 646.967 319.191C646.646 319.264 646.393 319.265 646.208 319.194C646.065 319.058 645.945 318.775 645.848 318.347C645.823 318.24 645.816 317.96 645.827 317.507C645.837 317.054 645.924 316.444 646.088 315.675C646.381 314.483 646.692 313.118 647.02 311.58C647.401 310.03 647.622 308.516 647.682 307.039C647.705 306.64 647.813 306.249 648.009 305.867C648.245 305.42 648.471 305.172 648.685 305.123C648.899 305.075 649.164 305.128 649.481 305.281C649.785 305.381 650.074 305.541 650.349 305.761C650.546 305.885 650.823 305.991 651.181 306.079C651.539 306.167 652.131 306.174 652.959 306.099C653.774 305.971 655.012 305.72 656.672 305.344L685.353 298.861C687.013 298.485 688.233 298.153 689.012 297.865C689.845 297.564 690.43 297.291 690.769 297.045C691.108 296.8 691.339 296.579 691.463 296.382C691.671 296.053 691.863 295.784 692.041 295.575C692.219 295.366 692.415 295.238 692.629 295.189C693.165 295.068 693.499 295.302 693.633 295.891C693.717 296.266 693.701 296.692 693.584 297.169C693.52 297.634 693.438 298.018 693.338 298.322C693.191 298.918 693.023 300.167 692.833 302.067C692.632 303.914 692.565 305.984 692.633 308.277C692.676 308.718 692.635 309.036 692.511 309.233C692.387 309.43 692.217 309.553 692.003 309.602C691.628 309.686 691.297 309.592 691.011 309.319C690.765 308.981 690.582 308.544 690.461 308.008C689.904 305.544 689.078 303.761 687.984 302.657C686.944 301.541 685.406 301.213 683.371 301.673L675.337 303.489C674.641 303.647 674.088 303.941 673.679 304.371C673.323 304.789 673.046 305.555 672.847 306.67C672.69 307.719 672.547 309.327 672.418 311.496L670.416 347.837C670.317 349.886 670.73 351.341 671.656 352.201C672.624 352.995 674.034 353.38 675.886 353.356C676.726 353.335 677.298 353.374 677.602 353.474C677.906 353.574 678.1 353.812 678.185 354.187C678.258 354.508 678.065 354.777 677.607 354.993C677.162 355.263 676.617 355.47 675.975 355.615C674.636 355.918 673.526 356.113 672.645 356.199C671.776 356.34 670.933 356.474 670.118 356.602C669.356 356.718 668.413 356.903 667.288 357.157C666.056 357.436 664.964 357.711 664.012 357.982C663.06 358.254 662.081 358.531 661.076 358.815C660.136 359.14 658.997 359.454 657.658 359.756ZM711.089 346.833C710.465 347.047 709.971 347.128 709.606 347.079C709.259 347.082 709.032 346.927 708.925 346.616C708.712 345.992 709.487 345.205 711.251 344.253C713.707 342.95 715.338 341.695 716.145 340.491C716.986 339.217 717.364 337.608 717.28 335.664L715.965 296.942C715.929 294.459 715.457 292.996 714.551 292.551C713.627 292.055 711.968 292.041 709.576 292.511C708.761 292.674 708.162 292.705 707.779 292.603C707.448 292.484 707.221 292.243 707.096 291.879C706.99 291.568 707.152 291.28 707.585 291.016C708.051 290.683 708.596 290.409 709.219 290.196C709.635 290.054 710.371 289.831 711.428 289.528C712.537 289.207 713.75 288.85 715.066 288.458C716.417 287.996 717.638 287.578 718.729 287.205L731.277 282.915C734.134 281.938 736.273 281.149 737.692 280.547C739.145 279.876 740.14 279.391 740.676 279.092C741.246 278.723 741.583 278.52 741.687 278.485C741.895 278.414 742.121 278.482 742.366 278.688C742.645 278.825 742.82 278.997 742.891 279.205C742.998 279.517 743.037 280.141 743.01 281.079C742.964 281.965 742.964 283.068 743.009 284.387C743.054 285.707 743.23 287.155 743.538 288.733C743.663 289.27 743.615 289.722 743.392 290.089C743.203 290.385 742.979 290.578 742.719 290.667C742.459 290.756 742.163 290.654 741.831 290.361C741.551 290.051 741.339 289.601 741.195 289.012C740.534 286.568 739.767 285.003 738.893 284.315C738.002 283.575 736.517 283.56 734.439 284.271L724.931 287.522C723.684 287.949 722.863 288.432 722.468 288.974C722.055 289.463 721.869 290.194 721.911 291.166L722.339 309.474C722.347 310.515 722.491 311.191 722.772 311.502C723.052 311.812 723.599 311.799 724.412 311.463L733.996 307.925C735.329 307.411 736.297 306.761 736.898 305.975C737.534 305.119 738.031 304.195 738.388 303.203C738.609 302.663 738.83 302.036 739.05 301.322C739.305 300.539 739.666 300.067 740.133 299.907C740.549 299.765 740.837 299.928 740.997 300.396C741.191 300.793 741.256 301.323 741.191 301.983C741.026 303.026 740.894 303.999 740.797 304.903C740.752 305.789 740.724 306.64 740.713 307.456C740.685 308.394 740.701 309.375 740.761 310.399C740.856 311.354 740.968 312.447 741.099 313.679C741.172 314.06 741.166 314.468 741.083 314.903C741.051 315.32 740.906 315.573 740.646 315.662C740.23 315.804 739.847 315.616 739.495 315.098C739.196 314.562 739.002 314.164 738.913 313.904C738.362 312.293 737.695 311.274 736.91 310.846C736.159 310.348 735.343 310.25 734.459 310.552L725.443 313.461C724.56 313.763 723.825 314.159 723.239 314.65C722.686 315.071 722.45 315.906 722.529 317.156L723.404 332.699C723.583 335.598 724.022 337.391 724.722 338.081C725.474 338.752 726.655 338.812 728.266 338.262L740.345 334.131C741.644 333.687 742.716 333.088 743.561 332.335C744.458 331.564 745.225 330.751 745.861 329.895C746.445 329.057 746.941 328.133 747.35 327.123C747.741 326.06 748.088 324.868 748.39 323.546C748.492 323.163 748.593 322.781 748.694 322.398C748.795 322.015 749.002 321.77 749.314 321.664C749.573 321.575 749.791 321.703 749.968 322.049C750.144 322.395 750.285 322.724 750.392 323.036C750.552 323.503 750.619 324.293 750.593 325.405C750.567 326.516 750.497 327.671 750.385 328.87C750.255 330.017 750.115 330.965 749.964 331.713C749.83 332.339 749.608 332.879 749.299 333.333C749.025 333.717 748.575 334.016 747.952 334.229C745.822 334.957 743.709 335.651 741.613 336.309C739.586 337.002 737.603 337.651 735.663 338.257C733.723 338.862 731.86 339.441 730.076 339.993C728.292 340.545 726.568 341.105 724.906 341.674C723.277 342.172 721.736 342.67 720.281 343.168C719.034 343.594 717.952 343.993 717.034 344.365C716.135 344.789 715.226 345.186 714.309 345.558C713.461 345.964 712.388 346.389 711.089 346.833ZM753.844 332.481C753.24 332.746 752.754 332.868 752.387 332.85C752.041 332.881 751.802 332.746 751.669 332.445C751.515 332.093 751.623 331.655 751.994 331.133C752.343 330.561 752.948 330.026 753.809 329.529C754.95 328.849 756 328.03 756.958 327.07C757.917 326.111 758.854 324.83 759.772 323.23C760.689 321.629 761.592 319.585 762.48 317.097L768.659 300.002C769.032 298.939 769.266 297.968 769.36 297.087C769.454 296.207 769.035 295.251 768.104 294.221L758.297 282.511C756.863 280.741 755.57 279.569 754.419 278.995C753.296 278.347 752.241 278.06 751.254 278.133C750.295 278.134 749.304 278.268 748.283 278.536C747.534 278.744 746.868 278.796 746.283 278.692C745.698 278.589 745.329 278.361 745.174 278.009C745.042 277.707 745.27 277.338 745.858 276.9C746.445 276.463 747.041 276.112 747.645 275.848C748.801 275.341 750.268 274.788 752.044 274.19C753.848 273.519 755.605 272.809 757.315 272.06C758.724 271.443 759.92 270.889 760.904 270.398C761.938 269.885 762.782 269.485 763.436 269.199C764.039 268.934 764.525 268.812 764.893 268.83C765.238 268.799 765.477 268.934 765.61 269.235C765.764 269.588 765.656 270.025 765.285 270.547C764.943 270.997 764.341 271.47 763.479 271.967C761.634 272.956 760.759 273.968 760.854 275.006C760.927 275.993 761.947 277.705 763.913 280.14L770.883 288.866C771.393 289.482 771.81 289.749 772.134 289.667C772.486 289.513 772.781 289.024 773.02 288.2L776.927 275.158C777.699 272.541 778.091 270.631 778.103 269.427C778.115 268.223 777.846 267.471 777.295 267.173C776.795 266.853 776.074 266.779 775.13 266.952C774.634 267.05 774.129 267.061 773.617 266.986C773.132 266.839 772.813 266.589 772.659 266.237C772.527 265.935 772.665 265.635 773.073 265.336C773.46 264.987 773.955 264.68 774.558 264.415C775.413 264.041 776.33 263.669 777.307 263.301C778.313 262.86 779.344 262.409 780.4 261.946C781.758 261.351 783.184 260.636 784.677 259.802C786.17 258.968 787.394 258.342 788.35 257.923C788.953 257.659 789.439 257.536 789.807 257.555C790.153 257.523 790.392 257.658 790.524 257.96C790.678 258.312 790.548 258.699 790.133 259.12C789.718 259.542 789.139 260.066 788.394 260.692C787.548 261.362 786.598 262.408 785.542 263.829C784.537 265.229 783.544 266.863 782.564 268.731C781.612 270.527 780.791 272.415 780.101 274.397L774.869 289.548C774.546 290.589 774.372 291.354 774.347 291.845C774.35 292.263 774.501 292.676 774.8 293.085L786.598 307.699C787.618 308.931 788.544 309.814 789.378 310.348C790.211 310.882 791.23 311.155 792.434 311.167C793.616 311.129 795.248 310.953 797.329 310.641C798.172 310.511 798.774 310.517 799.136 310.659C799.475 310.75 799.722 310.971 799.876 311.323C800.009 311.625 799.871 311.925 799.462 312.224C799.075 312.573 798.58 312.88 797.977 313.145C797.323 313.431 796.345 313.8 795.044 314.25C793.765 314.75 792.399 315.259 790.946 315.775C789.516 316.342 788.248 316.868 787.141 317.353C785.733 317.97 784.512 318.535 783.478 319.048C782.422 319.51 781.466 319.929 780.611 320.304C780.007 320.568 779.533 320.716 779.187 320.748C778.819 320.729 778.569 320.569 778.437 320.267C778.283 319.915 778.502 319.459 779.096 318.899C779.69 318.339 780.206 317.874 780.642 317.502C782.204 316.278 783.002 315.09 783.036 313.936C783.07 312.782 782.497 311.474 781.318 310.013L772.743 299.472C772.349 298.985 772.016 298.771 771.742 298.831C771.469 298.891 771.269 299.188 771.144 299.723L765.914 317.751C765.528 319.059 765.389 320.109 765.496 320.901C765.603 321.694 765.907 322.25 766.407 322.57C766.957 322.869 767.69 322.967 768.605 322.866C769.447 322.737 770.013 322.729 770.303 322.842C770.62 322.883 770.856 323.079 771.01 323.431C771.143 323.733 771.027 324.083 770.662 324.483C770.275 324.832 769.78 325.139 769.177 325.403C768.523 325.69 767.582 326.072 766.353 326.551C765.123 327.03 763.88 327.544 762.623 328.095C761.064 328.778 759.487 329.559 757.894 330.437C756.35 331.293 755 331.974 753.844 332.481ZM804.61 310.21C804.035 310.533 803.588 310.689 803.268 310.68C802.927 310.746 802.676 310.635 802.514 310.348C802.326 310.013 802.407 309.652 802.757 309.267C803.033 308.86 803.51 308.308 804.189 307.612C805.479 306.32 806.375 305.281 806.878 304.495C807.429 303.681 807.576 302.654 807.319 301.413L798.693 261.006C798.278 259.034 797.811 257.754 797.291 257.165C796.744 256.527 795.586 256.485 793.818 257.037C793.019 257.297 792.433 257.375 792.059 257.27C791.733 257.138 791.476 256.904 791.288 256.569C791.126 256.282 791.234 255.97 791.611 255.632C791.961 255.246 792.424 254.892 792.998 254.569C794.195 253.897 795.142 253.396 795.839 253.067C796.536 252.739 797.185 252.437 797.787 252.162C798.361 251.839 799.079 251.436 799.941 250.952C800.85 250.441 801.592 250.024 802.167 249.701C802.762 249.304 803.406 248.879 804.097 248.428C804.788 247.976 805.732 247.415 806.929 246.742C808.078 246.097 808.8 246.037 809.096 246.564C809.284 246.899 809.206 247.321 808.862 247.829C808.518 248.337 807.979 248.892 807.246 249.493C806.205 250.33 805.411 251.216 804.867 252.152C804.295 253.04 803.934 253.967 803.784 254.933C803.682 255.872 803.756 256.901 804.007 258.02L807.575 274.627C807.721 275.112 808.081 275.193 808.656 274.87L832.711 261.354C832.998 261.193 833.076 260.771 832.945 260.089L829.458 243.626C829.115 242.118 828.509 241.041 827.642 240.394C826.823 239.721 825.529 239.661 823.761 240.213C822.963 240.473 822.376 240.55 822.002 240.446C821.677 240.314 821.419 240.08 821.231 239.745C821.07 239.458 821.178 239.146 821.555 238.808C821.905 238.422 822.367 238.068 822.941 237.745C824.138 237.073 825.133 236.545 825.926 236.163C826.719 235.78 827.464 235.425 828.161 235.096C828.879 234.692 829.741 234.208 830.746 233.644C831.56 233.186 832.182 232.837 832.613 232.595C833.017 232.305 833.492 231.974 834.04 231.604C834.635 231.206 835.532 230.671 836.728 229.999C837.303 229.676 837.774 229.506 838.142 229.488C838.483 229.422 838.734 229.533 838.896 229.82C839.272 230.49 838.655 231.467 837.046 232.749C835.463 234.08 834.613 235.313 834.495 236.45C834.378 237.586 834.494 238.97 834.843 240.6L843.434 280.271C843.745 281.608 844.232 282.531 844.895 283.04C845.607 283.522 846.7 283.506 848.175 282.992C848.974 282.732 849.547 282.631 849.894 282.688C850.241 282.745 850.508 282.941 850.697 283.276C850.858 283.563 850.75 283.876 850.373 284.214C850.023 284.599 849.561 284.953 848.986 285.276C847.789 285.949 846.829 286.425 846.105 286.706C845.456 287.008 844.831 287.296 844.229 287.571C843.628 287.846 842.872 288.239 841.963 288.75C841.053 289.261 840.277 289.729 839.634 290.153C839.038 290.551 838.395 290.975 837.704 291.426C837.039 291.926 836.109 292.511 834.912 293.184C833.763 293.829 833.041 293.889 832.745 293.362C832.557 293.027 832.624 292.643 832.947 292.209C833.319 291.749 833.871 291.218 834.604 290.617C836.001 289.517 836.984 288.241 837.553 286.787C838.122 285.334 838.216 283.707 837.834 281.906L834.419 265.402C834.38 265.109 834.317 264.829 834.231 264.563C834.192 264.27 834.053 264.191 833.813 264.325L809.04 278.244C808.801 278.379 808.757 278.75 808.909 279.357L812.419 295.524C812.953 297.932 813.771 299.331 814.871 299.72C815.993 300.035 817.376 299.919 819.022 299.372C819.821 299.113 820.393 299.011 820.74 299.068C821.087 299.125 821.355 299.321 821.543 299.656C821.705 299.943 821.597 300.256 821.22 300.594C820.87 300.979 820.407 301.334 819.833 301.656C818.636 302.329 817.628 302.832 816.808 303.167C816.015 303.55 815.246 303.919 814.501 304.274C813.756 304.63 812.881 305.09 811.876 305.655C810.919 306.193 810.118 306.674 809.475 307.098C808.832 307.523 808.14 307.974 807.401 308.452C806.737 308.951 805.807 309.537 804.61 310.21ZM858.594 279.845C858.048 280.215 857.593 280.424 857.228 280.472C856.893 280.566 856.634 280.476 856.449 280.204C856.079 279.658 856.62 278.695 858.072 277.313C859.538 275.855 860.571 274.393 861.169 272.927C861.813 271.429 861.823 269.731 861.199 267.832L849.727 230.636C849.149 228.706 848.402 227.554 847.485 227.18C846.614 226.775 845.321 226.922 843.605 227.62C842.831 227.946 842.253 228.072 841.872 227.999C841.536 227.895 841.26 227.684 841.045 227.365C840.86 227.093 840.941 226.772 841.289 226.404C841.605 225.991 842.037 225.599 842.582 225.229C843.719 224.459 844.666 223.851 845.424 223.403C846.182 222.956 846.918 222.524 847.63 222.108C848.312 221.646 849.13 221.091 850.085 220.444C850.994 219.828 851.744 219.32 852.335 218.92C852.941 218.443 853.569 217.951 854.22 217.444C854.871 216.936 855.765 216.297 856.901 215.527C857.992 214.788 858.707 214.669 859.046 215.169C859.262 215.487 859.219 215.914 858.919 216.449C858.618 216.984 858.128 217.582 857.447 218.242C856.479 219.163 855.71 220.082 855.138 221.001C854.611 221.888 854.314 222.819 854.245 223.794C854.176 224.769 854.352 225.91 854.773 227.217L866.245 264.413C866.635 265.674 867.152 266.584 867.796 267.143C868.44 267.702 869.203 267.947 870.086 267.88C870.969 267.812 871.988 267.553 873.142 267.103C873.916 266.777 874.478 266.629 874.829 266.656C875.179 266.684 875.462 266.857 875.678 267.175C875.863 267.448 875.781 267.769 875.434 268.137C875.117 268.55 874.686 268.942 874.14 269.311C873.004 270.081 872.041 270.667 871.252 271.069C870.494 271.517 869.759 271.949 869.046 272.365C868.379 272.751 867.545 273.282 866.545 273.96C865 275.007 863.712 275.946 862.683 276.776C861.684 277.652 860.321 278.675 858.594 279.845ZM883.304 263.073C882.269 263.888 881.564 264.058 881.19 263.583C880.919 263.238 880.948 262.831 881.278 262.362C881.53 261.884 881.972 261.291 882.604 260.585C883.963 259.026 884.889 257.495 885.382 255.989C885.874 254.484 885.746 252.768 884.999 250.841L870.95 214.734C870.168 212.764 869.346 211.629 868.482 211.331C867.627 210.955 866.365 211.215 864.694 212.11C863.944 212.49 863.389 212.717 863.029 212.791C862.634 212.823 862.318 212.687 862.08 212.385C861.842 212.083 861.905 211.719 862.269 211.293C862.642 210.79 863.087 210.335 863.605 209.928C864.339 209.35 864.96 208.897 865.469 208.566C866.02 208.202 866.546 207.893 867.045 207.64C867.554 207.31 868.111 206.907 868.715 206.432C869.362 205.922 870.062 205.302 870.814 204.571C871.532 203.796 872.245 203.06 872.954 202.363C873.672 201.588 874.29 200.997 874.808 200.59C877.743 198.281 880.379 196.836 882.716 196.255C885.096 195.639 887.184 195.674 888.98 196.357C890.741 196.997 892.216 198.073 893.404 199.583C894.627 201.137 895.346 202.806 895.563 204.592C895.746 206.334 895.595 208.095 895.109 209.875C894.622 211.655 893.914 213.33 892.984 214.9C892.053 216.471 891.03 217.835 889.915 218.992C889.603 219.307 889.516 219.55 889.651 219.723C889.796 219.818 889.989 219.841 890.23 219.792C893.48 218.772 896.428 218.479 899.074 218.912C901.764 219.311 904.297 221.021 906.673 224.042C908.133 225.898 909.043 227.942 909.402 230.174C909.761 232.407 909.601 234.734 908.921 237.156C908.25 239.5 907.095 241.806 905.456 244.074C903.816 246.342 901.767 248.443 899.307 250.378C897.495 251.804 895.916 252.906 894.572 253.684C893.262 254.506 892.003 255.391 890.794 256.342C889.759 257.157 888.908 257.896 888.242 258.56C887.576 259.223 886.867 259.921 886.115 260.652C885.407 261.349 884.469 262.156 883.304 263.073ZM897.84 248.913C899.307 247.758 900.532 246.341 901.515 244.659C902.507 242.901 903.182 241.007 903.542 238.977C903.901 236.947 903.866 234.949 903.436 232.982C903.016 230.937 902.126 229.052 900.768 227.326C898.425 224.348 895.737 222.795 892.702 222.668C889.71 222.506 886.445 223.817 882.906 226.602C882.604 226.839 882.409 227.168 882.32 227.587C882.23 228.007 882.295 228.445 882.515 228.901L889.525 246.337C889.92 247.283 890.428 248.106 891.048 248.806C891.712 249.472 892.489 249.838 893.381 249.906C894.195 249.964 894.958 249.957 895.671 249.886C896.383 249.814 897.106 249.49 897.84 248.913ZM882.345 224.423C883.338 223.642 884.258 222.813 885.105 221.937C885.962 220.984 886.824 219.991 887.69 218.961C889.134 216.357 889.996 213.723 890.275 211.058C890.597 208.359 889.892 205.909 888.161 203.708C886.769 201.939 884.89 200.972 882.525 200.807C880.125 200.599 877.652 201.496 875.106 203.499C874.286 204.144 873.75 204.706 873.497 205.184C873.254 205.585 873.242 206.014 873.461 206.47L880.805 224.063C881.141 224.846 881.655 224.966 882.345 224.423ZM920.342 233.901C919.856 234.346 919.436 234.619 919.082 234.72C918.765 234.862 918.495 234.811 918.273 234.568C917.828 234.083 918.222 233.051 919.457 231.472C920.695 229.816 921.503 228.219 921.881 226.681C922.3 225.106 922.062 223.424 921.168 221.636L904.394 186.511C903.541 184.686 902.634 183.655 901.673 183.419C900.752 183.146 899.494 183.479 897.898 184.42C897.179 184.855 896.626 185.064 896.238 185.048C895.891 184.994 895.587 184.825 895.328 184.542C895.105 184.299 895.139 183.97 895.429 183.555C895.682 183.1 896.051 182.649 896.537 182.204C897.549 181.277 898.398 180.536 899.082 179.983C899.767 179.43 900.432 178.896 901.076 178.379C901.683 177.823 902.412 177.155 903.262 176.376C904.072 175.634 904.74 175.022 905.266 174.54C905.795 173.98 906.345 173.401 906.915 172.804C907.486 172.207 908.277 171.445 909.289 170.518C910.26 169.627 910.95 169.405 911.358 169.85C911.618 170.133 911.638 170.562 911.419 171.135C911.199 171.709 910.801 172.371 910.224 173.124C909.401 174.176 908.774 175.198 908.342 176.189C907.951 177.144 907.792 178.109 907.866 179.084C907.94 180.058 908.281 181.161 908.888 182.393L925.662 217.518C926.232 218.709 926.876 219.534 927.594 219.993C928.313 220.451 929.104 220.583 929.967 220.388C930.831 220.192 931.8 219.787 932.877 219.174C933.595 218.739 934.13 218.509 934.48 218.486C934.831 218.462 935.137 218.592 935.396 218.875C935.619 219.118 935.585 219.447 935.295 219.862C935.042 220.317 934.672 220.768 934.187 221.213C933.175 222.14 932.308 222.86 931.586 223.373C930.901 223.926 930.236 224.461 929.592 224.977C928.988 225.456 928.241 226.103 927.351 226.919C925.974 228.181 924.837 229.297 923.94 230.268C923.08 231.28 921.881 232.491 920.342 233.901ZM950.346 205.058C949.898 205.541 949.502 205.848 949.157 205.978C948.853 206.145 948.58 206.116 948.338 205.893C948.056 205.631 948.041 205.243 948.293 204.729C948.545 204.214 948.928 203.558 949.442 202.761C950.54 201.009 951.174 199.314 951.345 197.676C951.512 195.96 951.057 194.229 949.98 192.483L930.943 161.157C929.41 158.69 928.284 157.199 927.565 156.683C926.806 156.129 926.183 156.114 925.698 156.638L921.053 161.653C919.225 163.628 918.21 165.532 918.009 167.365C917.804 169.122 917.809 170.773 918.024 172.319C918.091 173.055 918.217 173.808 918.402 174.578C918.584 175.27 918.706 175.906 918.767 176.487C918.865 177.027 918.803 177.418 918.579 177.66C918.355 177.902 918.147 178.046 917.954 178.092C917.759 178.06 917.5 177.895 917.178 177.597C917.097 177.522 916.933 177.296 916.685 176.917C916.437 176.537 916.164 175.985 915.864 175.258C915.431 174.109 914.915 172.807 914.315 171.354C913.753 169.86 913.078 168.487 912.292 167.235C912.085 166.893 911.953 166.51 911.898 166.085C911.84 165.582 911.886 165.25 912.035 165.089C912.184 164.927 912.432 164.821 912.78 164.769C913.088 164.679 913.417 164.647 913.767 164.672C914 164.663 914.289 164.594 914.634 164.464C914.978 164.334 915.471 164.005 916.111 163.475C916.711 162.908 917.589 162 918.746 160.751L938.725 139.177C939.882 137.928 940.699 136.964 941.178 136.285C941.695 135.566 942.023 135.01 942.163 134.616C942.304 134.222 942.369 133.908 942.361 133.676C942.346 133.288 942.352 132.957 942.381 132.684C942.409 132.411 942.498 132.194 942.647 132.033C943.02 131.63 943.428 131.633 943.872 132.044C944.154 132.305 944.381 132.665 944.554 133.125C944.765 133.544 944.914 133.908 945.004 134.215C945.22 134.79 945.788 135.914 946.707 137.589C947.586 139.226 948.702 140.97 950.055 142.822C950.34 143.161 950.487 143.447 950.496 143.679C950.505 143.912 950.435 144.109 950.286 144.27C950.025 144.552 949.698 144.662 949.308 144.599C948.914 144.459 948.515 144.202 948.112 143.829C946.259 142.113 944.569 141.109 943.043 140.818C941.553 140.487 940.1 141.087 938.682 142.618L933.086 148.661C932.601 149.184 932.311 149.739 932.217 150.326C932.16 150.872 932.365 151.661 932.832 152.692C933.296 153.646 934.089 155.053 935.209 156.914L954.121 188.011C955.198 189.757 956.362 190.722 957.613 190.907C958.86 191.015 960.24 190.535 961.754 189.466C962.434 188.974 962.928 188.683 963.236 188.593C963.543 188.504 963.838 188.59 964.12 188.851C964.361 189.075 964.355 189.405 964.099 189.842C963.885 190.317 963.553 190.796 963.106 191.279C962.173 192.287 961.368 193.075 960.69 193.645C960.053 194.252 959.434 194.84 958.834 195.407C958.272 195.933 957.599 196.62 956.815 197.466C955.957 198.392 955.212 199.237 954.581 199.999C953.95 200.762 953.3 201.545 952.631 202.347C952.04 203.147 951.278 204.051 950.346 205.058ZM977.142 176.079C976.737 176.599 976.368 176.938 976.035 177.097C975.746 177.289 975.472 177.284 975.212 177.081C974.692 176.676 974.91 175.593 975.866 173.831C976.812 171.993 977.343 170.284 977.461 168.704C977.612 167.081 977.098 165.463 975.92 163.848L953.546 131.995C952.402 130.337 951.336 129.472 950.349 129.398C949.396 129.282 948.21 129.82 946.793 131.012C946.157 131.561 945.646 131.859 945.261 131.907C944.909 131.911 944.582 131.795 944.279 131.559C944.019 131.356 943.998 131.026 944.215 130.569C944.389 130.078 944.678 129.573 945.083 129.053C945.927 127.97 946.641 127.099 947.224 126.44C947.808 125.781 948.374 125.144 948.924 124.528C949.431 123.878 950.038 123.099 950.747 122.189C951.422 121.323 951.979 120.609 952.418 120.046C952.848 119.406 953.294 118.744 953.757 118.061C954.22 117.377 954.873 116.494 955.717 115.412C956.528 114.372 957.171 114.038 957.647 114.41C957.95 114.646 958.041 115.065 957.92 115.667C957.799 116.269 957.517 116.988 957.073 117.826C956.436 119 955.987 120.112 955.726 121.162C955.498 122.168 955.502 123.146 955.737 124.095C955.972 125.044 956.491 126.075 957.294 127.188L979.667 159.041C980.427 160.121 981.199 160.827 981.984 161.16C982.768 161.493 983.57 161.492 984.389 161.156C985.208 160.819 986.097 160.259 987.057 159.475C987.693 158.927 988.182 158.612 988.524 158.531C988.866 158.449 989.189 158.527 989.492 158.763C989.752 158.965 989.773 159.295 989.556 159.753C989.382 160.244 989.092 160.749 988.687 161.269C987.843 162.351 987.108 163.205 986.481 163.831C985.898 164.49 985.331 165.127 984.782 165.743C984.266 166.316 983.636 167.078 982.894 168.031C981.746 169.503 980.81 170.793 980.086 171.9C979.406 173.041 978.425 174.434 977.142 176.079ZM1009.34 132.125C1007.04 135.737 1004.34 138.185 1001.24 139.469C998.128 140.676 994.875 140.98 991.481 140.381C988.04 139.753 984.722 138.421 981.526 136.386C978.192 134.262 975.179 131.53 972.489 128.189C969.829 124.802 967.8 121.037 966.404 116.892C964.961 112.718 964.421 108.404 964.784 103.948C965.178 99.4462 966.761 95.0184 969.533 90.6648C971.834 87.0522 974.555 84.6189 977.697 83.365C980.793 82.0816 984.046 81.7773 987.457 82.4523C990.852 83.0515 994.147 84.3686 997.342 86.4038C1000.68 88.5275 1003.67 91.2827 1006.34 94.6696C1009.03 98.0101 1011.09 101.767 1012.53 105.941C1013.93 110.086 1014.43 114.409 1014.04 118.911C1013.68 123.366 1012.11 127.771 1009.34 132.125ZM1007.31 130.545C1008.91 128.044 1009.8 125.359 1010 122.491C1010.18 119.548 1009.83 116.585 1008.93 113.603C1008.01 110.545 1006.66 107.603 1004.88 104.776C1003.05 101.92 1000.96 99.2835 998.59 96.8653C996.177 94.4177 993.628 92.3385 990.942 90.6278C988.765 89.2415 986.436 88.2468 983.956 87.6438C981.505 86.9944 979.159 86.9978 976.919 87.654C974.708 88.2639 972.85 89.7499 971.346 92.112C969.812 94.5204 968.969 97.1733 968.816 100.071C968.663 102.968 969.06 105.923 970.007 108.934C970.954 111.945 972.311 114.925 974.079 117.874C975.83 120.747 977.896 123.43 980.279 125.924C982.692 128.372 985.241 130.451 987.927 132.162C990.104 133.548 992.395 134.551 994.799 135.171C997.233 135.744 999.556 135.726 1001.77 135.116C1003.96 134.431 1005.81 132.907 1007.31 130.545ZM1026.58 103.324C1026.3 103.923 1026.02 104.338 1025.74 104.569C1025.5 104.823 1025.23 104.881 1024.93 104.744C1024.58 104.584 1024.4 104.32 1024.39 103.952C1024.33 103.561 1024.39 102.896 1024.58 101.955C1025.1 99.3573 1025.13 97.3783 1024.67 96.0183C1024.2 94.6584 1023.45 93.5294 1022.41 92.6314L994.9 67.4474C993.631 66.2625 992.484 65.4052 991.458 64.8754C990.432 64.3455 989.449 64.318 988.507 64.7927C987.538 65.1946 986.569 66.3214 985.601 68.1729C985.112 68.976 984.643 69.6065 984.192 70.0643C983.691 70.4992 983.24 70.6253 982.841 70.4425C982.342 70.2139 982.156 69.8272 982.285 69.2822C982.414 68.7372 982.535 68.3399 982.649 68.0903C983.266 66.7422 983.863 65.5054 984.438 64.3799C985.014 63.2544 985.569 62.2402 986.103 61.3372C986.61 60.3615 987.057 59.4492 987.446 58.6005C987.629 58.201 987.925 57.8837 988.334 57.6485C988.694 57.3904 989.119 57.2529 989.61 57.236L1033.56 56.6077C1033.8 56.5992 1034.19 56.5366 1034.73 56.4199C1035.24 56.2303 1035.55 56.0107 1035.67 55.7611C1035.78 55.5114 1035.43 54.9584 1034.61 54.1019C1034.16 53.6508 1033.29 52.8329 1032.02 51.648C1030.75 50.4632 1029.24 49.0777 1027.49 47.4917C1025.69 45.8828 1023.82 44.2397 1021.87 42.5623C1019.94 40.8349 1018.12 39.2146 1016.4 37.7014C1014.62 36.1653 1013.13 34.8776 1011.91 33.8383C1010.7 32.7991 1009.91 32.1381 1009.56 31.8554C1008 30.6561 1006.57 30.3366 1005.29 30.8968C1004.01 31.4569 1002.64 32.8553 1001.19 35.0919C1000.38 36.3486 999.595 36.8055 998.846 36.4627C998.547 36.3256 998.436 35.9731 998.515 35.4053C998.617 34.7875 998.805 34.1791 999.079 33.5799C999.696 32.2318 1000.34 30.9565 1001.01 29.754C1001.71 28.5016 1002.38 27.1514 1003.05 25.7035C1003.5 24.7049 1003.88 23.8197 1004.17 23.048C1004.41 22.2533 1004.72 21.3952 1005.08 20.4737C1005.41 19.4793 1005.9 18.2831 1006.54 16.8851C1007.06 15.7368 1007.6 15.2883 1008.15 15.5397C1008.5 15.6996 1008.71 16.0978 1008.78 16.7342C1008.8 17.3478 1008.67 18.1018 1008.38 18.9963C1007.91 20.2902 1007.65 21.3802 1007.61 22.2662C1007.54 23.0795 1007.75 23.8707 1008.24 24.64C1008.74 25.4093 1009.51 26.3656 1010.55 27.509C1010.81 27.746 1011.61 28.5047 1012.95 29.7852C1014.25 31.0428 1015.86 32.5967 1017.79 34.4467C1019.73 36.2968 1021.78 38.2653 1023.97 40.3524C1026.15 42.4394 1028.26 44.4308 1030.29 46.3266C1032.32 48.2223 1034.08 49.8697 1035.55 51.2687C1037.05 52.6177 1038.03 53.4928 1038.51 53.894C1039.22 54.4593 1039.84 54.8313 1040.36 55.0099C1040.85 55.1157 1041.46 55.1809 1042.17 55.2055C1043.01 55.2258 1043.7 55.0913 1044.26 54.8019C1044.79 54.4397 1045.29 54.1275 1045.77 53.8652C1046.26 53.6029 1046.7 53.4154 1047.12 53.3029C1047.51 53.1176 1047.95 53.1392 1048.45 53.3677C1048.65 53.4591 1048.74 53.5912 1048.72 53.7638C1048.72 53.8865 1048.69 54.0228 1048.62 54.1726C1048.21 55.0713 1047.86 55.9065 1047.57 56.6783C1047.3 57.4001 1047.06 58.0471 1046.86 58.6192C1046.73 59.1642 1046.56 59.6613 1046.36 60.1107C1045.99 60.9095 1045.58 61.4765 1045.13 61.8116C1044.67 62.1467 1043.95 62.3312 1042.97 62.365C1040.66 62.3953 1038.27 62.4163 1035.79 62.428C1033.33 62.3898 1030.81 62.3537 1028.23 62.3197C1025.67 62.2357 1023.1 62.1768 1020.52 62.1428C1017.94 62.1088 1015.37 62.1112 1012.81 62.1499C1010.23 62.1159 1007.73 62.1162 1005.3 62.1508C1002.81 62.1625 1000.45 62.2563 998.192 62.4322C997.506 62.4804 996.933 62.6106 996.474 62.823C995.987 62.9626 995.687 63.1573 995.572 63.4069C995.458 63.6565 995.546 64.059 995.835 64.6141C996.074 65.1464 996.561 65.7317 997.296 66.3698C998.915 67.7146 1000.75 69.3099 1002.8 71.1558C1004.88 72.9517 1007.11 74.8775 1009.49 76.9332C1011.84 78.9162 1014.26 80.9584 1016.74 83.0598C1019.17 85.1384 1021.59 87.1192 1023.99 89.0023C1025.22 89.9917 1026.49 90.329 1027.78 90.0142C1029.04 89.6267 1030.31 88.5757 1031.58 86.8613C1032.07 86.1809 1032.5 85.7117 1032.86 85.4536C1033.17 85.1726 1033.5 85.1121 1033.84 85.2721C1034.14 85.4092 1034.24 85.7253 1034.14 86.2204C1034.08 86.7383 1033.91 87.2968 1033.64 87.8959C1033.07 89.1442 1032.55 90.1448 1032.09 90.898C1031.69 91.6241 1031.32 92.3002 1030.98 92.9264C1030.63 93.5527 1030.26 94.2902 1029.87 95.1389C1029.42 96.1375 1029.04 97.0227 1028.75 97.7945C1028.45 98.5663 1028.15 99.363 1027.83 100.185C1027.57 101.029 1027.15 102.076 1026.58 103.324Z" fill="black"/>
</svg>
