<svg width="943" height="550" viewBox="0 0 943 550" fill="none" xmlns="http://www.w3.org/2000/svg">
<g filter="url(#filter0_ii_137_829)">
<circle cx="257.327" cy="294.037" r="222.724" fill="#CEDCDF"/>
</g>
<circle cx="257.327" cy="294.037" r="239.112" stroke="black" stroke-width="32.7755"/>
<path d="M485.682 372.996L873.79 445.251L941.888 457.914L912.703 487.71L471.857 396.088L485.682 372.996Z" fill="black"/>
<mask id="mask0_137_829" style="mask-type:alpha" maskUnits="userSpaceOnUse" x="1" y="2" width="511" height="510">
<circle cx="256.582" cy="256.792" r="238.313" fill="#737373" stroke="black" stroke-width="32.6659"/>
</mask>
<g mask="url(#mask0_137_829)">
<path d="M-497.65 596.241C-505.648 596.241 -512.109 595.318 -517.031 593.472C-521.953 592.241 -524.415 589.78 -524.415 586.089C-524.415 578.705 -514.262 573.168 -493.958 569.476C-470.577 565.169 -453.349 558.093 -442.274 548.248C-431.199 538.404 -425.661 522.406 -425.661 500.256V84.9376C-425.661 62.7873 -430.276 47.0974 -439.505 37.8682C-448.119 28.6389 -464.116 21.8707 -487.497 17.5637C-497.957 15.7178 -505.648 13.2567 -510.571 10.1802C-515.493 7.10379 -517.954 3.41208 -517.954 -0.894904C-517.954 -4.58661 -515.493 -7.04777 -510.571 -8.27836C-505.648 -10.1242 -499.188 -11.0472 -491.189 -11.0472C-467.808 -11.0472 -448.119 -10.7395 -432.122 -10.1242C-415.509 -9.50892 -399.511 -8.89364 -384.129 -8.27836C-368.132 -8.27836 -349.366 -8.27836 -327.83 -8.27836C-307.526 -8.27836 -286.299 -8.27836 -264.148 -8.27836C-241.383 -8.89364 -220.463 -9.20128 -201.389 -9.20128C-180.469 -9.81656 -162.934 -10.1242 -148.782 -10.1242C-134.015 -10.7395 -125.401 -11.0472 -122.94 -11.0472C-119.864 -11.0472 -116.479 -10.4319 -112.788 -9.20128C-109.096 -7.97072 -106.943 -5.81723 -106.327 -2.7408C-103.251 14.4872 -100.174 31.7153 -97.098 48.9433C-94.0215 65.556 -92.4833 80.0153 -92.4833 92.321C-92.4833 97.8586 -94.0215 101.55 -97.098 103.396C-99.5591 105.242 -102.328 106.165 -105.404 106.165C-108.481 106.165 -110.634 105.55 -111.865 104.319C-113.095 102.473 -114.326 100.012 -115.557 96.9357C-118.633 86.4758 -121.709 76.6312 -124.786 67.4019C-127.862 57.5573 -131.554 50.4815 -135.861 46.1745C-144.475 36.3299 -154.012 29.8694 -164.472 26.793C-174.932 23.1013 -186.007 21.2554 -197.697 21.2554H-318.601C-323.523 21.2554 -330.292 24.0242 -338.906 29.5618C-347.52 35.0994 -351.827 42.1752 -351.827 50.7892V246.45C-351.827 251.988 -350.288 256.91 -347.212 261.217C-343.52 264.909 -339.521 266.755 -335.214 266.755H-243.844C-226.001 266.755 -213.695 263.678 -206.927 257.526C-200.158 250.757 -194.621 238.759 -190.314 221.531C-186.622 207.995 -181.085 201.227 -173.701 201.227C-171.24 201.227 -168.779 202.457 -166.318 204.918C-163.241 207.38 -161.703 211.071 -161.703 215.994C-161.703 218.455 -162.011 223.992 -162.626 232.606C-162.626 241.22 -162.934 250.142 -163.549 259.371C-164.164 268.601 -164.472 275.676 -164.472 280.599C-164.472 286.752 -164.472 295.058 -164.472 305.518C-163.857 315.362 -163.549 324.899 -163.549 334.129C-162.934 343.358 -162.626 349.203 -162.626 351.664C-162.626 355.971 -163.241 359.663 -164.472 362.74C-165.087 365.816 -167.241 367.354 -170.932 367.354C-180.162 367.354 -187.237 357.51 -192.16 337.82C-195.851 323.669 -200.774 313.209 -206.927 306.441C-213.079 299.673 -222.309 296.289 -234.615 296.289H-320.447C-330.907 296.289 -338.906 297.827 -344.443 300.903C-349.366 303.364 -351.827 309.825 -351.827 320.285V497.487C-351.827 520.868 -346.904 537.173 -337.06 546.403C-327.215 555.017 -311.833 559.324 -290.913 559.324H-222.616C-202.927 559.324 -186.622 558.401 -173.701 556.555C-160.165 554.094 -148.474 549.787 -138.63 543.634C-128.785 536.866 -120.171 527.944 -112.788 516.869C-104.789 505.794 -95.8674 491.027 -86.0228 472.568C-84.1769 468.877 -82.0234 465.8 -79.5622 463.339C-77.1011 460.878 -74.3324 459.955 -71.2559 460.57C-68.1795 461.185 -65.7183 462.724 -63.8725 465.185C-62.0266 467.031 -61.1037 469.799 -61.1037 473.491C-61.1037 479.029 -62.6419 488.873 -65.7183 503.025C-68.7947 516.561 -72.7941 530.713 -77.7164 545.48C-82.0234 560.247 -86.0228 571.937 -89.7145 580.551C-91.5604 584.858 -93.4062 588.55 -95.2521 591.626C-96.4827 594.703 -98.9438 596.241 -102.636 596.241C-132.169 596.241 -159.55 595.933 -184.776 595.318C-210.003 594.703 -233.999 594.087 -256.765 593.472C-279.53 592.857 -301.988 592.241 -324.139 591.626C-345.674 591.011 -368.132 590.703 -391.513 590.703C-405.049 590.703 -416.739 591.011 -426.584 591.626C-436.429 592.857 -446.581 593.78 -457.041 594.395C-467.501 595.626 -481.037 596.241 -497.65 596.241ZM6.6884 596.241C-1.31033 596.241 -7.77084 595.318 -12.6931 593.472C-17.6154 592.241 -20.0766 589.78 -20.0766 586.089C-20.0766 578.705 -9.92434 573.168 10.3801 569.476C33.761 565.169 51.6043 558.093 63.9101 548.248C76.2158 538.404 82.3687 522.406 82.3687 500.256V84.9376C82.3687 62.7873 77.754 46.4821 68.5247 36.0223C59.2954 25.5624 43.298 19.4096 20.5324 17.5637C10.0725 16.3331 2.3814 14.1796 -2.5409 11.1032C-7.46319 7.41145 -9.92434 3.41208 -9.92434 -0.894904C-9.92434 -4.58661 -7.46319 -7.04777 -2.5409 -8.27836C2.3814 -10.1242 8.84191 -11.0472 16.8406 -11.0472C33.4534 -11.0472 46.3744 -11.0472 55.6037 -11.0472C64.833 -11.0472 73.447 -10.7395 81.4457 -10.1242C90.0598 -10.1242 100.52 -10.1242 112.825 -10.1242C124.516 -10.1242 134.668 -10.4319 143.282 -11.0472C151.896 -12.2777 161.433 -13.2006 171.893 -13.8159C182.968 -14.4312 197.427 -14.7388 215.271 -14.7388C287.259 -14.7388 340.789 -4.27897 375.86 16.6408C411.547 36.9452 429.39 72.3242 429.39 122.778C429.39 143.697 425.699 162.156 418.315 178.154C411.547 193.536 404.779 204.611 398.011 211.379C388.166 221.224 379.245 228.915 371.246 234.452C363.247 239.375 351.557 244.912 336.174 251.065C333.713 251.68 332.483 253.218 332.483 255.68C332.483 257.526 333.713 259.064 336.174 260.294C350.326 264.601 364.785 270.139 379.552 276.907C394.934 283.675 409.086 292.597 422.007 303.672C435.543 314.132 446.311 328.283 454.31 346.127C462.924 363.355 467.231 385.505 467.231 412.578C467.231 446.419 461.693 473.184 450.618 492.873C440.158 512.562 427.545 527.636 412.778 538.096C398.011 548.556 384.167 557.17 371.246 563.938C352.172 573.783 330.022 581.474 304.795 587.012C279.568 592.549 249.419 595.318 214.348 595.318C206.349 595.318 194.351 594.703 178.353 593.472C162.356 592.241 145.128 591.626 126.669 591.626C110.672 591.626 97.1356 591.934 86.0604 592.549C74.9852 593.164 63.2948 593.78 50.989 594.395C39.2986 595.626 24.5317 596.241 6.6884 596.241ZM227.269 557.478C254.341 557.478 279.568 551.325 302.949 539.019C326.33 526.713 345.096 510.101 359.248 489.181C373.399 467.646 380.475 443.65 380.475 417.192C380.475 393.196 376.476 373.507 368.477 358.125C360.478 342.127 351.249 329.206 340.789 319.362C330.329 309.517 320.792 302.441 312.178 298.134C304.18 293.212 291.566 288.29 274.338 283.368C257.11 277.83 234.652 275.061 206.964 275.061C187.275 275.061 173.431 279.061 165.432 287.059C158.049 295.058 154.357 302.134 154.357 308.287V491.95C154.357 517.792 160.51 535.327 172.816 544.557C185.737 553.171 203.888 557.478 227.269 557.478ZM196.812 249.219C213.425 249.219 231.268 247.373 250.342 243.682C270.031 239.99 289.413 232.914 308.487 222.454C315.255 218.762 323.869 209.841 334.329 195.689C344.788 181.538 350.018 161.233 350.018 134.776C350.018 116.932 346.634 98.7815 339.866 80.3229C333.098 61.249 320.177 45.2516 301.103 32.3306C282.029 19.4096 253.418 12.949 215.271 12.949C190.044 12.949 173.431 16.3331 165.432 23.1012C158.049 29.8694 154.357 40.3293 154.357 54.4809V215.071C154.357 231.068 159.587 240.913 170.047 244.604C180.507 247.681 189.429 249.219 196.812 249.219Z" fill="black"/>
<path d="M-497.65 596.241C-505.648 596.241 -512.109 595.318 -517.031 593.472C-521.953 592.241 -524.415 589.78 -524.415 586.089C-524.415 578.705 -514.262 573.168 -493.958 569.476C-470.577 565.169 -453.349 558.093 -442.274 548.248C-431.199 538.404 -425.661 522.406 -425.661 500.256V84.9376C-425.661 62.7873 -430.276 47.0974 -439.505 37.8682C-448.119 28.6389 -464.116 21.8707 -487.497 17.5637C-497.957 15.7178 -505.648 13.2567 -510.571 10.1802C-515.493 7.10379 -517.954 3.41208 -517.954 -0.894904C-517.954 -4.58661 -515.493 -7.04777 -510.571 -8.27836C-505.648 -10.1242 -499.188 -11.0472 -491.189 -11.0472C-467.808 -11.0472 -448.119 -10.7395 -432.122 -10.1242C-415.509 -9.50892 -399.511 -8.89364 -384.129 -8.27836C-368.132 -8.27836 -349.366 -8.27836 -327.83 -8.27836C-307.526 -8.27836 -286.299 -8.27836 -264.148 -8.27836C-241.383 -8.89364 -220.463 -9.20128 -201.389 -9.20128C-180.469 -9.81656 -162.934 -10.1242 -148.782 -10.1242C-134.015 -10.7395 -125.401 -11.0472 -122.94 -11.0472C-119.864 -11.0472 -116.479 -10.4319 -112.788 -9.20128C-109.096 -7.97072 -106.943 -5.81723 -106.327 -2.7408C-103.251 14.4872 -100.174 31.7153 -97.098 48.9433C-94.0215 65.556 -92.4833 80.0153 -92.4833 92.321C-92.4833 97.8586 -94.0215 101.55 -97.098 103.396C-99.5591 105.242 -102.328 106.165 -105.404 106.165C-108.481 106.165 -110.634 105.55 -111.865 104.319C-113.095 102.473 -114.326 100.012 -115.557 96.9357C-118.633 86.4758 -121.709 76.6312 -124.786 67.4019C-127.862 57.5573 -131.554 50.4815 -135.861 46.1745C-144.475 36.3299 -154.012 29.8694 -164.472 26.793C-174.932 23.1013 -186.007 21.2554 -197.697 21.2554H-318.601C-323.523 21.2554 -330.292 24.0242 -338.906 29.5618C-347.52 35.0994 -351.827 42.1752 -351.827 50.7892V246.45C-351.827 251.988 -350.288 256.91 -347.212 261.217C-343.52 264.909 -339.521 266.755 -335.214 266.755H-243.844C-226.001 266.755 -213.695 263.678 -206.927 257.526C-200.158 250.757 -194.621 238.759 -190.314 221.531C-186.622 207.995 -181.085 201.227 -173.701 201.227C-171.24 201.227 -168.779 202.457 -166.318 204.918C-163.241 207.38 -161.703 211.071 -161.703 215.994C-161.703 218.455 -162.011 223.992 -162.626 232.606C-162.626 241.22 -162.934 250.142 -163.549 259.371C-164.164 268.601 -164.472 275.676 -164.472 280.599C-164.472 286.752 -164.472 295.058 -164.472 305.518C-163.857 315.362 -163.549 324.899 -163.549 334.129C-162.934 343.358 -162.626 349.203 -162.626 351.664C-162.626 355.971 -163.241 359.663 -164.472 362.74C-165.087 365.816 -167.241 367.354 -170.932 367.354C-180.162 367.354 -187.237 357.51 -192.16 337.82C-195.851 323.669 -200.774 313.209 -206.927 306.441C-213.079 299.673 -222.309 296.289 -234.615 296.289H-320.447C-330.907 296.289 -338.906 297.827 -344.443 300.903C-349.366 303.364 -351.827 309.825 -351.827 320.285V497.487C-351.827 520.868 -346.904 537.173 -337.06 546.403C-327.215 555.017 -311.833 559.324 -290.913 559.324H-222.616C-202.927 559.324 -186.622 558.401 -173.701 556.555C-160.165 554.094 -148.474 549.787 -138.63 543.634C-128.785 536.866 -120.171 527.944 -112.788 516.869C-104.789 505.794 -95.8674 491.027 -86.0228 472.568C-84.1769 468.877 -82.0234 465.8 -79.5622 463.339C-77.1011 460.878 -74.3324 459.955 -71.2559 460.57C-68.1795 461.185 -65.7183 462.724 -63.8725 465.185C-62.0266 467.031 -61.1037 469.799 -61.1037 473.491C-61.1037 479.029 -62.6419 488.873 -65.7183 503.025C-68.7947 516.561 -72.7941 530.713 -77.7164 545.48C-82.0234 560.247 -86.0228 571.937 -89.7145 580.551C-91.5604 584.858 -93.4062 588.55 -95.2521 591.626C-96.4827 594.703 -98.9438 596.241 -102.636 596.241C-132.169 596.241 -159.55 595.933 -184.776 595.318C-210.003 594.703 -233.999 594.087 -256.765 593.472C-279.53 592.857 -301.988 592.241 -324.139 591.626C-345.674 591.011 -368.132 590.703 -391.513 590.703C-405.049 590.703 -416.739 591.011 -426.584 591.626C-436.429 592.857 -446.581 593.78 -457.041 594.395C-467.501 595.626 -481.037 596.241 -497.65 596.241ZM6.6884 596.241C-1.31033 596.241 -7.77084 595.318 -12.6931 593.472C-17.6154 592.241 -20.0766 589.78 -20.0766 586.089C-20.0766 578.705 -9.92434 573.168 10.3801 569.476C33.761 565.169 51.6043 558.093 63.9101 548.248C76.2158 538.404 82.3687 522.406 82.3687 500.256V84.9376C82.3687 62.7873 77.754 46.4821 68.5247 36.0223C59.2954 25.5624 43.298 19.4096 20.5324 17.5637C10.0725 16.3331 2.3814 14.1796 -2.5409 11.1032C-7.46319 7.41145 -9.92434 3.41208 -9.92434 -0.894904C-9.92434 -4.58661 -7.46319 -7.04777 -2.5409 -8.27836C2.3814 -10.1242 8.84191 -11.0472 16.8406 -11.0472C33.4534 -11.0472 46.3744 -11.0472 55.6037 -11.0472C64.833 -11.0472 73.447 -10.7395 81.4457 -10.1242C90.0598 -10.1242 100.52 -10.1242 112.825 -10.1242C124.516 -10.1242 134.668 -10.4319 143.282 -11.0472C151.896 -12.2777 161.433 -13.2006 171.893 -13.8159C182.968 -14.4312 197.427 -14.7388 215.271 -14.7388C287.259 -14.7388 340.789 -4.27897 375.86 16.6408C411.547 36.9452 429.39 72.3242 429.39 122.778C429.39 143.697 425.699 162.156 418.315 178.154C411.547 193.536 404.779 204.611 398.011 211.379C388.166 221.224 379.245 228.915 371.246 234.452C363.247 239.375 351.557 244.912 336.174 251.065C333.713 251.68 332.483 253.218 332.483 255.68C332.483 257.526 333.713 259.064 336.174 260.294C350.326 264.601 364.785 270.139 379.552 276.907C394.934 283.675 409.086 292.597 422.007 303.672C435.543 314.132 446.311 328.283 454.31 346.127C462.924 363.355 467.231 385.505 467.231 412.578C467.231 446.419 461.693 473.184 450.618 492.873C440.158 512.562 427.545 527.636 412.778 538.096C398.011 548.556 384.167 557.17 371.246 563.938C352.172 573.783 330.022 581.474 304.795 587.012C279.568 592.549 249.419 595.318 214.348 595.318C206.349 595.318 194.351 594.703 178.353 593.472C162.356 592.241 145.128 591.626 126.669 591.626C110.672 591.626 97.1356 591.934 86.0604 592.549C74.9852 593.164 63.2948 593.78 50.989 594.395C39.2986 595.626 24.5317 596.241 6.6884 596.241ZM227.269 557.478C254.341 557.478 279.568 551.325 302.949 539.019C326.33 526.713 345.096 510.101 359.248 489.181C373.399 467.646 380.475 443.65 380.475 417.192C380.475 393.196 376.476 373.507 368.477 358.125C360.478 342.127 351.249 329.206 340.789 319.362C330.329 309.517 320.792 302.441 312.178 298.134C304.18 293.212 291.566 288.29 274.338 283.368C257.11 277.83 234.652 275.061 206.964 275.061C187.275 275.061 173.431 279.061 165.432 287.059C158.049 295.058 154.357 302.134 154.357 308.287V491.95C154.357 517.792 160.51 535.327 172.816 544.557C185.737 553.171 203.888 557.478 227.269 557.478ZM196.812 249.219C213.425 249.219 231.268 247.373 250.342 243.682C270.031 239.99 289.413 232.914 308.487 222.454C315.255 218.762 323.869 209.841 334.329 195.689C344.788 181.538 350.018 161.233 350.018 134.776C350.018 116.932 346.634 98.7815 339.866 80.3229C333.098 61.249 320.177 45.2516 301.103 32.3306C282.029 19.4096 253.418 12.949 215.271 12.949C190.044 12.949 173.431 16.3331 165.432 23.1012C158.049 29.8694 154.357 40.3293 154.357 54.4809V215.071C154.357 231.068 159.587 240.913 170.047 244.604C180.507 247.681 189.429 249.219 196.812 249.219Z" fill="#E4E4E4"/>
<path d="M-517.031 635.004C-525.03 635.004 -531.491 634.081 -536.413 632.235C-541.335 631.005 -543.796 628.543 -543.796 624.852C-543.796 617.468 -533.644 611.931 -513.34 608.239C-489.959 603.932 -472.731 596.856 -461.656 587.012C-450.58 577.167 -445.043 561.17 -445.043 539.019V123.701C-445.043 101.55 -449.658 85.8605 -458.887 76.6312C-467.501 67.4019 -483.498 60.6338 -506.879 56.3267C-517.339 54.4809 -525.03 52.0198 -529.952 48.9433C-534.875 45.8669 -537.336 42.1751 -537.336 37.8682C-537.336 34.1764 -534.875 31.7153 -529.952 30.4847C-525.03 28.6388 -518.57 27.7159 -510.571 27.7159C-487.19 27.7159 -467.501 28.0236 -451.503 28.6389C-434.891 29.2541 -418.893 29.8694 -403.511 30.4847C-387.514 30.4847 -368.747 30.4847 -347.212 30.4847C-326.908 30.4847 -305.68 30.4847 -283.53 30.4847C-260.765 29.8694 -239.845 29.5618 -220.771 29.5618C-199.851 28.9465 -182.315 28.6389 -168.164 28.6389C-153.397 28.0236 -144.783 27.7159 -142.322 27.7159C-139.245 27.7159 -135.861 28.3312 -132.17 29.5618C-128.478 30.7923 -126.324 32.9458 -125.709 36.0223C-122.633 53.2503 -119.556 70.4783 -116.48 87.7064C-113.403 104.319 -111.865 118.778 -111.865 131.084C-111.865 136.622 -113.403 140.313 -116.48 142.159C-118.941 144.005 -121.71 144.928 -124.786 144.928C-127.863 144.928 -130.016 144.313 -131.247 143.082C-132.477 141.236 -133.708 138.775 -134.938 135.699C-138.015 125.239 -141.091 115.394 -144.168 106.165C-147.244 96.3204 -150.936 89.2446 -155.243 84.9376C-163.857 75.093 -173.394 68.6325 -183.854 65.556C-194.314 61.8643 -205.389 60.0185 -217.079 60.0185H-337.983C-342.905 60.0185 -349.673 62.7873 -358.287 68.3248C-366.901 73.8624 -371.208 80.9382 -371.208 89.5522V285.213C-371.208 290.751 -369.67 295.673 -366.594 299.98C-362.902 303.672 -358.903 305.518 -354.596 305.518H-263.226C-245.382 305.518 -233.077 302.441 -226.308 296.289C-219.54 289.52 -214.003 277.522 -209.696 260.294C-206.004 246.758 -200.466 239.99 -193.083 239.99C-190.622 239.99 -188.161 241.22 -185.7 243.682C-182.623 246.143 -181.085 249.834 -181.085 254.757C-181.085 257.218 -181.393 262.755 -182.008 271.369C-182.008 279.983 -182.315 288.905 -182.931 298.134C-183.546 307.364 -183.854 314.44 -183.854 319.362C-183.854 325.515 -183.854 333.821 -183.854 344.281C-183.238 354.126 -182.931 363.662 -182.931 372.892C-182.315 382.121 -182.008 387.966 -182.008 390.427C-182.008 394.734 -182.623 398.426 -183.854 401.503C-184.469 404.579 -186.622 406.117 -190.314 406.117C-199.543 406.117 -206.619 396.273 -211.542 376.584C-215.233 362.432 -220.156 351.972 -226.308 345.204C-232.461 338.436 -241.691 335.052 -253.996 335.052H-339.829C-350.289 335.052 -358.287 336.59 -363.825 339.666C-368.747 342.127 -371.208 348.588 -371.208 359.048V536.25C-371.208 559.631 -366.286 575.936 -356.442 585.166C-346.597 593.78 -331.215 598.087 -310.295 598.087H-241.998C-222.309 598.087 -206.004 597.164 -193.083 595.318C-179.547 592.857 -167.856 588.55 -158.012 582.397C-148.167 575.629 -139.553 566.707 -132.17 555.632C-124.171 544.557 -115.249 529.79 -105.405 511.331C-103.559 507.64 -101.405 504.563 -98.9441 502.102C-96.483 499.641 -93.7142 498.718 -90.6378 499.333C-87.5613 499.948 -85.1001 501.487 -83.2543 503.948C-81.4084 505.794 -80.4855 508.562 -80.4855 512.254C-80.4855 517.792 -82.0237 527.636 -85.1001 541.788C-88.1766 555.324 -92.1759 569.476 -97.0982 584.243C-101.405 599.01 -105.405 610.7 -109.096 619.314C-110.942 623.621 -112.788 627.313 -114.634 630.389C-115.865 633.466 -118.326 635.004 -122.017 635.004C-151.551 635.004 -178.931 634.696 -204.158 634.081C-229.385 633.466 -253.381 632.85 -276.147 632.235C-298.912 631.62 -321.37 631.005 -343.521 630.389C-365.056 629.774 -387.514 629.466 -410.894 629.466C-424.431 629.466 -436.121 629.774 -445.966 630.389C-455.81 631.62 -465.963 632.543 -476.423 633.158C-486.882 634.389 -500.419 635.004 -517.031 635.004ZM-12.6934 635.004C-20.6922 635.004 -27.1527 634.081 -32.075 632.235C-36.9973 631.005 -39.4584 628.543 -39.4584 624.852C-39.4584 617.468 -29.3062 611.931 -9.00172 608.239C14.3792 603.932 32.2225 596.856 44.5282 587.012C56.834 577.167 62.9868 561.17 62.9868 539.019V123.701C62.9868 101.55 58.3722 85.2452 49.1429 74.7853C39.9136 64.3255 23.9161 58.1726 1.15051 56.3267C-9.30936 55.0962 -17.0004 52.9427 -21.9227 49.8663C-26.845 46.1745 -29.3062 42.1751 -29.3062 37.8682C-29.3062 34.1764 -26.845 31.7153 -21.9227 30.4847C-17.0004 28.6388 -10.5399 27.7159 -2.5412 27.7159C14.0715 27.7159 26.9926 27.7159 36.2219 27.7159C45.4512 27.7159 54.0652 28.0236 62.0639 28.6389C70.6779 28.6389 81.1378 28.6389 93.4435 28.6389C105.134 28.6389 115.286 28.3312 123.9 27.7159C132.514 26.4853 142.051 25.5624 152.511 24.9471C163.586 24.3319 178.045 24.0242 195.889 24.0242C267.877 24.0242 321.407 34.4841 356.479 55.4038C392.165 75.7083 410.009 111.087 410.009 161.541C410.009 182.461 406.317 200.919 398.933 216.917C392.165 232.299 385.397 243.374 378.629 250.142C368.784 259.987 359.863 267.678 351.864 273.215C343.865 278.138 332.175 283.675 316.793 289.828C314.331 290.443 313.101 291.982 313.101 294.443C313.101 296.289 314.331 297.827 316.793 299.057C330.944 303.364 345.403 308.902 360.17 315.67C375.552 322.438 389.704 331.36 402.625 342.435C416.161 352.895 426.929 367.047 434.928 384.89C443.542 402.118 447.849 424.268 447.849 451.341C447.849 485.182 442.311 511.947 431.236 531.636C420.776 551.325 408.163 566.399 393.396 576.859C378.629 587.319 364.785 595.933 351.864 602.701C332.79 612.546 310.64 620.237 285.413 625.775C260.186 631.312 230.037 634.081 194.966 634.081C186.967 634.081 174.969 633.466 158.972 632.235C142.974 631.005 125.746 630.389 107.287 630.389C91.29 630.389 77.7537 630.697 66.6786 631.312C55.6034 631.927 43.9129 632.543 31.6072 633.158C19.9168 634.389 5.14988 635.004 -12.6934 635.004ZM207.887 596.241C234.959 596.241 260.186 590.088 283.567 577.782C306.948 565.477 325.714 548.864 339.866 527.944C354.017 506.409 361.093 482.413 361.093 455.955C361.093 431.959 357.094 412.27 349.095 396.888C341.096 380.89 331.867 367.969 321.407 358.125C310.947 348.28 301.41 341.205 292.796 336.897C284.798 331.975 272.184 327.053 254.956 322.131C237.728 316.593 215.27 313.824 187.582 313.824C167.893 313.824 154.049 317.824 146.051 325.822C138.667 333.821 134.975 340.897 134.975 347.05V530.713C134.975 556.555 141.128 574.091 153.434 583.32C166.355 591.934 184.506 596.241 207.887 596.241ZM177.43 287.982C194.043 287.982 211.886 286.136 230.96 282.445C250.649 278.753 270.031 271.677 289.105 261.217C295.873 257.526 304.487 248.604 314.947 234.452C325.407 220.301 330.637 199.996 330.637 173.539C330.637 155.696 327.252 137.545 320.484 119.086C313.716 100.012 300.795 84.0147 281.721 71.0937C262.647 58.1726 234.037 51.7121 195.889 51.7121C170.662 51.7121 154.049 55.0962 146.051 61.8643C138.667 68.6325 134.975 79.0924 134.975 93.244V253.834C134.975 269.831 140.205 279.676 150.665 283.368C161.125 286.444 170.047 287.982 177.43 287.982Z" fill="black"/>
<path d="M-517.031 635.004C-525.03 635.004 -531.491 634.081 -536.413 632.235C-541.335 631.005 -543.796 628.543 -543.796 624.852C-543.796 617.468 -533.644 611.931 -513.34 608.239C-489.959 603.932 -472.731 596.856 -461.656 587.012C-450.58 577.167 -445.043 561.17 -445.043 539.019V123.701C-445.043 101.55 -449.658 85.8605 -458.887 76.6312C-467.501 67.4019 -483.498 60.6338 -506.879 56.3267C-517.339 54.4809 -525.03 52.0198 -529.952 48.9433C-534.875 45.8669 -537.336 42.1751 -537.336 37.8682C-537.336 34.1764 -534.875 31.7153 -529.952 30.4847C-525.03 28.6388 -518.57 27.7159 -510.571 27.7159C-487.19 27.7159 -467.501 28.0236 -451.503 28.6389C-434.891 29.2541 -418.893 29.8694 -403.511 30.4847C-387.514 30.4847 -368.747 30.4847 -347.212 30.4847C-326.908 30.4847 -305.68 30.4847 -283.53 30.4847C-260.765 29.8694 -239.845 29.5618 -220.771 29.5618C-199.851 28.9465 -182.315 28.6389 -168.164 28.6389C-153.397 28.0236 -144.783 27.7159 -142.322 27.7159C-139.245 27.7159 -135.861 28.3312 -132.17 29.5618C-128.478 30.7923 -126.324 32.9458 -125.709 36.0223C-122.633 53.2503 -119.556 70.4783 -116.48 87.7064C-113.403 104.319 -111.865 118.778 -111.865 131.084C-111.865 136.622 -113.403 140.313 -116.48 142.159C-118.941 144.005 -121.71 144.928 -124.786 144.928C-127.863 144.928 -130.016 144.313 -131.247 143.082C-132.477 141.236 -133.708 138.775 -134.938 135.699C-138.015 125.239 -141.091 115.394 -144.168 106.165C-147.244 96.3204 -150.936 89.2446 -155.243 84.9376C-163.857 75.093 -173.394 68.6325 -183.854 65.556C-194.314 61.8643 -205.389 60.0185 -217.079 60.0185H-337.983C-342.905 60.0185 -349.673 62.7873 -358.287 68.3248C-366.901 73.8624 -371.208 80.9382 -371.208 89.5522V285.213C-371.208 290.751 -369.67 295.673 -366.594 299.98C-362.902 303.672 -358.903 305.518 -354.596 305.518H-263.226C-245.382 305.518 -233.077 302.441 -226.308 296.289C-219.54 289.52 -214.003 277.522 -209.696 260.294C-206.004 246.758 -200.466 239.99 -193.083 239.99C-190.622 239.99 -188.161 241.22 -185.7 243.682C-182.623 246.143 -181.085 249.834 -181.085 254.757C-181.085 257.218 -181.393 262.755 -182.008 271.369C-182.008 279.983 -182.315 288.905 -182.931 298.134C-183.546 307.364 -183.854 314.44 -183.854 319.362C-183.854 325.515 -183.854 333.821 -183.854 344.281C-183.238 354.126 -182.931 363.662 -182.931 372.892C-182.315 382.121 -182.008 387.966 -182.008 390.427C-182.008 394.734 -182.623 398.426 -183.854 401.503C-184.469 404.579 -186.622 406.117 -190.314 406.117C-199.543 406.117 -206.619 396.273 -211.542 376.584C-215.233 362.432 -220.156 351.972 -226.308 345.204C-232.461 338.436 -241.691 335.052 -253.996 335.052H-339.829C-350.289 335.052 -358.287 336.59 -363.825 339.666C-368.747 342.127 -371.208 348.588 -371.208 359.048V536.25C-371.208 559.631 -366.286 575.936 -356.442 585.166C-346.597 593.78 -331.215 598.087 -310.295 598.087H-241.998C-222.309 598.087 -206.004 597.164 -193.083 595.318C-179.547 592.857 -167.856 588.55 -158.012 582.397C-148.167 575.629 -139.553 566.707 -132.17 555.632C-124.171 544.557 -115.249 529.79 -105.405 511.331C-103.559 507.64 -101.405 504.563 -98.9441 502.102C-96.483 499.641 -93.7142 498.718 -90.6378 499.333C-87.5613 499.948 -85.1001 501.487 -83.2543 503.948C-81.4084 505.794 -80.4855 508.562 -80.4855 512.254C-80.4855 517.792 -82.0237 527.636 -85.1001 541.788C-88.1766 555.324 -92.1759 569.476 -97.0982 584.243C-101.405 599.01 -105.405 610.7 -109.096 619.314C-110.942 623.621 -112.788 627.313 -114.634 630.389C-115.865 633.466 -118.326 635.004 -122.017 635.004C-151.551 635.004 -178.931 634.696 -204.158 634.081C-229.385 633.466 -253.381 632.85 -276.147 632.235C-298.912 631.62 -321.37 631.005 -343.521 630.389C-365.056 629.774 -387.514 629.466 -410.894 629.466C-424.431 629.466 -436.121 629.774 -445.966 630.389C-455.81 631.62 -465.963 632.543 -476.423 633.158C-486.882 634.389 -500.419 635.004 -517.031 635.004ZM-12.6934 635.004C-20.6922 635.004 -27.1527 634.081 -32.075 632.235C-36.9973 631.005 -39.4584 628.543 -39.4584 624.852C-39.4584 617.468 -29.3062 611.931 -9.00172 608.239C14.3792 603.932 32.2225 596.856 44.5282 587.012C56.834 577.167 62.9868 561.17 62.9868 539.019V123.701C62.9868 101.55 58.3722 85.2452 49.1429 74.7853C39.9136 64.3255 23.9161 58.1726 1.15051 56.3267C-9.30936 55.0962 -17.0004 52.9427 -21.9227 49.8663C-26.845 46.1745 -29.3062 42.1751 -29.3062 37.8682C-29.3062 34.1764 -26.845 31.7153 -21.9227 30.4847C-17.0004 28.6388 -10.5399 27.7159 -2.5412 27.7159C14.0715 27.7159 26.9926 27.7159 36.2219 27.7159C45.4512 27.7159 54.0652 28.0236 62.0639 28.6389C70.6779 28.6389 81.1378 28.6389 93.4435 28.6389C105.134 28.6389 115.286 28.3312 123.9 27.7159C132.514 26.4853 142.051 25.5624 152.511 24.9471C163.586 24.3319 178.045 24.0242 195.889 24.0242C267.877 24.0242 321.407 34.4841 356.479 55.4038C392.165 75.7083 410.009 111.087 410.009 161.541C410.009 182.461 406.317 200.919 398.933 216.917C392.165 232.299 385.397 243.374 378.629 250.142C368.784 259.987 359.863 267.678 351.864 273.215C343.865 278.138 332.175 283.675 316.793 289.828C314.331 290.443 313.101 291.982 313.101 294.443C313.101 296.289 314.331 297.827 316.793 299.057C330.944 303.364 345.403 308.902 360.17 315.67C375.552 322.438 389.704 331.36 402.625 342.435C416.161 352.895 426.929 367.047 434.928 384.89C443.542 402.118 447.849 424.268 447.849 451.341C447.849 485.182 442.311 511.947 431.236 531.636C420.776 551.325 408.163 566.399 393.396 576.859C378.629 587.319 364.785 595.933 351.864 602.701C332.79 612.546 310.64 620.237 285.413 625.775C260.186 631.312 230.037 634.081 194.966 634.081C186.967 634.081 174.969 633.466 158.972 632.235C142.974 631.005 125.746 630.389 107.287 630.389C91.29 630.389 77.7537 630.697 66.6786 631.312C55.6034 631.927 43.9129 632.543 31.6072 633.158C19.9168 634.389 5.14988 635.004 -12.6934 635.004ZM207.887 596.241C234.959 596.241 260.186 590.088 283.567 577.782C306.948 565.477 325.714 548.864 339.866 527.944C354.017 506.409 361.093 482.413 361.093 455.955C361.093 431.959 357.094 412.27 349.095 396.888C341.096 380.89 331.867 367.969 321.407 358.125C310.947 348.28 301.41 341.205 292.796 336.897C284.798 331.975 272.184 327.053 254.956 322.131C237.728 316.593 215.27 313.824 187.582 313.824C167.893 313.824 154.049 317.824 146.051 325.822C138.667 333.821 134.975 340.897 134.975 347.05V530.713C134.975 556.555 141.128 574.091 153.434 583.32C166.355 591.934 184.506 596.241 207.887 596.241ZM177.43 287.982C194.043 287.982 211.886 286.136 230.96 282.445C250.649 278.753 270.031 271.677 289.105 261.217C295.873 257.526 304.487 248.604 314.947 234.452C325.407 220.301 330.637 199.996 330.637 173.539C330.637 155.696 327.252 137.545 320.484 119.086C313.716 100.012 300.795 84.0147 281.721 71.0937C262.647 58.1726 234.037 51.7121 195.889 51.7121C170.662 51.7121 154.049 55.0962 146.051 61.8643C138.667 68.6325 134.975 79.0924 134.975 93.244V253.834C134.975 269.831 140.205 279.676 150.665 283.368C161.125 286.444 170.047 287.982 177.43 287.982Z" fill="#696969"/>
</g>
<defs>
<filter id="filter0_ii_137_829" x="-27.9688" y="8.74095" width="570.592" height="570.592" filterUnits="userSpaceOnUse" color-interpolation-filters="sRGB">
<feFlood flood-opacity="0" result="BackgroundImageFix"/>
<feBlend mode="normal" in="SourceGraphic" in2="BackgroundImageFix" result="shape"/>
<feColorMatrix in="SourceAlpha" type="matrix" values="0 0 0 0 0 0 0 0 0 0 0 0 0 0 0 0 0 0 127 0" result="hardAlpha"/>
<feMorphology radius="29.7959" operator="erode" in="SourceAlpha" result="effect1_innerShadow_137_829"/>
<feOffset dx="-29.7959" dy="-29.7959"/>
<feGaussianBlur stdDeviation="14.898"/>
<feComposite in2="hardAlpha" operator="arithmetic" k2="-1" k3="1"/>
<feColorMatrix type="matrix" values="0 0 0 0 0 0 0 0 0 0 0 0 0 0 0 0 0 0 0.15 0"/>
<feBlend mode="normal" in2="shape" result="effect1_innerShadow_137_829"/>
<feColorMatrix in="SourceAlpha" type="matrix" values="0 0 0 0 0 0 0 0 0 0 0 0 0 0 0 0 0 0 127 0" result="hardAlpha"/>
<feMorphology radius="29.7959" operator="erode" in="SourceAlpha" result="effect2_innerShadow_137_829"/>
<feOffset dx="29.7959" dy="29.7959"/>
<feGaussianBlur stdDeviation="14.898"/>
<feComposite in2="hardAlpha" operator="arithmetic" k2="-1" k3="1"/>
<feColorMatrix type="matrix" values="0 0 0 0 1 0 0 0 0 1 0 0 0 0 1 0 0 0 0.9 0"/>
<feBlend mode="normal" in2="effect1_innerShadow_137_829" result="effect2_innerShadow_137_829"/>
</filter>
</defs>
</svg>
