<svg width="310" height="445" viewBox="0 0 310 445" fill="none" xmlns="http://www.w3.org/2000/svg">
<path d="M63.4688 436.642L59.7451 444.835L0.152344 443.346V423.978L63.4688 436.642ZM264.74 255.365L287.397 271.502L303.526 294.172L309.286 323.758L300.07 350.654L283.558 372.555L253.988 392.919L204.065 409.825L168.736 366.408L119.967 350.654L0.152344 333.747V299.167L123.807 284.567L186.401 265.355L229.027 251.907L264.74 255.365ZM106.077 19.7708L161.283 53.9603L197.189 99.3968L212.449 158.329V233.907L154.999 251.001L82.2891 267.646L43.2412 275.743H0.152344V3.12529L40.0986 0.876266L106.077 19.7708Z" fill="#1E1E1E"/>
</svg>
