<svg width="98" height="149" viewBox="0 0 98 149" fill="none" xmlns="http://www.w3.org/2000/svg">
<path d="M14.229 147.301C14.4962 146.299 14.429 144.723 14.2712 143.516C14.2228 143.136 13.7695 143.265 13.7178 142.999C13.6183 142.475 13.8955 142.041 13.7731 141.522C13.7307 141.349 13.0216 141.446 12.9929 141.266C12.8422 140.276 13.1716 139.419 13.2161 138.502C13.2413 137.99 13.2799 137.493 13.3264 137.053C13.6097 135.306 13.8201 133.42 13.989 132.317C14.0776 131.765 14.1197 131.525 14.2055 131.267C14.2913 131.012 14.4965 130.661 14.8519 130.23C15.6126 129.36 16.5936 128.236 17.0828 126.156C17.6295 124.034 16.687 121.553 15.8643 120.527C15.3636 119.824 14.8438 119.354 14.5589 119.123C14.4235 119.026 14.3429 118.945 14.4847 119.238C14.5513 119.398 14.7148 119.679 14.8291 120.33C14.9692 120.969 14.8065 122.155 14.3825 122.816C13.9463 123.544 13.5837 123.763 13.3733 123.911C13.1651 124.042 13.0506 124.078 13.0004 124.09C12.8911 124.111 12.9715 124.053 13.0647 124.016C13.2898 123.925 13.6428 123.858 14.0197 123.856C14.2053 123.854 14.2078 124.466 14.2508 124.509C14.8286 125.133 14.5392 124.128 14.7909 123.828C14.8203 123.808 14.8528 123.79 14.889 123.775C15.5163 123.496 16.1225 123.271 17.0869 122.713C17.5205 122.443 18.1388 122.047 18.7342 121.304C19.333 120.594 19.782 119.378 19.7696 118.445C19.7186 116.539 19.1021 115.84 18.7722 115.196C18.3982 114.58 18.0834 114.142 17.8055 113.728C17.3424 113.053 18.7656 112.849 17.7329 112.713C17.6638 112.705 17.3252 113.279 17.1349 113.175C16.7029 112.934 16.2351 112.289 16.0089 112.121C15.5747 111.806 15.4935 111.705 15.3184 111.496C15.2732 111.449 15.2365 111.403 15.3095 111.614C15.3379 111.718 15.4228 111.919 15.4626 112.346C15.5167 112.774 15.4096 113.667 14.917 114.315C14.4299 114.964 13.9764 115.135 13.7631 115.224C13.5463 115.304 13.4184 115.316 13.3843 115.318C13.2938 115.323 13.3716 115.316 13.4737 115.353C13.568 115.386 13.4544 116.04 13.5777 116.153C13.6238 116.193 13.7087 116.214 13.8373 116.224C14.4536 116.261 15.2353 116.226 16.1918 115.756C17.0994 115.312 17.7464 114.528 18.0178 114.038C18.3128 113.523 18.4163 113.144 18.4746 112.898C18.5342 112.636 18.5498 112.449 18.5472 112.337C18.5112 111.649 17.9423 111.884 17.8432 111.765C16.9388 110.962 18.3115 110.233 18.3577 110.138C19.0145 108.447 18.4777 107.699 19.1728 106.803C19.6927 106.199 20.697 105.861 21.6608 105.438C22.367 105.122 23.0551 104.768 23.848 104.495C24.6449 104.257 25.4784 103.954 26.3807 103.487C26.6315 103.352 26.71 104.195 27.0397 104.013C28.8704 103.032 30.2479 101.064 30.7565 99.5804C31.3082 98.0691 31.4068 96.9178 31.4462 96.1551C31.4518 96.0014 30.7529 95.923 30.7261 95.7442C30.6705 95.3278 30.5581 94.8458 30.6575 94.4947C30.7448 94.147 31.0851 93.937 31.5099 94.2548C31.9534 94.3692 32.431 94.6455 32.9549 95.1623C33.9148 94.5582 34.9958 93.7452 35.416 92.7223C35.6841 92.0639 34.7867 91.8027 35.5507 91.6345C35.7213 91.5949 35.9371 92.2389 36.1677 92.1367C37.1489 91.696 37.8743 90.8097 38.842 90.3726C39.041 90.2837 39.3923 90.7458 39.5068 90.7817C40.4558 91.0544 40.0855 89.4659 40.1303 89.2756C40.5388 87.7945 41.39 87.3007 42.1789 86.3608C42.3604 86.1423 42.7303 86.9039 42.9278 86.7093C43.9429 85.6924 44.808 84.484 45.3493 83.171C45.4668 82.8793 44.7684 82.7121 44.7966 82.5535C44.924 81.8604 46.0221 82.4729 46.1571 81.8152C46.1873 81.6762 45.6817 81.4107 45.6445 81.3554C45.0571 80.4938 46.3705 81.0253 46.4503 80.9632C47.4808 80.1972 46.6852 78.7771 47.4708 77.9197C47.5649 77.819 48.0075 78.4607 48.236 78.1523C49.6247 76.274 50.7361 74.0579 51.3908 71.7697C51.2228 72.0664 51.2317 72.0078 51.2232 72.0166C51.2188 72.0119 51.2224 71.9963 51.2306 71.9747C51.2524 71.9244 51.2632 71.8889 51.2899 71.8325C51.3429 71.7204 51.3851 71.6219 51.4416 71.5036C51.6004 71.1574 51.0131 71.0347 50.9745 70.9763C50.4013 70.0267 51.654 70.6798 51.7714 70.6143C52.6906 70.0494 52.3236 68.6109 54.0592 69.0537C55.0506 67.2805 56.2673 65.6821 57.3554 63.9039C58.3302 61.9875 59.7641 60.6318 59.1864 56.7751C59.0953 56.7406 59.0872 56.9167 58.7962 57.2596C58.7484 57.3057 58.2047 56.8848 58.1449 56.9196C57.9452 56.9956 58.032 56.8867 58.1281 56.9415C58.2308 56.9806 58.3348 57.1021 58.4336 57.2788C58.6374 57.6328 58.779 58.2103 59.2459 58.8215C59.4742 59.1343 60.1301 57.4763 60.1641 57.3437C60.3472 56.8799 59.9022 55.9262 59.969 55.8305C60.3868 55.0386 61.0665 58.5398 62.7052 57.6493C62.7443 57.6175 62.226 57.2143 62.3072 57.089C62.5318 56.7155 63.0168 56.6169 63.125 56.1586C63.3329 55.0441 61.835 54.3631 62.9424 53.8139C63.0695 53.7313 64.9792 54.2472 64.9695 53.1226C64.9863 52.674 64.8688 51.0812 64.6502 50.7007C64.4581 50.3386 63.9022 50.7178 63.8708 50.6936C62.8699 49.85 62.6146 50.3103 61.3394 50.151C60.3398 50.0465 61.8473 49.6432 62.664 49.3332C62.8879 49.2513 63.0607 49.1793 63.1174 49.126C63.3755 48.8745 62.605 48.4984 62.3501 48.3623C62.0954 48.2503 61.74 48.5028 61.5874 48.3838C60.6107 47.5369 62.952 47.8288 63.3821 47.558C63.9065 47.2841 63.6506 47.1398 63.2557 46.8913C62.8604 46.6546 62.345 46.2777 62.3476 45.9844C62.3506 45.8287 62.7532 46.1184 62.8381 46.0377C63.0007 45.8919 62.9802 45.6979 63.0438 45.5072C63.1035 45.3228 63.2556 45.1455 63.6533 45.2178C63.8163 45.2134 64.7748 46.0955 64.5828 45.1447C64.5616 45.0038 64.1921 44.5982 64.3575 44.3809C64.6037 44.0527 65.2368 43.67 65.7189 43.6796C66.074 43.6855 66.0238 44.6356 66.3217 44.2345C66.4556 44.0551 65.9497 43.7005 66.2159 43.4032C66.48 43.1105 67.3541 42.7878 67.6989 42.6228C68.0416 42.4656 68.1737 43.1407 68.2202 43.1673C68.5013 43.3268 69.4742 43.0623 69.5543 42.9698C70.3451 42.3877 71.0459 41.1814 71.0871 40.1202C71.1554 39.0576 70.8669 38.2639 70.5563 37.5736C70.4666 37.3974 70.3955 37.2644 70.334 37.1423C70.2669 37.0086 70.2293 36.8825 70.2019 36.9577C70.1641 36.9703 70.2539 37.1848 69.8237 37.6676C69.5819 37.9346 69.098 38.058 68.9406 38.038C68.7387 38.0354 68.6272 37.9903 68.5718 37.9653C68.4314 37.8771 68.5884 37.9212 68.7051 37.998C69.2056 38.3049 69.7821 38.9017 70.2138 39.5493C70.3342 39.7283 69.7162 40.0814 69.7291 40.1135C69.99 40.8583 71.0077 39.2022 71.822 39.1983C70.6949 40.0573 71.0965 40.1308 71.3097 40.6301C71.4143 40.875 70.9035 41.1173 70.8752 41.171C70.4729 41.9899 71.4633 41.505 71.6788 41.4214C72.467 41.1088 71.8924 41.9187 72.4208 41.7136C72.947 41.5123 73.3187 40.7039 73.6335 41.1137C73.3273 41.5419 72.057 42.0716 72.1297 42.5069C72.3957 44.1359 74.8808 45.6718 75.6854 46.5447C76.4996 47.427 76.6499 47.7773 77.2518 48.2328C77.3306 48.2929 77.3942 48.3436 77.4477 48.3903C77.5164 48.4551 77.5703 48.5097 77.6146 48.5594C77.6507 48.6 77.7125 48.676 77.7717 48.7471C77.802 48.7833 77.8332 48.8205 77.8745 48.8638C77.9033 48.8885 77.9859 48.9785 78.2059 49.0806C78.3233 49.1283 78.5004 49.2076 78.8316 49.182C79.1585 49.1722 79.625 48.8895 79.7875 48.581C79.9737 48.6367 80.3672 49.1446 80.357 49.5182C80.5443 49.929 79.8968 47.6029 79.7838 47.095C79.765 46.5619 80.0126 47.0519 80.0932 46.7442C80.1783 46.4364 79.7913 46.1523 80.1214 45.9792C80.4818 45.7983 81.4714 46.6111 81.6441 47.1397C82.0022 48.2581 81.7477 49.4984 82.5234 48.9904C82.5697 48.9603 82.3454 48.3448 82.5268 48.2616C83.9293 47.629 85.4735 47.4397 86.888 46.824C87.079 46.7389 86.8128 46.0603 86.9228 46.0028C88.0768 45.3977 87.8031 46.634 88.651 47.8543C88.2561 46.1301 88.4892 45.0127 89.3899 44.8694C89.9433 44.7799 89.9529 45.5561 90.3979 46.0365C90.5348 46.1809 90.8409 45.5982 90.9672 45.9443C91.3864 47.0748 91.2248 48.4432 92.1039 47.7658C92.1413 47.7342 91.9042 47.1172 92.0411 47.0549C92.321 46.9265 92.5488 46.9571 92.7619 47.0586C93.1927 47.2851 93.5288 47.8474 94.1584 47.8742C94.3578 47.8826 94.5782 47.8277 94.8646 47.733C95.0133 47.6838 95.1631 47.6316 95.448 47.5388C95.5961 47.4875 95.7772 47.4392 96.1155 47.2851C96.4304 47.1536 97.0248 46.7423 97.301 46.261C97.7155 45.5306 97.6609 45.1446 97.6678 44.8456C97.6552 44.5501 97.6088 44.3395 97.564 44.1549C97.4713 43.787 97.3719 43.5172 97.309 43.2791C95.3555 43.57 95.6602 42.6844 96.9107 42.0311C96.7252 41.4369 96.6482 40.7917 96.3265 40.2753C96.2169 40.1003 95.6913 40.3632 95.6252 40.3541C94.5903 40.2185 95.8172 39.6502 95.8363 39.5125C95.9066 38.8444 95.6848 38.3092 95.4842 37.7784C95.2255 37.0741 94.9572 36.4443 95.1812 35.5357C95.1966 35.4783 96.4482 34.8951 95.3706 34.9111C95.2986 34.9186 94.8913 35.5747 94.5998 34.9925C94.3043 34.4001 93.1404 33.6375 93.315 32.5736C93.3585 32.3174 94.1021 31.3184 93.1255 31.3388C92.9938 31.3432 92.6742 31.5829 92.4419 31.6132C91.7013 31.71 92.8561 30.9208 91.6695 31.2105C90.4811 31.4971 89.4108 31.383 89.6955 30.2349C89.7027 30.1997 90.5593 29.4763 90.4079 29.2477C90.1657 28.8833 89.657 28.4655 89.4328 28.0704C89.3259 27.8812 89.9861 27.6539 89.9778 27.615C89.5619 26.1546 88.4988 25.5749 87.464 24.3709C87.2936 24.1745 87.5731 23.2045 86.9808 22.933C86.9097 22.8997 86.8263 22.8766 86.7284 22.8664C85.7218 22.7599 83.1665 25.0281 83.1308 23.4194C83.1145 22.773 86.3888 19.9519 83.974 20.2253C83.5278 18.6222 82.1765 17.6687 81.5575 16.1804C81.4387 15.8814 81.3239 15.5556 81.2359 15.1817C81.2184 15.0969 82.0008 14.1546 81.8456 13.9862C81.6179 13.743 81.0786 13.9685 80.9072 13.8267C80.1713 13.2395 79.8987 12.3034 79.1738 11.7423C78.8996 11.5311 78.6066 12.0394 78.2834 11.7983C77.9623 11.5614 78.2405 10.8034 77.5792 10.7377C77.0763 10.6901 75.8076 11.6616 75.2896 11.5014C76.1845 10.266 75.871 10.0661 75.5501 9.35396C75.4881 9.21638 75.9036 8.85745 75.8893 8.76944C75.833 8.39857 75.3922 8.63349 75.3522 8.25205C75.3418 8.16001 75.6226 7.72086 75.6284 7.62003C75.681 6.73731 74.4515 7.37273 74.2551 7.49961C74.1847 7.54062 74.1226 7.5727 74.0672 7.5971C73.5215 7.84632 73.6189 7.285 73.2251 7.37559C72.7856 7.46981 73.0174 8.05166 72.5876 8.01114C71.6885 7.92095 70.8268 7.2496 70.1534 6.68961C69.8858 6.46171 70.5305 6.10284 70.5027 6.05795C70.1429 5.51392 69.085 5.38093 70.034 4.30248C67.4406 5.59095 69.0059 4.40104 69.2821 3.79268L69.307 3.85759C69.3476 3.5639 69.2326 3.37164 68.9914 3.3061C68.8758 3.26345 67.6183 4.39643 67.5204 4.66587C67.4747 4.72056 67.4822 4.8343 67.3599 4.41419C67.3797 4.4689 67.4334 4.63135 67.4625 4.68174C67.6484 4.93427 67.9362 5.15918 67.9062 5.57785C67.869 5.70527 67.0542 7.27219 67.0794 7.44079C67.1159 8.63844 69.0178 6.91557 69.1298 6.83981C70.4481 6.04447 69.8542 7.76907 69.9761 8.00884C70.3988 9.01453 71.2475 9.12433 71.6709 9.82733C71.9521 10.2831 71.1743 11.7478 71.5361 11.8934C71.5755 11.9092 71.6153 11.9225 71.6555 11.9335C72.4645 12.0574 74.0003 10.5509 73.6507 12.6742C73.5715 13.1448 72.3423 14.4871 73.756 13.7596C73.8409 13.7096 75.0743 13.0086 74.8119 13.8563C74.7779 13.9622 74.4469 14.3741 74.4588 14.4405C74.5424 14.8763 74.985 14.6959 75.135 15.0896C75.2839 15.4829 75.4008 15.9905 75.8128 16.134C76.0594 16.2191 76.9707 15.736 77.2279 15.6538C77.9675 15.4135 77.3768 16.4507 78.1293 16.0323C78.906 15.6363 79.5688 14.4419 80.3887 14.5552C79.3577 15.4618 78.311 16.4063 77.2681 17.3113C77.582 17.6479 77.9086 17.9284 78.079 18.0311C78.5764 18.7184 79.0715 19.3703 79.4459 20.074C79.5334 20.2411 78.7996 20.4485 78.8768 20.6367C79.2089 21.4328 80.0329 21.7811 80.2922 22.6161C80.4909 23.2643 80.1919 24.2786 80.3734 24.9598C81.611 24.5967 81.9039 25.2349 82.2212 25.7903C82.305 25.9367 82.3906 26.0775 82.4948 26.1933C82.6711 26.3901 83.0213 26.1583 83.2334 26.2453C84.0246 26.5775 82.668 27.0156 82.5789 27.2909C82.1994 28.4675 84.9262 26.9041 85.3499 27.76C85.3738 27.8054 84.2521 29.1919 84.2049 29.3166C83.894 30.1226 84.7508 29.0936 85.028 29.317C85.5335 29.7243 86.0941 29.8858 86.0276 30.745C86.0069 30.9977 85.3487 31.9431 86.2446 31.8837C86.3621 31.8762 86.8285 31.5766 86.8775 31.597C87.725 31.9934 86.2184 32.8661 85.9084 33.5201C85.5975 34.1722 86.956 34.1612 87.3248 34.1184C88.2777 34.0032 87.5371 33.7034 87.6046 33.6446C88.4185 32.9515 88.491 33.463 88.7396 33.7464C90.2743 32.9991 90.4262 33.5139 88.9906 34.0441C88.8341 34.1021 88.8436 33.7762 88.7396 33.7464C87.4113 34.8156 87.4586 35.3701 89.127 35.2221C89.9088 35.157 90.5674 34.5415 90.6572 35.4719C90.6943 35.8927 89.5604 36.2354 89.4018 36.6679C89.0278 37.6269 90.3759 38.0835 90.3864 38.7635C90.3867 38.9994 89.7095 38.9607 89.6842 39.1162C89.6767 39.1562 89.6749 39.193 89.6776 39.2272C89.7542 39.7449 90.2268 40.1128 90.1388 40.6746C90.1292 40.7312 89.4453 40.7711 89.4809 40.9477C89.7263 42.2529 90.467 43.4097 90.6155 44.2862C90.6315 44.3781 90.6143 44.4933 90.5731 44.438C90.5547 44.4041 90.5235 44.3324 90.5269 44.0708C90.5717 43.7988 90.4453 43.3466 91.2278 42.0634C91.6075 41.4666 92.3399 40.8314 92.8708 40.5535C93.4105 40.2578 93.7291 40.1766 93.9154 40.1178C94.2786 40.0174 94.2687 40.0226 94.2484 40.0114C94.1747 40.0002 93.9375 40.0164 93.7604 40.0519C93.1066 40.1747 92.3674 40.5107 91.7065 40.8428C91.0351 41.2181 90.3881 41.5564 89.8149 41.5144C89.1192 41.4676 89.1776 40.7771 88.8223 40.3668C88.1443 39.5702 87.422 41.2779 87.3111 41.5409C87.3114 41.5494 87.8992 41.6288 87.6454 42.0124C87.5663 42.7499 87.3168 41.5433 87.3111 41.5409C87.2428 41.7122 86.1328 42.0104 85.8807 41.9101C85.7486 41.8554 85.7405 41.214 85.6737 41.1973C84.0683 40.8207 82.624 40.7881 80.8705 41.279C80.8394 41.2955 80.9692 41.9985 80.8962 42.0285C80.3867 42.2482 79.9082 42.1681 79.282 42.0395C78.6402 41.944 77.8979 41.6374 76.2672 42.2068C75.1696 42.5895 73.8912 43.6939 73.3189 44.7025C73.9543 43.569 75.3702 42.3718 76.7676 41.9585C78.1684 41.5142 79.271 41.6415 79.9838 41.7849C81.4081 42.1228 81.8231 42.4979 82.1842 42.7108C82.3521 42.824 82.4723 42.9156 82.5701 42.9931C82.6773 43.0792 82.6535 43.0611 82.6918 43.0929C82.7443 43.1373 82.7884 43.1763 82.8268 43.2113C82.9787 43.3503 83.0501 43.4295 83.0994 43.4871C83.199 43.6062 83.1704 43.6017 83.1662 43.6293C83.1405 43.6668 83.0479 43.663 82.9426 43.6827C82.7174 43.7046 82.4031 43.7781 81.9971 43.9231C81.7957 43.4204 80.8644 43.096 80.3055 42.9073C79.7601 42.7359 80.8137 41.8281 80.8104 41.7787C80.6991 40.1902 79.5946 40.0543 78.6287 39.0194C78.1677 38.5279 77.4901 37.3507 77.1254 36.6677C76.8419 36.1288 76.3656 36.0646 76.1494 35.4894C76.1204 35.4126 76.6414 35.0707 76.6442 35.0373C76.7865 34.0673 75.8438 35.2902 75.5523 35.3653C74.4827 35.6345 73.9301 35.7869 73.6621 34.8312C73.6075 34.6201 74.7031 32.6231 74.3365 32.1245C73.7806 31.4445 73.7041 32.3304 72.7143 31.4138C72.6627 31.3721 72.7187 31.2588 72.618 31.0585C72.4907 30.8608 72.3714 30.5811 71.2753 30.1836C70.3021 29.9442 69.2629 29.3561 66.4615 30.2395C65.1228 30.7067 63.7953 31.8515 63.1754 32.8103C62.6303 33.6076 62.3464 34.3599 62.1809 34.9771C61.8578 36.3628 61.9538 36.6153 61.9484 37.1354C61.9671 37.5853 62.0277 37.9841 62.0647 38.172C62.2579 39.1513 62.4404 39.5543 62.6379 40.0815C62.749 40.0938 62.594 39.7852 62.7796 38.6608C62.8485 38.3603 61.9933 38.5995 62.1191 38.0816C62.4365 36.7603 63.5709 35.6807 63.8949 35.5596C64.2689 35.3734 64.124 35.596 63.8233 35.8964C63.6679 36.0539 63.9779 36.5067 63.9929 36.671C64.0658 37.672 63.0436 36.5636 62.9336 36.5779C61.7061 36.7014 60.2425 37.3851 58.6031 38.8607C56.9493 40.2833 55.3643 42.988 54.7513 45.5018C54.625 45.7627 53.0273 47.8705 54.4206 48.5379C54.5135 48.6303 55.8781 49.1047 55.1024 49.8257C55.0551 49.8718 54.3093 49.5798 54.5173 50.2898C54.617 50.6108 54.6267 51.0549 54.7384 51.5154C54.782 51.7324 54.8935 51.9001 55.3028 51.9904C55.5531 52.0347 56.9029 52.0934 55.9045 52.4991C55.8694 52.5098 55.2787 52.6872 54.8867 52.7534C54.4953 52.8315 54.3086 52.7589 55.1237 52.7394C55.2577 52.7377 55.7553 52.7455 56.109 52.7518C56.465 52.7444 56.6647 52.8129 56.2458 52.6168C56.0905 52.5118 55.6769 52.6266 55.493 52.3164C55.1889 51.837 56.1584 50.4534 57.0709 49.028C57.1502 48.7684 57.7835 47.2003 58.3397 48.008C58.415 48.1328 58.4907 48.7052 58.612 48.7437C58.854 48.8563 58.6558 48.8752 58.0134 48.9216C57.6762 48.9542 57.2227 48.985 56.4342 49.1852C55.6722 49.4188 54.294 49.7198 52.6435 51.4021C51.5362 52.6577 51.6681 53.262 51.7243 53.7179C51.8194 54.1982 51.8654 54.6792 51.7941 55.8222C51.7828 56.1875 51.8007 56.609 51.8518 56.9859C51.9006 57.3218 51.9712 57.6541 52.0524 57.9675C52.052 57.2321 52.1386 57.1313 51.8683 57.0274C51.465 56.8832 50.0067 56.6038 49.9237 56.4559C49.4393 56.4766 48.9571 59.1213 47.8813 60.8447C47.7159 61.1153 47.4318 60.5971 47.155 60.9733C46.6568 61.6476 45.8656 62.5114 45.1644 63.4361C44.814 63.8991 44.4816 64.3847 44.2199 64.8784C44.0888 65.1256 43.9684 65.3839 43.8779 65.6365C43.815 65.7855 43.791 65.8925 43.7235 66.0662C43.6936 66.1483 43.6794 66.2116 43.6191 66.3409C43.5929 66.4005 43.5645 66.4641 43.5272 66.5426C43.4979 66.5969 43.4431 66.6878 43.3711 66.8115C43.2943 66.9473 43.2026 67.0875 42.9912 67.5136C42.9958 67.5654 43.0044 67.6121 43.0076 67.6717C43.2773 69.1197 44.5741 68.1059 44.4764 69.0926C44.4166 69.5854 42.67 69.1914 42.5708 69.2598C41.5759 69.9305 41.8741 70.9422 41.1807 71.6517C41.0353 71.8006 40.5355 71.2757 40.4218 71.4004C40.0294 71.8202 39.9789 72.4975 39.6376 72.9315C39.4855 73.1214 39.0592 72.7978 38.9737 73.0084C38.7605 73.5134 38.6925 74.0266 38.8178 74.7377C38.8287 74.8032 39.5601 74.9035 39.3579 75.2492C39.0248 75.8133 38.9685 76.7593 38.1201 77.0628C37.8656 77.1526 36.8781 76.4402 37.2808 77.3115C37.3641 77.4935 38.6125 78.2703 37.2705 77.9508C37.0427 77.906 35.153 77.5679 35.7448 78.5847C35.9005 78.8536 36.644 79.8401 36.3312 79.9241C36.2859 79.9318 35.8682 79.4093 35.6845 79.5319C35.0466 79.9694 34.594 80.5983 33.942 81.0045C33.7679 81.1107 33.4663 80.4389 33.2255 80.6079C32.5648 81.0703 32.0169 81.8621 31.6223 82.5093C31.4774 82.7492 31.9918 83.0394 32.019 83.0974C32.4434 84.0539 31.4077 83.1774 31.2826 83.1825C30.498 83.2421 30.5319 84.0203 29.9872 84.2161C29.8389 84.2699 29.5486 83.6901 29.4909 83.6617C28.9256 83.383 29.7757 84.1857 29.6916 84.4009C29.4583 85.0051 28.9212 85.2819 28.4588 85.4385C28.2904 85.4939 28.1092 84.7501 27.97 84.8024C27.7699 84.8729 27.5803 84.9434 27.4067 85.0143C24.3829 86.157 21.8599 89.7032 21.4929 91.6791C21.3638 92.1841 22.0183 92.1032 22.098 92.2499C22.6813 93.2225 21.2807 93.5168 21.1157 93.6389C20.379 94.1591 20.8045 94.5025 20.5982 94.8138C20.4233 95.0654 20.3025 95.1784 20.2883 95.1205C20.2713 95.0686 20.3864 94.8345 20.6161 94.6011C20.8413 94.3654 21.1502 94.1773 21.3349 94.1154C21.5249 94.0485 21.5931 94.0777 21.5415 94.1262C20.5061 94.4153 19.5307 94.76 18.5935 95.1513C14.3545 96.7833 9.79528 101.084 8.70475 106.627C8.63019 106.957 7.95174 106.473 7.87854 106.763C7.58044 108.014 7.51336 109.199 7.49407 110.002C7.489 110.369 7.46817 110.743 7.50279 110.456C7.56785 110.257 7.4457 109.991 8.14352 108.524C8.47504 107.862 9.36617 106.574 10.8254 105.768C12.3509 104.918 13.7202 104.843 14.6228 104.902C14.2933 104.881 13.963 104.866 13.6195 104.861C13.1995 104.858 12.81 104.86 12.2055 104.917C11.881 104.95 11.5309 104.998 11.1393 105.081C10.6921 105.176 10.0676 105.347 9.39875 105.651C8.61815 106.018 7.56598 106.583 6.4848 107.924C5.35569 109.304 4.80205 111.261 4.82371 112.679C4.82823 113.384 4.82433 113.55 4.75749 113.631C4.69521 113.704 4.59338 113.639 4.49548 113.611C4.31726 113.51 4.0508 113.823 4.42423 115.255C5.23565 117.734 5.86361 118.197 6.3366 118.836C6.80123 119.37 7.19396 119.69 7.53637 119.889C7.86928 120.081 7.98437 119.303 8.30421 119.497C9.02271 119.916 9.52223 120.354 9.6899 120.726C9.74698 120.87 9.05559 121.194 9.15486 121.324C9.23877 121.434 9.23797 121.499 9.03324 121.171C8.9361 120.828 8.0012 120.029 8.44107 116.938C8.71174 115.451 9.65352 114.019 10.448 113.313C10.8097 112.975 11.1584 112.726 11.461 112.542C11.719 112.387 11.9356 112.282 12.1223 112.203C12.8126 111.931 12.9156 111.994 12.9151 112.026C12.2578 112.187 11.6417 112.374 10.8816 112.663C10.0954 113.003 9.43926 113.151 7.53302 114.38C7.3432 114.509 7.19807 114.725 7.06789 114.993C7.00271 115.127 6.94106 115.275 6.8783 115.432C6.79384 115.607 6.69649 115.804 6.59685 116.014C6.30962 116.819 5.31441 117.95 4.89579 120.561C4.45868 120.9 3.97679 120.877 3.53136 121.058C3.56949 123.133 4.20701 124.231 4.53073 124.874C4.91094 125.558 5.18012 125.899 5.38097 126.168C5.79057 126.696 5.98213 126.904 6.08454 127.033C6.29553 127.263 6.03043 127.112 5.69164 126.169C5.30722 125.237 5.44264 123.466 5.83267 122.772C6.19269 122.019 6.42055 121.926 6.42717 121.95C4.83852 123.513 2.88388 127.068 2.47844 129.286C2.42308 129.504 1.7583 128.919 1.64747 129.346C1.17549 131.273 0.839173 132.312 0.840397 133.674C0.802804 134.14 0.80524 134.607 0.855917 135.055C0.881509 135.292 2.26347 135.491 1.92485 136.06C1.86235 136.159 1.49564 137.037 1.15649 137.214C1.10559 137.238 0.497099 136.949 0.423207 137.242C0.00790837 138.94 -0.101152 140.709 0.0933129 142.426C0.126232 142.703 0.848724 142.498 0.878333 142.696C1.08624 144.083 0.417763 145.512 0.97972 146.96C1.36584 147.946 2.57811 147.628 3.75161 148.138C3.91418 148.201 3.95763 148.831 4.65015 148.825C6.375 148.76 8.25099 148.467 10.092 148.442C10.2894 148.434 10.2883 148.508 10.3448 148.446C10.3984 148.376 10.5161 148.264 11.0146 148.371C11.0485 148.382 11.1474 148.423 11.273 148.382C11.3993 148.35 11.5579 148.269 11.7201 148.237C11.9441 148.193 12.6427 148.257 12.9296 148.175C13.2165 148.098 12.6319 147.981 12.9759 147.784C13.3252 147.594 14.1124 147.725 14.229 147.301ZM77.8148 42.074C77.0147 42.1283 78.9064 40.5823 78.7403 41.3236C78.7297 41.3608 77.8552 42.0728 77.8148 42.074ZM80.3385 17.8012C81.5734 17.8048 80.4049 18.9457 79.4678 18.9835C78.526 19.0091 79.9606 17.7925 80.3385 17.8012ZM77.6026 13.2121C78.6604 13.0259 76.3525 15.6103 76.3627 14.6708C76.3624 14.6173 77.542 13.224 77.6026 13.2121ZM4.1816 145.994C4.21293 146.006 4.21879 146.376 4.1862 146.388C3.39816 146.541 3.38844 145.772 4.1816 145.994ZM73.5073 9.12481C73.9202 8.81936 74.146 9.59473 73.6227 9.95641C73.2159 10.2531 73.0054 9.50812 73.5073 9.12481ZM61.2455 45.5299C61.2724 45.5545 61.2135 45.8183 61.0204 45.7535C60.3891 45.535 60.7303 45.1633 61.2455 45.5299ZM66.5331 1.1576C66.6433 1.58936 67.0052 1.9854 67.4473 2.20047C67.9032 2.43069 68.3582 2.18669 68.6692 1.99338C68.8274 1.88984 68.9527 1.7732 69.0556 1.69196C69.1571 1.62527 69.2513 1.52474 69.3587 1.80931C69.3606 1.71987 69.3386 1.61749 69.2871 1.4902C69.1821 1.23457 68.4919 2.21275 68.1767 1.92877C67.5957 1.37012 69.3198 0.57792 68.209 0.00322448C68.0174 -0.0693785 66.5162 1.09856 66.5296 1.16079C66.5308 1.15973 66.532 1.15866 66.5331 1.1576ZM75.3357 43.6627C75.305 43.6757 75.0614 43.4105 75.0811 43.3838C75.575 42.755 76.0677 43.2909 75.3357 43.6627ZM58.305 57.1829C58.3426 57.1975 58.396 57.5375 58.3781 57.8368C58.3647 58.1387 58.3044 58.3988 58.2693 58.413C57.5904 58.5252 57.3473 58.0858 57.3557 57.763C57.377 57.4488 57.6149 56.9875 58.305 57.1829ZM97.2542 43.2701C97.9582 42.7005 97.9378 42.1411 96.9121 42.0327C97.0484 42.4199 97.1394 42.8312 97.2542 43.2701Z" fill="black"/>
</svg>
