<svg width="98" height="149" viewBox="0 0 98 149" fill="none" xmlns="http://www.w3.org/2000/svg">
<path d="M14.1939 147.242C14.4662 146.189 14.4082 144.559 14.2595 143.309C14.2138 142.916 13.7591 143.051 13.7096 142.775C13.614 142.235 13.8951 141.785 13.7773 141.25C13.7365 141.071 13.0259 141.173 12.9989 140.986C12.8572 139.967 13.1961 139.084 13.2532 138.153C13.2771 137.77 13.3079 137.401 13.3425 137.067C13.6258 135.317 13.8351 133.427 14.001 132.329C14.0881 131.78 14.1275 131.545 14.2102 131.292C14.2929 131.041 14.4953 130.693 14.8485 130.265C15.5631 129.388 16.4257 128.659 17.5354 128.011C18.6481 127.343 20.2509 126.189 21.9687 126.085C22.168 126.073 22.1858 126.686 22.2331 126.726C22.9579 127.343 22.5131 126.197 22.8593 125.959C24.2448 125.02 26.0394 124.672 27.6451 124.655C28.3324 124.65 27.8455 125.935 28.4153 125.168C28.4554 125.115 28.1866 124.511 28.3606 124.415C28.7585 124.198 29.574 124.187 29.8929 124.086C30.4576 123.905 30.5892 123.881 31.0643 123.801C31.107 123.793 31.1525 123.786 31.2013 123.777C31.9209 123.649 32.751 123.235 33.5257 123.337C33.6881 123.362 33.5124 124.027 33.7698 124.125C34.0255 124.222 34.6725 124.155 34.8959 124.006C35.119 123.855 35.0366 123.339 35.0787 123.222C35.4486 122.229 36.1967 123.657 36.278 123.702C38.0267 124.427 39.8824 124.029 41.9878 124.372C43.5123 124.626 45.1861 125.074 46.7248 125.164C46.8317 125.171 46.9343 125.175 47.0349 125.176C49.5584 125.1 50.7339 124.461 52.5348 124.265C52.7158 124.241 52.6257 125.036 52.8496 125.008C55.2369 124.711 57.5245 124.189 59.7142 123.221C59.9303 123.124 59.5053 122.519 59.7133 122.382C61.0058 121.557 62.9263 119.79 64.3715 122.491C65.29 122.178 66.4124 121.812 67.1299 121.046C67.5903 120.553 66.9038 119.951 67.6368 120.11C67.8026 120.145 67.746 120.819 67.9847 120.824C68.0902 120.825 68.1959 120.822 68.3019 120.815C69.2634 120.743 70.2003 120.357 71.1628 120.386C71.3822 120.395 71.4915 120.965 71.5784 121.048C72.3097 121.712 72.6948 120.126 72.8257 119.976C73.8796 118.833 74.884 118.779 76.0392 118.31C76.3065 118.201 76.2716 119.048 76.5404 118.968C77.9319 118.539 79.2779 117.89 80.4005 117.016C80.6482 116.82 80.1228 116.33 80.2276 116.205C80.6898 115.664 81.3313 116.745 81.78 116.247C81.8755 116.143 81.5762 115.657 81.5722 115.591C81.5066 114.549 82.3662 115.679 82.4639 115.668C83.2046 115.604 83.5369 115.014 83.9163 114.486C84.2094 114.105 84.4854 113.769 84.9699 113.64C85.1099 113.604 85.1166 114.389 85.4917 114.249C87.9747 113.317 90.4656 111.9 92.5182 109.849C92.8326 109.529 92.2678 109.262 92.2549 109.191C92.0235 108.093 93.0595 109.051 93.216 108.998C94.4358 108.523 94.4284 107.001 96.388 106.706C96.4287 106.601 96.4604 106.511 96.4577 106.496C96.6791 106.076 96.8272 105.351 96.8028 104.938C96.7909 104.515 96.7335 104.301 96.6968 104.136C96.618 103.823 96.561 103.673 96.5081 103.507C96.4038 103.191 96.3177 102.909 96.2391 102.612C96.0817 102.019 95.9609 101.408 95.8542 100.779C95.3528 97.8418 94.8312 94.9498 93.2103 92.3413C93.1812 92.2917 92.5368 92.5414 92.4817 92.442C91.809 91.2467 92.9013 91.2527 93.9616 90.0953C94.2269 89.8014 92.5429 89.5215 92.4168 89.4914C91.9532 89.3817 91.0184 89.8428 90.9213 89.7919C90.1539 89.3728 93.4435 88.6524 93.2487 87.8698C93.2371 87.8466 92.6621 88.1006 92.5859 88.0498C92.3468 87.892 92.5341 87.6283 92.2772 87.4828C91.682 87.1447 90.0584 87.3955 90.7997 86.461C90.8962 86.3417 92.7811 86.0011 92.51 85.3208C92.4022 85.0548 92.1062 83.8128 91.8931 83.5007C91.6813 83.1903 91.1508 83.586 91.1185 83.5685C90.082 82.8536 89.8527 83.2974 88.5651 83.1545C87.9699 83.0884 88.2517 82.917 88.7506 82.7246C89.3277 82.5035 90.195 82.2542 90.3327 82.109C90.5889 81.8396 89.7552 81.3403 89.4855 81.24C89.215 81.1371 88.8947 81.4466 88.727 81.335C87.6255 80.5865 89.9788 80.5302 90.3283 80.0885C91.1563 79.0443 88.9474 79.0182 88.5566 78.3838C88.4507 78.2111 88.959 78.2357 88.9564 78.0563C88.9405 77.3499 88.1921 77.1278 88.5697 76.2149C88.6307 76.0643 89.693 75.1183 88.6811 74.9732C88.5355 74.9536 88.0696 75.2529 87.8775 75.003C87.5899 74.6308 87.268 73.9031 87.3127 73.4037C87.3459 73.0347 88.292 73.1839 87.9144 72.8363C87.746 72.6821 87.351 73.1645 87.0756 72.8634C86.8009 72.5639 86.5739 71.6658 86.4961 71.3218C86.4189 70.978 87.1074 70.9858 87.1427 70.9464C87.3421 70.7118 87.4674 69.976 87.4505 69.9185C86.716 66.995 84.889 64.6268 84.4292 61.7079C84.3916 61.4775 85.1042 61.432 85.1054 61.3948C85.166 60.5547 83.559 61.6681 82.8105 61.3152C84.1915 60.9981 83.8531 60.7508 83.8478 60.1796C83.8452 59.9002 84.4119 59.8867 84.4589 59.8475C85.1446 59.2282 84.0363 59.2689 83.8056 59.2636C82.9546 59.2365 83.79 58.6917 83.2214 58.6754C82.6564 58.6573 82.011 59.2781 81.8688 58.7633C82.3114 58.4748 83.6936 58.48 83.783 58.0281C84.019 56.859 83.2227 55.3253 82.5403 54.127C82.2288 53.5733 81.9513 53.1152 81.7967 52.749C81.3133 51.6184 81.2681 51.2 80.8611 50.582C80.1171 49.4627 81.201 49.5848 81.3392 48.6554C81.4677 47.7183 79.3508 48.9554 78.8244 49.0308C78.298 49.1071 78.7546 48.8056 78.4371 48.7739C78.1205 48.7436 77.9004 49.16 77.6794 48.8777C77.6332 48.8127 77.6196 48.7274 77.6181 48.5607C77.6196 48.4747 77.6135 48.3753 77.633 48.1532C77.6328 47.9282 77.8287 47.525 77.9272 47.4887C78.4943 47.1219 79.1574 47.343 79.337 47.6146C80.0321 48.5651 80.2024 49.7786 80.4188 49.2729C80.4454 49.2406 80.1837 48.6501 80.3014 48.556C81.4465 47.824 83.1891 47.6868 84.6282 47.0835C84.8333 47.0004 84.5674 46.3185 84.6861 46.2621C85.899 45.6718 85.5734 46.9067 86.4302 48.1381C86.0636 46.4074 86.3165 45.2947 87.2633 45.161C87.8205 45.0805 87.8394 45.8537 88.2787 46.3409C88.4096 46.488 88.7443 45.9075 88.8719 46.2546C89.2871 47.3893 89.0755 48.7597 90.0099 48.0888C90.0505 48.0573 89.8141 47.4381 89.9604 47.3766C90.8848 46.9767 91.1984 48.1801 92.2788 48.1548C92.4589 48.1505 92.664 48.1013 92.887 48.023C93.6644 47.7325 94.2953 47.2073 95.4132 46.9566C95.2258 46.0347 95.4595 45.7481 95.8161 45.2613C96.0685 44.7728 96.4516 44.4275 97.1949 44.0954C97.0869 43.2805 97.0139 42.6066 96.7016 42.0346C96.5933 41.8402 96.0631 42.1001 95.9969 42.0871C94.9624 41.9092 96.1966 41.3589 96.2153 41.211C96.3529 39.8493 95.3639 39.0081 95.5846 37.7437C95.6086 37.5716 95.6465 37.3853 95.7052 37.1928C95.7258 37.139 97.0183 36.6432 95.9336 36.5475C95.8606 36.5482 95.4139 37.1981 95.1533 36.555C94.8879 35.8982 93.7447 35.0352 93.9387 33.9459C93.9886 33.6854 94.7496 32.6818 93.7639 32.6597C93.6312 32.6588 93.3067 32.8924 93.0721 32.9136C92.324 32.9812 93.496 32.2174 92.2965 32.4678C91.0976 32.7199 90.0222 32.5692 90.3108 31.4031C90.3184 31.3679 91.1811 30.6493 91.0278 30.4102C90.7826 30.0291 90.2676 29.5875 90.0385 29.1765C89.9296 28.98 90.594 28.7622 90.5853 28.7221C90.1536 27.2115 89.0727 26.594 88.0106 25.3419C87.815 25.1134 88.1726 23.8995 87.244 23.7879C86.3879 23.6836 84.4503 25.2881 83.819 24.808C83.6995 24.7166 83.6303 24.5578 83.6196 24.2941C83.5953 23.6327 86.8591 20.7919 84.4247 21.0346C83.8757 19.1247 82.0944 18.0907 81.646 16.1128C81.6267 16.0056 81.6042 15.8871 81.5867 15.7699C81.5793 15.6882 82.4219 14.7938 82.267 14.6019C82.0445 14.3314 81.4889 14.5232 81.3196 14.3677C80.5907 13.723 80.3209 12.7593 79.5837 12.1587C79.3061 11.9343 79.0042 12.4378 78.6765 12.1819C78.3497 11.9298 78.6338 11.1702 77.9587 11.0811C77.4447 11.0155 76.1511 11.9593 75.6205 11.7799C76.5322 10.5568 76.213 10.3455 75.8827 9.61427C75.8186 9.47282 76.2439 9.12336 76.229 9.03376C76.1723 8.65785 75.7218 8.88163 75.6799 8.49422C75.6692 8.4008 75.9567 7.96602 75.9631 7.86456C76.0195 6.97599 74.7645 7.57961 74.5627 7.70026C74.2059 7.89434 74.0407 7.86314 73.9271 7.77966C73.789 7.67801 73.7273 7.49473 73.4824 7.54772C73.0341 7.64126 73.2892 8.23001 72.8453 8.18654C71.9236 8.09427 71.024 7.42 70.317 6.8608C70.0364 6.63353 70.6766 6.26259 70.6467 6.21755C70.2553 5.66779 69.1762 5.54797 70.0863 4.43188C67.289 5.8917 69.3696 4.3335 69.3332 3.74884L69.3644 3.83014C69.3263 3.59784 69.2113 3.48429 69.0502 3.42252C68.9178 3.35204 67.6751 4.5089 67.491 4.67732C67.4416 4.6866 67.3884 4.68728 67.3024 4.4196C67.3223 4.47502 67.3769 4.63932 67.4063 4.69038C67.566 5.01462 68.0091 5.25184 67.9937 5.76454C67.9621 5.89662 67.2079 7.50401 67.2391 7.67261C67.3216 8.8804 69.1741 7.10459 69.285 7.02671C70.5904 6.20385 70.0547 7.95586 70.1837 8.19453C70.6411 9.20118 71.5071 9.30883 71.9545 10.016C72.1604 10.3342 71.8557 11.1334 71.7754 11.6486C71.7158 11.8649 71.694 12.0211 71.7752 12.0498C72.6239 12.3552 74.3032 10.6993 73.9448 12.9136C73.8659 13.3884 72.6103 14.7071 74.0574 14.0179C74.1431 13.9693 75.4045 13.3006 75.1363 14.1504C75.1016 14.2567 74.7642 14.6632 74.7762 14.7308C74.8609 15.1748 75.3117 15.0062 75.4617 15.409C75.6106 15.8113 75.7232 16.3268 76.1334 16.4823C76.3782 16.5734 77.3034 16.1167 77.5634 16.0428C78.3133 15.8283 77.6817 16.8395 78.4465 16.4479C79.2387 16.0852 79.9497 14.9146 80.771 15.0758C79.6967 15.9307 78.6029 16.8202 77.5122 17.6669C77.6811 17.8669 77.8394 18.0253 77.9392 18.0849C78.6138 19.0469 79.3461 19.893 79.8622 20.8447C79.9521 21.0132 79.2177 21.2225 79.2989 21.4144C79.642 22.2178 80.4757 22.5787 80.7477 23.4332C80.9555 24.0954 80.6671 25.1283 80.8581 25.8274C81.4178 25.6677 81.7868 25.7134 82.0549 25.867C82.5393 26.148 82.6946 26.768 83.0254 27.1381C83.2056 27.341 83.5554 27.1085 83.7702 27.1998C84.5715 27.5488 83.2099 27.9788 83.1233 28.2584C82.7534 29.4523 85.4839 27.8949 85.9196 28.777C85.9443 28.824 84.8255 30.2205 84.7784 30.3463C84.4701 31.1625 85.3267 30.1283 85.607 30.3607C86.118 30.7848 86.6842 30.9617 86.6179 31.8352C86.5979 32.0931 85.9341 33.0394 86.8342 32.9983C86.9525 32.9937 87.4225 32.6996 87.4717 32.7216C88.322 33.145 86.8018 33.995 86.4831 34.6482C86.1631 35.2987 87.5216 35.3183 87.892 35.2864C88.8497 35.1989 88.1127 34.8732 88.1819 34.8174C89.0092 34.1393 89.0745 34.6596 89.3174 34.9535C90.8715 34.2469 91.0154 34.7796 89.5628 35.2635C89.4047 35.317 89.4209 34.9867 89.3174 34.9535C87.965 35.9949 87.9902 36.5365 89.6619 36.4508C90.4444 36.4157 91.132 35.83 91.1791 36.7676C91.1924 37.1852 90.0452 37.4752 89.8552 37.8808C89.6025 38.4101 89.9102 38.7609 90.197 39.088C90.4469 39.4817 90.704 39.8653 90.7277 40.2599C90.7476 40.5956 90.0455 40.4398 90.0379 40.6757C90.0143 41.2975 90.6098 41.6887 90.5037 42.3026C90.4933 42.3584 89.8097 42.3936 89.8425 42.5671C89.9467 43.1538 90.1319 43.6661 90.2922 44.0659C90.3719 44.2589 90.4429 44.4354 90.4856 44.457C90.5084 44.4607 90.5181 44.4339 90.5453 44.2239C90.6344 43.9882 90.4166 43.6641 91.3345 42.1639C91.812 41.4212 92.8148 40.7343 93.3195 40.5559C93.8479 40.3436 94.0514 40.3296 94.1578 40.3054C94.3808 40.2717 94.1749 40.2832 93.9662 40.272C93.7428 40.2645 93.4565 40.2542 93.1741 40.2488C92.6004 40.2381 92.0191 40.2495 91.5815 40.3341C91.5313 40.344 91.4834 40.3551 91.4381 40.3675C90.2331 40.6995 88.8586 41.8999 87.769 41.8099C87.065 41.7532 87.1177 41.0659 86.7707 40.6496C86.0891 39.8441 85.3076 41.5423 85.1847 41.8041C85.1827 41.8129 85.7928 41.8998 85.5215 42.2802C85.4175 43.0176 85.1914 41.8065 85.1847 41.8041C85.1212 41.9733 83.9394 42.2592 83.6929 42.1545C83.5536 42.0984 83.5606 41.4565 83.49 41.4392C82.6586 41.2403 81.8431 41.1325 80.9222 41.1595C80.4502 41.1764 79.9622 41.2206 79.3025 41.3551C78.6336 41.5261 77.8064 41.6086 76.2034 42.599C76.0992 42.6783 76.6303 43.1861 76.4011 43.3572C75.653 43.9145 74.9145 44.7332 74.4785 45.421C74.3563 45.5984 73.8592 46.4731 73.7467 47.4701C73.6372 48.4361 73.7582 48.9184 73.8007 49.2264C73.9057 49.7941 73.9348 49.9209 73.9446 50.0801C73.9632 50.3651 73.9178 50.5191 73.8686 50.6948C73.7679 51.038 73.6178 51.3548 73.5279 51.6885C73.2918 52.5448 73.6455 53.037 74.9504 53.0673C74.9902 53.6576 75.7672 54.2817 76.229 54.6405C76.6942 55.0091 75.3895 55.4895 75.3774 55.5411C75.2863 55.8906 75.2537 56.1584 75.2798 56.4266C75.355 57.3235 76.0434 57.8449 76.4507 58.8586C76.7003 59.4715 76.8839 60.7959 76.9416 61.5328C76.9855 62.1164 77.3931 62.3513 77.342 62.9206C77.3353 62.9973 76.7215 63.1003 76.7047 63.128C76.1571 63.8944 77.5305 63.2046 77.8234 63.2455C78.8897 63.3986 79.4668 63.5119 79.2332 64.3702C79.1792 64.565 77.2285 65.6566 77.1929 65.9949C77.1508 66.4349 77.858 66.0707 77.7954 66.5402C77.7907 66.5801 77.3261 66.7054 77.4192 66.9549C77.8473 68.1211 78.4847 69.3469 78.7875 70.6028C78.8306 70.7736 78.0347 70.7627 78.0849 71.0129C78.3209 72.1879 78.7008 73.4426 79.3577 74.47C79.5217 74.7224 79.9883 74.4057 80.1578 74.4232C81.1855 74.5346 79.9867 75.4312 79.9851 75.5247C79.9106 77.7616 81.5631 79.002 81.5638 81.2655C81.5611 81.3887 80.3629 82.6695 81.7069 82.719C81.796 82.7214 83.1698 82.7674 82.3989 83.3471C82.3506 83.3832 81.6329 83.3215 81.8151 83.7239C81.9136 83.9429 81.8885 84.274 81.977 84.5896C82.0537 84.8631 82.2157 85.1248 82.6198 85.2959C82.8953 85.4176 84.2737 85.4984 83.4113 86.3121C83.351 86.3676 81.2909 87.8009 82.9414 87.6784C83.2126 87.6569 84.8671 87.1725 84.1802 88.0393C84.0462 88.2044 83.6169 88.0798 83.4679 88.461C83.2392 89.0524 83.8529 89.5895 83.2618 90.3867C83.1568 90.5261 82.1347 91.2577 83.0847 91.4038C83.2334 91.4265 83.7655 91.1822 83.8747 91.356C84.3983 92.1913 84.2525 93.2336 84.854 94.0662C85.0662 94.3628 85.933 93.9841 86.2546 94.2712C86.5771 94.562 86.9655 95.1954 86.6309 95.6515C86.2947 96.1007 84.7613 96.0258 84.763 96.5876C84.7615 98.6593 85.7239 100.508 86.2939 102.377C86.3999 102.759 86.5015 103.145 86.5953 103.541C86.6967 103.963 86.1038 103.705 86.2242 104.347C86.2998 104.745 86.385 105.217 86.4775 105.691C86.5201 105.914 86.5752 106.185 86.5635 106.189C86.5582 106.165 86.5129 106.12 86.4433 105.481C86.4154 105.161 86.3829 104.628 86.4914 103.887C86.5915 103.153 86.8868 102.303 87.1568 101.784C87.0052 102.078 87.0117 102.057 87.0402 101.993C87.0733 101.921 87.1377 101.801 87.2036 101.694C87.3358 101.479 87.4555 101.332 87.5227 101.26C87.6596 101.118 87.6267 101.196 87.5428 101.32C87.3631 101.585 87.0187 102.051 86.8547 102.59C86.3901 103.926 87.9474 103.791 87.3801 104.558C87.0905 104.932 85.8264 103.662 85.7075 103.665C84.548 103.671 84.2217 104.689 83.2222 104.915C83.0181 104.96 82.8937 104.245 82.7235 104.29C82.1299 104.441 81.6963 104.988 81.1467 105.177C80.8971 105.261 80.7129 104.759 80.5192 104.891C80.2945 105.041 80.088 105.214 79.8951 105.43C79.6603 105.678 79.4536 105.975 79.2683 106.346C79.2366 106.41 79.8483 106.862 79.4393 107.073C78.7746 107.414 78.1557 108.237 77.1979 108.107C76.9131 108.067 76.4086 106.958 76.2788 107.936C76.2522 108.14 76.9646 109.426 75.9086 108.508C75.7264 108.359 74.1494 107.184 74.1402 108.379C74.138 108.693 74.2961 109.925 73.9647 109.857C73.9184 109.844 73.8101 109.181 73.5728 109.209C72.7425 109.317 71.9912 109.684 71.1657 109.766C70.946 109.786 71.0118 109.042 70.6956 109.09C69.8266 109.222 68.8898 109.711 68.1718 110.139C67.9078 110.298 68.2604 110.78 68.257 110.845C68.1852 111.899 67.6208 110.662 67.4929 110.616C66.885 110.415 66.5354 110.775 66.1089 110.957C65.9342 111.025 65.7529 111.073 65.5541 111.074C65.3342 111.078 65.3453 110.421 65.2911 110.374C64.7391 109.926 65.3081 110.976 65.0627 111.159C64.3615 111.681 63.4976 111.817 62.6978 111.905C62.4048 111.936 62.5707 111.142 62.3105 111.179C60.7689 111.379 59.2062 111.778 57.8134 112.474C57.5534 112.607 57.839 113.131 57.8073 113.271C57.5811 114.246 56.7615 113.14 56.5994 113.051C55.8867 112.639 55.7414 113.182 55.1912 113.191C52.551 113.218 49.1048 114.157 47.4642 114.465C47.3308 114.5 47.1772 114.513 47.4608 114.555C44.9126 114.667 42.957 114.69 39.6648 114.026C39.4322 113.982 39.7822 113.267 39.5797 113.22C36.9231 112.613 33.6845 112.818 30.85 112.963C30.6157 112.975 30.8673 112.218 30.4816 112.215C30.0884 112.211 29.6702 112.252 29.2432 112.342C28.8955 112.421 28.5617 112.542 28.2627 112.708C27.9815 112.864 28.4768 113.412 28.1917 113.556C27.5283 113.894 26.7766 114.062 26.0189 114.063C25.6963 114.063 26.0573 113.261 25.6464 113.317C22.8478 113.694 19.8156 114.027 16.7177 115.939C16.5014 116.073 16.7564 117.558 16.195 117.441C16.0279 117.059 15.8747 116.596 15.7176 116.18C12.5285 117.055 8.99217 119.095 6.42331 121.984C5.06537 123.392 3.30971 126.115 2.7081 128.377C2.62984 128.635 2.01344 127.949 1.85973 128.452C1.15343 130.996 0.837478 132.1 0.925397 133.707C0.916499 133.981 0.919334 134.266 0.941182 134.534C0.960315 134.785 2.34037 134.995 1.98805 135.594C1.92314 135.696 1.53872 136.618 1.19757 136.799C1.1462 136.824 0.541337 136.523 0.462603 136.829C0.0222581 138.597 -0.101059 140.428 0.081543 142.205C0.112714 142.49 0.836745 142.279 0.86524 142.481C1.06402 143.916 0.388125 145.389 0.94468 146.885C1.32781 147.893 2.54095 147.57 3.71309 148.101C3.87536 148.161 3.91796 148.817 4.61054 148.809C6.33563 148.749 8.21192 148.454 10.0532 148.437C10.2505 148.429 10.2496 148.508 10.3065 148.448C10.3601 148.377 10.4774 148.263 10.9763 148.373C11.0103 148.385 11.1089 148.424 11.2343 148.38C11.3604 148.343 11.5191 148.257 11.6813 148.224C11.9055 148.177 12.604 148.247 12.8909 148.16C13.178 148.079 12.5938 147.951 12.9385 147.747C13.2888 147.546 14.0753 147.685 14.1939 147.242ZM78.2958 56.2922C79.067 56.5275 76.7535 57.3126 77.1672 56.6743C77.19 56.6428 78.2577 56.2799 78.2958 56.2922ZM80.7159 18.5372C81.9583 18.5372 80.8071 19.7007 79.8658 19.7405C78.9222 19.7727 80.3361 18.5308 80.7159 18.5372ZM77.978 13.5914C79.0549 13.4425 76.6869 15.9722 76.7089 15.0249C76.7094 14.971 77.9164 13.6013 77.978 13.5914ZM4.15115 145.885C4.18247 145.896 4.18607 146.288 4.1539 146.293C3.36503 146.451 3.35883 145.657 4.15115 145.885ZM73.786 9.31245C74.2125 9.02006 74.444 9.81173 73.9055 10.1584C73.4831 10.4414 73.2688 9.68081 73.786 9.31245ZM87.4023 78.6821C87.4394 78.6796 87.5421 78.9288 87.3424 78.9783C86.6989 79.1372 86.78 78.7281 87.4023 78.6821ZM66.4991 1.18532C66.6031 1.60034 66.9228 1.98708 67.3252 2.21756C67.8214 2.52852 68.3259 2.25119 68.6536 2.04021C68.8207 1.92504 68.9469 1.79245 69.0429 1.69383C69.1379 1.61551 69.2173 1.47111 69.3291 1.80748C69.3219 1.7298 69.2988 1.64267 69.2568 1.53904C69.1836 1.35601 68.8062 1.80113 68.4914 1.9789C68.3842 1.98386 68.2931 2.01872 68.2219 2.03404C68.1964 2.02513 68.1723 2.01051 68.1498 1.98911C67.561 1.41211 69.2876 0.606152 68.1705 0.00370453C67.9784 -0.0727917 66.4821 1.12325 66.4956 1.18859C66.4967 1.1875 66.4979 1.18641 66.4991 1.18532ZM81.1751 55.6732C81.2085 55.6715 81.349 56.023 81.3199 56.0376C80.6381 56.4576 80.3583 55.7614 81.1751 55.6732ZM92.7816 93.4637C92.854 93.4699 93.1055 94.301 93.049 94.3417C91.9086 95.0528 91.3996 93.3851 92.7816 93.4637ZM95.4323 46.899C95.5875 46.9876 95.7849 47.0595 96.1291 47.0011C96.4605 46.9575 96.9922 46.6585 97.295 46.2835C97.9057 45.5224 97.8873 45.0707 97.8357 44.7553C97.7612 44.4401 97.541 44.2364 97.196 44.098C97.2228 44.286 97.2408 44.4928 97.2265 44.7601C97.1957 45.0308 97.2135 45.367 96.8412 45.9699C96.6437 46.2826 96.2634 46.5767 96.0036 46.6939C95.7359 46.8219 95.5659 46.8617 95.4323 46.899Z" fill="black"/>
</svg>
