<svg width="83" height="137" viewBox="0 0 83 137" fill="none" xmlns="http://www.w3.org/2000/svg">
<path d="M16.2981 134.221C16.4676 133.039 16.1635 131.536 15.7838 130.417C15.6657 130.061 15.2447 130.272 15.1436 130.032C14.9463 129.562 15.1295 129.102 14.898 128.644C14.819 128.492 14.1481 128.733 14.081 128.572C13.9914 128.352 13.9315 128.146 13.8876 127.927C13.7501 127.22 13.7652 126.56 13.6032 125.922C12.7538 122.761 12.507 119.886 12.5559 116.609C12.5673 115.716 12.5995 114.8 12.6406 113.871C12.7022 112.464 12.318 110.653 12.8 109.225C12.8569 109.058 13.4376 109.247 13.4914 109.221C14.317 108.821 13.0901 108.816 12.9796 108.458C12.5446 107.038 12.7205 105.545 13.1551 104.299C13.3418 103.77 14.4342 104.506 13.8601 103.851C13.8215 103.805 13.1682 103.842 13.1251 103.682C13.0284 103.318 13.2461 102.691 13.2393 102.419C13.2231 101.895 13.2433 101.812 13.3156 101.33C13.409 100.671 13.2263 99.8371 13.488 99.1542C13.5457 99.0092 14.1582 99.3169 14.3085 99.0959C14.4588 98.873 14.5113 98.2291 14.3957 97.9875C14.2797 97.7472 13.7565 97.7526 13.6466 97.6949C12.7174 97.2159 14.2028 96.7099 14.2528 96.6198C14.554 96.0545 14.6886 95.4832 14.7458 94.9207C14.8542 93.8591 14.6949 92.8039 14.8775 91.7522C15.0927 90.5216 15.5761 89.2668 15.7536 88.108C15.9622 86.7315 15.8376 85.5113 16.1787 84.2272C16.2139 84.0927 16.9318 84.4155 16.9761 84.2531C17.4031 82.6885 17.7227 81.1754 17.8186 79.6161C17.833 79.4326 17.8437 79.2499 17.8505 79.0676C17.857 78.8828 17.1427 78.8848 17.1118 78.6846C16.9278 77.4703 16.3271 75.2903 19.3046 75.8025C19.4727 75.0822 19.7104 74.2395 19.4493 73.3964C19.2837 72.8501 18.4394 72.9115 18.9508 72.5692C19.0651 72.4935 19.5803 72.9101 19.7063 72.7788C20.2372 72.2248 20.4197 71.4223 21.056 70.983C21.1859 70.896 21.6665 71.2203 21.7762 71.2384C22.6626 71.3866 21.7404 70.2315 21.7235 70.0738C21.6601 69.6816 21.7165 69.3638 21.765 69.1965C21.5329 69.376 21.6247 69.2521 21.7413 69.1987C21.8717 69.1256 22.0533 69.0472 22.2646 68.9259C22.4134 68.8409 22.6048 69.6189 22.7533 69.5667C23.5461 69.2773 24.5001 68.8141 25.3403 68.1334C25.5246 67.9813 25.0996 67.4334 25.1773 67.3285C25.5375 66.8698 26.0558 68.0117 26.4114 67.6018C26.4859 67.5175 26.2488 67.0004 26.2454 66.9357C26.197 65.9195 26.8881 67.1467 26.962 67.1541C27.9696 67.258 28.1075 65.7009 29.0474 65.6296C29.1601 65.6227 29.1306 66.3798 29.433 66.3192C31.4397 65.924 33.4747 65.178 35.3248 64.1405C35.6127 63.9803 35.2663 63.5102 35.27 63.4411C35.3467 62.3561 35.8771 63.6581 35.9888 63.6855C36.868 63.8645 37.3629 62.5593 38.26 64.0566C38.2718 64.0519 38.2835 64.0472 38.2952 64.0426C41.4948 62.7694 44.7208 63.3032 48.0448 61.8794C48.0892 61.8626 48.016 61.1778 48.1049 61.1473C49.1704 60.7763 48.9349 61.8398 49.6429 63.15C49.8266 63.48 50.4211 61.9114 50.464 61.7945C50.6464 61.3684 50.4408 60.3528 50.502 60.27C50.9787 59.6124 50.9498 62.9982 51.8421 62.9271C51.8681 62.919 51.6957 62.3132 51.7611 62.245C51.9549 62.0319 52.2107 62.2471 52.4002 61.9976C52.871 61.3969 52.4917 59.8368 53.4649 60.4563C53.6049 60.5125 54.2452 62.389 55.1194 61.7568C55.1323 61.7466 55.1472 61.7352 55.1637 61.7226C55.444 61.5288 56.0122 61.052 56.3718 60.5423C56.7443 60.035 56.9511 59.5431 56.991 59.3134C57.0638 58.8379 56.3679 58.8947 56.3591 58.8491C55.9744 57.5764 55.4907 57.8609 54.442 57.1642C53.3524 56.5575 56.1257 57.2536 56.4775 57.1241C56.781 57.0085 56.405 56.4195 56.1434 56.1724C56.1088 56.0551 56.0645 55.9755 56.029 55.9236C55.8994 55.7614 55.744 55.8223 55.605 55.8551C55.4648 55.8935 55.3379 55.917 55.2597 55.8479C54.1783 55.3269 56.4057 54.8604 56.6494 54.3024C57.128 52.9631 55.0615 53.7425 54.5646 53.3783C54.428 53.279 54.8999 53.1119 54.8573 52.9704C54.6833 52.4133 53.9471 52.5137 54.1075 51.6597C54.1291 51.5143 54.9328 50.4147 53.9758 50.6536C53.8374 50.6875 53.4609 51.0818 53.2366 50.9488C52.9016 50.7531 52.4758 50.275 52.4436 49.8645C52.4204 49.5622 53.3302 49.3968 52.9281 49.2388C52.7488 49.1674 52.4437 49.664 52.1418 49.5044C51.8385 49.3458 51.5094 48.6827 51.4008 48.4249C51.3901 48.4 51.3866 48.3759 51.3889 48.3528C51.416 48.1448 51.9554 48.007 51.9826 47.9714C52.1519 47.7431 52.2199 47.1421 52.2025 47.1039C51.3115 44.9565 49.4548 43.252 48.9562 40.911C48.9164 40.7271 49.6122 40.596 49.6129 40.5654C49.6611 39.8668 48.105 40.9928 47.3667 40.7927C48.7136 40.3552 48.3809 40.1992 48.3694 39.7241C48.3644 39.493 48.9193 39.4134 48.9649 39.3752C49.6345 38.7891 48.549 38.9516 48.3224 38.9727C47.4909 39.0554 48.3076 38.5079 47.7499 38.5569C47.1962 38.6051 46.5638 39.1913 46.4255 38.784C46.8597 38.4968 48.2121 38.3418 48.3017 37.962C48.6215 36.6027 47.0727 34.9099 46.5438 33.9599C46.5145 33.9078 46.4886 33.8583 46.4664 33.8115C46.0501 32.9296 46.0486 32.6033 45.7072 32.118C45.0979 31.2349 46.1472 31.3159 46.4141 30.6025C46.6886 29.8938 44.4306 30.7971 43.9049 30.842C43.379 30.8832 43.8719 30.6551 43.5663 30.6113C43.261 30.5679 42.9811 30.9015 42.8095 30.659C42.6367 30.4189 43.3649 29.4681 43.8788 29.2674C44.9624 28.8327 46.2047 28.8822 45.6558 28.3224C45.6234 28.2887 45.0259 28.54 44.9331 28.4039C44.2195 27.3264 44.0131 26.0994 43.5187 24.92C43.4499 24.758 42.7515 24.9413 42.7036 24.845C42.2152 23.8078 43.4224 24.1313 44.7471 23.6285C42.9898 23.7258 41.902 23.3929 41.9429 22.5555C41.943 22.5542 41.9431 22.5528 41.9431 22.5515C41.9732 22.054 42.7349 22.2036 43.3033 21.9541C43.4742 21.8818 42.9868 21.4916 43.354 21.4752C44.5535 21.4297 45.8218 21.8887 45.4049 21.0943C45.3852 21.0579 44.7292 21.0637 44.7081 20.944C44.5767 20.1632 45.8098 20.2984 46.1216 19.5933C46.3642 19.045 45.9347 17.7991 46.0601 17.0768C44.1785 16.4522 44.8572 15.8994 46.2306 16.1435C46.3479 15.686 46.6131 15.2551 46.6287 14.7631C46.6343 14.5949 46.0703 14.4502 46.022 14.4068C45.2703 13.7126 46.5652 14.0858 46.6555 14.0183C47.585 13.2609 47.1575 11.9604 48.5558 11.5744C48.6076 11.5589 49.7974 12.2488 49.0994 11.4766C49.0521 11.4226 48.3352 11.3788 48.5646 10.9347C48.7787 10.5157 48.7403 9.3604 49.5809 9.13847C49.6049 9.13793 49.63 9.13889 49.6561 9.14146C49.7496 9.14783 50.0432 9.29582 50.23 9.38101C50.4214 9.4619 50.5087 9.46933 50.3499 9.04873C50.3085 8.93349 50.0547 8.62877 49.9768 8.4166C49.7688 7.71808 50.5354 8.878 50.1855 7.7309C49.8416 6.57553 50.2149 5.4435 51.2179 6.01802C51.2549 6.03252 51.7043 7.05146 51.9159 6.98393C52.2548 6.87291 52.7231 6.55193 53.1068 6.5028C53.2875 6.47992 53.2707 7.17423 53.3036 7.18202C54.5245 7.3992 55.3166 6.7368 56.6289 6.42101C56.8719 6.36172 57.5793 7.27665 58.0326 6.53337C58.5356 5.72013 57.9687 2.36324 59.1847 3.1567C59.6753 3.47483 60.2761 7.73807 61.1338 5.52962C61.2498 5.56771 61.3647 5.59758 61.4783 5.62042C61.5071 5.61797 61.5891 5.6329 61.6177 5.63767C63.0281 6.31285 64.6647 5.78572 65.9723 6.89884C66.0355 6.95209 65.9454 8.16122 66.121 8.19313C66.3804 8.23776 66.6669 7.74052 66.8549 7.75512C67.6595 7.8067 68.2084 8.45829 68.957 8.599C69.2392 8.65326 69.2984 8.07155 69.6409 8.13843C69.9811 8.20548 69.9782 8.99386 70.5294 8.77672C70.9383 8.60795 71.7284 7.22962 72.2241 7.19179C71.7992 8.65798 72.1122 8.71981 72.5369 9.27228C72.6183 9.37919 72.3498 9.85231 72.3802 9.92904C72.5007 10.2528 72.8085 9.88722 72.9145 10.2324C72.9397 10.3152 72.7868 10.8135 72.7983 10.9092C72.8851 11.7401 73.7665 10.7885 73.9155 10.6216C74.4996 9.99317 74.4525 10.6897 74.8131 10.4844C75.1744 10.2794 74.8899 9.7877 75.2592 9.71137C76.0215 9.553 76.8257 9.9028 77.4867 10.0944C77.7469 10.173 77.3539 10.7764 77.3861 10.803C77.8706 11.1476 78.6486 10.6247 78.5109 12.038C80.0062 8.75649 78.723 12.475 79.7275 12.0441C79.8075 12.0086 80.3975 10.4182 80.2394 10.1066C80.0959 9.79974 79.5688 10.1853 79.3754 9.71378C79.3212 9.60032 79.3862 7.95019 79.3555 7.83884C79.1225 6.97083 78.2657 9.35496 78.1977 9.47901C77.4415 10.8105 77.4428 9.01079 77.3388 8.85258C76.8595 8.1264 76.1875 8.28359 75.7665 7.74299C75.4801 7.38917 75.957 5.80024 75.6542 5.75743C74.66 5.61918 73.6527 7.72913 73.3551 5.53833C73.2915 5.07139 74.0138 3.39572 72.9078 4.54939C72.8411 4.62294 71.953 5.71681 71.8994 4.83982C71.8926 4.72923 72.0453 4.22338 72.0095 4.16634C71.7655 3.79382 71.4236 4.13138 71.1271 3.83379C70.8227 3.53396 70.4851 3.12227 70.0197 3.1745C69.7471 3.20727 69.1597 4.06311 68.9753 4.26118C68.4525 4.83397 68.4124 3.63977 67.9756 4.39039C67.5407 5.14603 67.5919 6.49298 66.9124 6.86976C67.262 5.54207 67.5949 4.17214 67.9332 2.83324C66.7225 2.54596 65.4284 2.65626 64.2406 2.283C64.0941 2.23554 64.433 1.56127 64.28 1.49185C63.7743 1.26635 63.2358 1.43182 62.707 1.33996C62.4534 1.29757 61.7258 1.16508 61.4696 1.18681C61.3231 1.19907 61.171 1.18948 61.0115 1.14207C60.4696 0.977197 59.8634 0.194693 59.2674 -0.000241252C58.9111 1.57141 58.0233 1.04344 57.3591 1.20189C57.1276 1.25658 57.1535 1.67575 56.9919 1.81682C56.3839 2.34075 56.6318 0.945283 56.4498 0.732477C55.6499 -0.169562 55.7254 2.9693 54.8536 2.9494C54.8146 2.94792 54.0903 1.32567 53.9886 1.23159C53.3819 0.606432 53.9544 1.81967 53.6338 1.97645C53.0412 2.26858 52.6914 2.7131 51.853 2.36194C51.6163 2.25556 50.829 1.34551 50.5351 2.25363C50.4991 2.37179 50.6695 2.89968 50.6297 2.94333C49.9099 3.69792 49.3792 2.05263 48.5401 1.73163C47.6805 1.41184 47.1016 3.07003 47.1075 3.4935C47.0618 4.57752 47.701 3.57621 47.7732 3.65157C48.5677 4.41592 47.8511 4.57027 47.407 5.00259C48.3172 6.43493 47.753 6.77793 46.9553 5.46386C46.8737 5.3099 47.3596 5.12616 47.407 5.00259C46.3442 4.16836 45.2868 4.45538 45.0995 5.67982C45.1555 5.89441 45.2735 6.17384 45.4722 6.49968C45.886 7.17435 46.7299 7.45684 45.9779 7.97371C45.6371 8.21589 44.761 7.41781 44.2905 7.54046C43.2144 7.82568 43.5743 9.32776 43.0208 9.96642C42.8164 10.2036 42.4008 9.62901 42.2412 9.78249C41.8109 10.2008 42.0091 10.8628 41.5363 11.263C41.4925 11.2996 40.9451 10.8874 40.8579 11.046C40.1842 12.2552 40.1146 13.5286 39.6551 14.8876C39.4296 15.5405 38.7131 16.6406 38.6117 17.3813C38.4149 18.6663 39.1208 20.3526 38.7804 21.3792C38.5595 22.0619 37.907 21.8516 37.4245 22.1306C37.37 22.1626 37.3238 22.197 37.2854 22.2334C36.6603 22.8367 38.0711 23.9129 38.308 24.0203C38.3144 24.0221 38.4785 23.3947 38.8208 23.7338C39.5393 23.9266 38.3112 24.0106 38.308 24.0203C38.4599 24.1201 38.6534 25.3453 38.5496 25.5893C38.4886 25.7257 37.8474 25.6974 37.828 25.7698C37.3813 27.4784 37.4929 29.1487 38.1263 30.6284C38.1449 30.6527 38.8322 30.4576 38.8671 30.5158C39.3732 31.3197 38.6668 32.0715 38.365 32.9314C38.0644 33.7878 38.4065 34.3149 39.7026 34.3568C39.7182 34.9266 40.4764 35.4898 40.9312 35.7956C40.9747 35.8253 41.0024 35.8568 41.0167 35.8897C41.1454 36.1797 40.0875 36.6024 40.075 36.6419C39.6216 38.0027 40.5914 38.3593 41.1063 39.4234C41.3539 39.9307 41.5459 41.044 41.6156 41.668C41.6676 42.1604 42.0742 42.3192 42.0361 42.8094C42.0313 42.8756 41.4312 43.0361 41.4154 43.0618C40.8984 43.7876 42.228 43.0299 42.5166 43.0302C43.5675 43.0341 44.1351 43.0574 43.9308 43.8135C43.8844 43.9877 42.009 45.1719 41.989 45.4709C41.9663 45.8567 42.6457 45.4526 42.6031 45.8609C42.5999 45.8949 42.1503 46.0668 42.2544 46.2725C42.7305 47.2256 43.4255 48.1949 43.8368 49.2731C43.8957 49.4219 43.1136 49.536 43.1875 49.7559C43.4237 50.4492 43.7278 51.1598 44.2493 51.9583C44.4847 52.3052 44.7447 52.6223 45.033 52.9037C45.2489 53.1103 45.6316 52.6963 45.8001 52.6736C46.8158 52.5301 45.8606 53.6664 45.8846 53.7594C46.3407 55.8777 48.4011 56.5954 48.7511 58.1784C48.7562 58.2177 48.5311 58.5703 48.3953 58.7645C48.2674 58.97 48.1761 58.9355 48.657 58.456C48.6875 58.4226 48.9385 58.2207 49.0558 57.895C49.2051 57.5087 49.0096 57.2117 48.7814 55.413C48.7484 55.4158 48.7111 55.4181 48.669 55.4196C48.6424 55.4204 48.4824 55.3856 48.3253 55.3659C48.2875 55.3877 48.2521 55.3887 48.2219 55.3553C48.087 55.3444 47.9799 55.357 48.0032 55.4079C48.0557 55.5493 47.5962 55.5056 48.3394 55.6084C48.4558 55.6284 48.8286 55.729 49.0556 55.7706C49.2879 55.8042 49.3544 55.8007 49.0058 55.3646C48.9835 55.3361 48.5307 54.8824 48.4664 54.3295C48.3761 53.7949 48.7846 53.1711 49.5278 53.6479C49.6504 53.7305 49.9622 54.154 50.2767 54.3702C50.501 54.6209 50.6203 54.7527 50.5758 54.2973C50.5688 54.1113 50.2611 53.829 50.3704 53.5163C50.461 53.2751 50.6606 53.2364 50.7651 53.1856C50.8747 53.133 50.8912 53.0577 50.8298 52.6778C50.8005 52.5436 50.6961 51.3819 50.5574 52.2731C50.5339 52.4127 50.6034 52.9865 50.5061 53.0529C50.0165 53.3717 49.1677 52.9632 48.3061 53.3516C47.9947 53.4883 48.143 54.4192 47.8252 54.6663C47.4949 54.9129 46.8577 55.1559 46.5016 54.7386C46.1399 54.3213 46.4989 52.8302 45.9583 52.7257C43.5529 52.2781 41.2724 53.3957 39.062 53.9001C38.7352 53.9753 38.9225 53.4042 38.4248 53.4818C37.7596 53.586 36.931 53.6716 36.0595 53.8263C34.6451 54.0708 33.1564 54.4855 32.4175 55.4097C31.4949 56.5706 33.095 56.8779 32.3175 57.4518C31.9464 57.726 31.0636 56.1753 30.9466 56.1499C29.8111 55.8772 29.3217 56.8015 28.3644 56.8286C28.1673 56.834 28.1571 56.1111 27.9909 56.1234C27.4133 56.1618 26.9328 56.6273 26.4002 56.7283C26.1587 56.7729 26.0468 56.2496 25.8439 56.3545C25.3567 56.6001 24.9655 56.9581 24.6169 57.5963C24.5861 57.6542 25.0943 58.1868 24.7268 58.3319C24.1215 58.5688 23.5282 59.2895 22.645 59.0666C22.3786 59.0002 21.9478 57.8585 21.7772 58.8201C21.7392 59.0227 22.3806 60.3426 21.3934 59.367C21.2364 59.2003 19.6461 57.9951 19.5783 59.2262C19.5637 59.5476 19.7296 60.7826 19.3753 60.7401C19.3242 60.7308 19.2028 60.0649 18.9405 60.117C17.952 60.3769 17.1726 60.7311 15.4378 61.8395C14.897 62.2342 15.2385 61.0214 14.3856 61.7129C14.1322 61.9291 13.7756 62.2766 13.4351 62.6967C12.4244 63.8796 12.0914 64.7928 11.7905 65.6817C11.6781 66.0395 12.2919 66.0956 12.3316 66.1493C12.9958 66.9919 11.712 66.5485 11.5749 66.6371C10.7591 67.1644 11.0362 68.0162 10.5617 68.6186C10.4311 68.789 9.91834 68.3794 9.8488 68.3927C9.16049 68.5445 10.3358 68.7446 10.3352 69.0433C10.3395 69.8792 9.96107 70.611 9.59845 71.2682C9.46401 71.5106 8.898 70.9411 8.78602 71.1609C8.10325 72.4766 7.64436 73.9186 7.58238 75.3739C7.57143 75.6504 8.16595 75.6743 8.27192 75.7679C8.69515 76.1303 8.4456 76.3246 8.12072 76.4473C7.86933 76.55 7.57515 76.6085 7.50827 76.6496C6.806 77.0789 7.22021 77.4594 6.98294 77.9442C5.80527 80.3482 5.53484 83.3673 5.33468 85.5613C5.07092 88.4278 5.25362 90.637 4.67389 93.2075C4.67303 93.2113 4.67218 93.2151 4.67133 93.2189C4.63535 93.3812 3.91488 93.0887 3.87423 93.2271C3.38163 95.0309 3.36424 96.8979 2.83802 98.7204C2.7962 98.8701 2.12279 98.5319 2.03175 98.7685C1.83981 99.2543 1.77297 99.8982 1.91618 100.446C1.98468 100.713 2.64893 100.479 2.70547 100.745C2.83872 101.365 2.78802 101.998 2.57803 102.58C2.48713 102.828 1.8218 102.326 1.76028 102.657C1.32725 104.911 0.857956 107.147 1.48479 109.617C1.52781 109.787 2.9917 110.127 2.66256 110.427C2.24747 110.398 1.76338 110.333 1.32185 110.286C0.974205 111.995 0.840163 113.745 0.791354 115.561C0.745196 117.313 0.783749 119.09 0.800786 120.92C0.802256 121.076 0.0123471 120.794 0.01143 121.102C0.00471539 122.871 -0.136076 124.705 0.78413 126.351C0.874019 126.513 2.25761 126.322 2.08592 126.819C2.05447 126.91 1.9274 127.63 1.6394 127.825C1.59577 127.852 0.93704 127.783 0.935611 128C0.936155 128.286 0.947933 128.563 0.969733 128.83C1.05081 129.836 1.27356 130.835 1.63567 131.799C1.71244 131.999 2.39237 131.742 2.45317 131.886C2.87877 132.906 2.4052 134.051 3.06828 135.002C3.51419 135.646 4.70341 135.36 5.89332 135.683C6.0612 135.725 6.09898 136.147 6.78567 136.151C8.51234 136.16 10.3959 135.905 12.237 135.939C12.4351 135.935 12.4319 136.102 12.4962 136.149C12.5213 136.149 12.6015 136.23 12.6262 135.679C12.6429 135.466 12.7873 135.964 12.8663 136.05C12.953 136.134 13.0505 136.144 13.1696 136.122C13.2339 136.147 13.5404 135.718 13.8621 135.603C14.0845 135.522 14.7859 135.635 15.0691 135.479C15.3518 135.317 14.7622 135.171 15.0916 134.909C15.4248 134.644 16.2227 134.728 16.2981 134.221ZM42.9334 37.0627C43.6884 37.196 41.4066 38.0683 41.8194 37.4849C41.842 37.4557 42.896 37.0552 42.9334 37.0627ZM64.9569 4.44045C64.2051 5.35456 64.2771 3.73586 64.8317 3.02194C65.3869 2.30935 65.1874 4.16412 64.9569 4.44045ZM69.7059 6.5841C68.9156 7.23862 69.7871 3.88568 70.1938 4.73294C70.2176 4.78108 69.752 6.54618 69.7059 6.5841ZM6.17023 134.016C6.20296 134.021 6.24669 134.318 6.21481 134.327C5.44623 134.517 5.35942 133.923 6.17023 134.016ZM74.328 8.88293C74.0171 9.2759 73.6813 8.604 74.0687 8.11492C74.3853 7.7229 74.7165 8.39448 74.328 8.88293ZM53.5736 54.0411C53.6077 54.0262 53.7577 54.1866 53.585 54.2986C53.0319 54.6634 53.0133 54.3066 53.5736 54.0411ZM82.5457 11.4681C81.1152 11.1896 79.8364 13.886 81.2119 13.8603C81.4547 13.8574 80.9208 12.8559 81.2762 12.6736C81.6102 12.5089 81.7588 12.8884 81.8656 13.2071C81.9782 13.5277 82.0635 13.7842 82.5081 13.453C82.6926 13.3372 82.6757 11.4891 82.5445 11.4635C82.5449 11.4651 82.5453 11.4666 82.5457 11.4681ZM45.7701 36.285C45.8029 36.2809 45.933 36.5546 45.9055 36.5729C45.2304 36.9879 44.967 36.4343 45.7701 36.285ZM47.2614 61.2097C47.2419 61.2774 46.5667 61.3502 46.539 61.2887C46.1457 60.0259 47.5668 59.8731 47.2614 61.2097ZM46.0139 17.049C46.8519 17.0115 47.0547 16.7291 46.231 16.1451C46.1686 16.4498 46.0696 16.7414 46.0139 17.049Z" fill="black"/>
</svg>
